<?xml version="1.0" encoding="UTF-8"?>
<svg width="16px" height="16px" viewBox="0 0 16 16" version="1.1" xmlns="http://www.w3.org/2000/svg" xmlns:xlink="http://www.w3.org/1999/xlink">
    <!-- Generator: Sketch 60.1 (88133) - https://sketch.com -->
    <title>Group 2</title>
    <desc>Created with Sketch.</desc>
    <g id="Desktop" stroke="none" stroke-width="1" fill="none" fill-rule="evenodd">
        <g id="1.1-Login-/-Signup---Landing---Desktop" transform="translate(-1224.000000, -54.000000)" fill-rule="nonzero">
            <g id="Group-6">
                <g id="Group-2" transform="translate(1212.000000, 42.000000)">
                    <circle id="Oval-4" cx="20" cy="20" r="20"></circle>
                    <path d="M19.9399071,12 C18.1330216,12 16.6628275,13.4717579 16.6628275,15.2805381 L16.6628275,16.9504924 L15.3960917,16.9504924 C14.4067655,16.9504924 13.4733265,17.8047699 13.2698196,18.9001313 L12.0327755,25.8024056 C11.9320374,26.3480093 12.0652219,26.8756273 12.4088219,27.2900059 C12.7820651,27.7403118 13.371264,27.999315 14.021824,28 L25.9752558,28 C26.6272063,28 27.2177958,27.7410189 27.5924296,27.2893431 C27.9360075,26.8749644 28.0677794,26.3466173 27.9670633,25.8065375 L26.728717,18.8960436 C26.525188,17.8048362 25.5917048,16.9504924 24.600988,16.9504924 L23.2170305,16.9504924 L23.2170305,15.2805381 C23.2170305,13.4717579 21.7467922,12 19.9399071,12 Z M19.9399071,13.3812769 C20.9872174,13.3812769 21.8372005,14.2328367 21.8372005,15.2805381 L21.8372005,16.9504924 L18.0426354,16.9504924 L18.0426354,15.2805381 C18.0426354,14.2328367 18.8939874,13.3812769 19.9399071,13.3812769 Z M15.3975043,18.3311064 L16.6628275,18.3311064 L16.6628275,19.7696989 C16.6628275,20.1516191 16.9712001,20.4603371 17.3527204,20.4603371 C17.7342628,20.4603371 18.0426354,20.1516191 18.0426354,19.7696989 L18.0426354,18.3311064 L21.8372005,18.3311064 L21.8372005,19.7696989 C21.8372005,20.1516191 22.1455731,20.4603371 22.5270934,20.4603371 C22.9086137,20.4603371 23.2170305,20.1516191 23.2170305,19.7696989 L23.2170305,18.3311064 L24.6024006,18.3311064 C24.8935347,18.3311064 25.2839944,18.6805464 25.370231,19.1439549 L26.6099678,26.0558629 C26.6355276,26.1932968 26.6086435,26.3120821 26.5306178,26.4073799 C26.4188876,26.5420518 26.2167271,26.6194081 25.9752558,26.6194081 L14.0232367,26.6194081 C13.7831559,26.6194081 13.5809291,26.5413669 13.469199,26.4073799 C13.3912616,26.3120821 13.3643333,26.1932747 13.3898489,26.0503169 L14.6282614,19.1481089 C14.714498,18.6805464 15.1049576,18.3311064 15.3975043,18.3311064 Z" id="Shape" fill="#212121"></path>
                </g>
            </g>
        </g>
    </g>
</svg>