<?xml version="1.0" encoding="UTF-8"?>
<svg width="36px" height="36px" viewBox="0 0 36 36" version="1.1" xmlns="http://www.w3.org/2000/svg" xmlns:xlink="http://www.w3.org/1999/xlink">
    <!-- Generator: Sketch 60.1 (88133) - https://sketch.com -->
    <title>Close-2</title>
    <desc>Created with Sketch.</desc>
    <g id="03-Saved-Collections" stroke="none" stroke-width="1" fill="none" fill-rule="evenodd">
        <g id="1.1-Saved-Curation---Normal-State---Desktop" transform="translate(-458.000000, -165.000000)" fill="#FFFFFF">
            <g id="Close-2" transform="translate(464.000000, 168.000000)">
                <g id="Shape">
                    <path d="M12.1173333,0.213333333 C5.63719227,0.213333333 0.384,5.4665256 0.384,11.9466667 C0.384,18.4268077 5.63719227,23.68 12.1173333,23.68 C18.5974744,23.68 23.8506667,18.4268077 23.8506667,11.9466667 C23.8506667,5.4665256 18.5974744,0.213333333 12.1173333,0.213333333 L12.1173333,0.213333333 Z M12.1173333,22.08 C6.52084787,22.08 1.984,17.5431521 1.984,11.9466667 C1.984,6.3501812 6.52084787,1.81333333 12.1173333,1.81333333 C17.7138188,1.81333333 22.2506667,6.3501812 22.2506667,11.9466667 C22.2506667,14.6341938 21.1830507,17.2116467 19.282682,19.1120154 C17.3823134,21.012384 14.8048604,22.08 12.1173333,22.08 Z"></path>
                    <path d="M16.4053333,7.63733333 C16.0929946,7.32538306 15.5870054,7.32538306 15.2746667,7.63733333 L12.24,10.7946667 L8.93866667,7.59466667 C8.73481375,7.38629852 8.43375934,7.30530415 8.15287488,7.38326065 C7.87199042,7.46121715 7.65574119,7.68578366 7.58843581,7.96940891 C7.52113044,8.25303415 7.61342367,8.55081899 7.82933333,8.74666667 L11.1093333,11.904 L7.82933333,15.0613333 C7.61342367,15.257181 7.52113044,15.5549658 7.58843581,15.8385911 C7.65574119,16.1222163 7.87199042,16.3467829 8.15287488,16.4247394 C8.43375934,16.5026959 8.73481375,16.4217015 8.93866667,16.2133333 L12.24,13.0133333 L15.2746667,16.1706667 C15.4705143,16.3865763 15.7682992,16.4788696 16.0519244,16.4115642 C16.3355497,16.3442588 16.5601162,16.1280096 16.6380727,15.8471251 C16.7160292,15.5662407 16.6350348,15.2651862 16.4266667,15.0613333 L13.3706667,11.8613333 L16.4266667,8.66133333 C16.6676241,8.35958507 16.658649,7.92878425 16.4053333,7.63733333 L16.4053333,7.63733333 Z"></path>
                </g>
            </g>
        </g>
    </g>
</svg>