<?xml version="1.0" encoding="UTF-8"?>
<svg width="15px" height="10px" viewBox="0 0 15 10" version="1.1" xmlns="http://www.w3.org/2000/svg" xmlns:xlink="http://www.w3.org/1999/xlink">
    <!-- Generator: Sketch 60.1 (88133) - https://sketch.com -->
    <title>Shape</title>
    <desc>Created with Sketch.</desc>
    <defs>
        <linearGradient x1="100%" y1="60.3841126%" x2="0%" y2="60.3841146%" id="linearGradient-1">
            <stop stop-color="#F01E6C" offset="0%"></stop>
            <stop stop-color="#FC5D1F" offset="100%"></stop>
        </linearGradient>
    </defs>
    <g id="Desktop" stroke="none" stroke-width="1" fill="none" fill-rule="evenodd">
        <g id="1.3-Login-/-Signup----Landing---Pressed-State---Desktop" transform="translate(-1011.000000, -11.000000)" fill="url(#linearGradient-1)">
            <g id="Group-6">
                <g id="Group-3">
                    <path d="M1012.15385,11 C1011.51462,11 1011,11.5406093 1011,12.2121275 L1011,14.9393856 L1013.31671,14.9393856 C1013.34019,14.4147878 1013.43007,13.8921599 1013.59277,13.3721433 C1014.29908,13.5393586 1014.9171,13.8495085 1015.60186,14.2978287 C1015.42908,14.5644798 1015.32692,14.8850292 1015.32692,15.229401 C1015.32692,15.5499962 1015.41874,15.8477539 1015.57032,16.1029748 C1014.86962,16.5577087 1014.265,16.8432574 1013.59277,17.0085257 C1013.4372,16.5188827 1013.34839,16.0309577 1013.31896,15.5454379 L1011,15.5454379 L1011,19.7878725 C1011,20.4593907 1011.51462,21 1012.15385,21 L1024.84615,21 C1025.48538,21 1026,20.4593907 1026,19.7878725 L1026,15.5454379 L1020.50684,15.5454379 C1020.47741,16.0309577 1020.3886,16.5188827 1020.23303,17.0085257 C1019.56096,16.843372 1018.95596,16.5587624 1018.25548,16.104166 C1018.40755,15.848716 1018.5,15.550546 1018.5,15.229401 C1018.5,14.8847314 1018.39815,14.5634948 1018.22506,14.2966376 C1018.9093,13.8488214 1019.52716,13.539244 1020.23303,13.3721433 C1020.39573,13.8921599 1020.48561,14.4147878 1020.50909,14.9393856 L1026,14.9393856 L1026,12.2121275 C1026,11.5406093 1025.48538,11 1024.84615,11 L1012.15385,11 Z M1016.91346,14.0172736 C1017.21948,14.0172736 1017.51297,14.1449797 1017.72936,14.3722979 C1017.94574,14.5996161 1018.06731,14.9079255 1018.06731,15.229401 C1018.06731,15.5508765 1017.94574,15.8591859 1017.72936,16.0865041 C1017.51297,16.3138223 1017.21948,16.4415285 1016.91346,16.4415285 C1016.60744,16.4415285 1016.31395,16.3138223 1016.09757,16.0865041 C1015.88118,15.8591859 1015.75962,15.5508765 1015.75962,15.229401 C1015.75962,14.9079255 1015.88118,14.5996161 1016.09757,14.3722979 C1016.31395,14.1449797 1016.60744,14.0172736 1016.91346,14.0172736 L1016.91346,14.0172736 Z M1015.90385,16.5018863 C1016.17952,16.7440736 1016.52906,16.8960562 1016.91346,16.8960562 C1017.29787,16.8960562 1017.6474,16.7441881 1017.92308,16.5018863 L1017.92308,18.8787712 L1016.91346,17.7992249 L1015.90385,18.8787712 L1015.90385,16.5018863 Z M1022.54184,17.0605915 L1024.27261,17.0605915 L1024.27261,18.8787712 L1022.54184,18.8787712 L1022.54184,17.0605915 Z" id="Shape"></path>
                </g>
            </g>
        </g>
    </g>
</svg>