<?xml version="1.0" encoding="UTF-8"?>
<svg width="16px" height="16px" viewBox="0 0 16 16" version="1.1" xmlns="http://www.w3.org/2000/svg" xmlns:xlink="http://www.w3.org/1999/xlink">
    <!-- Generator: Sketch 60.1 (88133) - https://sketch.com -->
    <title>Group 11</title>
    <desc>Created with Sketch.</desc>
    <g id="Desktop" stroke="none" stroke-width="1" fill="none" fill-rule="evenodd">
        <g id="3.1-Signup---Normal-State---Desktop" transform="translate(-512.000000, -510.000000)">
            <g id="Group-2" transform="translate(508.000000, 506.000000)">
                <g id="Group-11">
                    <rect id="Rectangle-6" x="0" y="0" width="24" height="24"></rect>
                    <g id="Idea" transform="translate(4.000000, 4.000000)" fill="#D88350">
                        <path d="M7.72869565,2.00851064 C8.01684422,2.00851064 8.25043478,1.77989009 8.25043478,1.49787234 L8.25043478,0.817021277 C8.25043478,0.535003532 8.01684422,0.306382979 7.72869565,0.306382979 C7.44054709,0.306382979 7.20695652,0.535003532 7.20695652,0.817021277 L7.20695652,1.49787234 C7.20695652,1.77989009 7.44054709,2.00851064 7.72869565,2.00851064 Z" id="Shape"></path>
                        <path d="M15.2069565,6.60425532 L14.5113043,6.60425532 C14.2231558,6.60425532 13.9895652,6.83287587 13.9895652,7.11489362 C13.9895652,7.39691136 14.2231558,7.62553191 14.5113043,7.62553191 L15.2069565,7.62553191 C15.4951051,7.62553191 15.7286957,7.39691136 15.7286957,7.11489362 C15.7286957,6.83287587 15.4951051,6.60425532 15.2069565,6.60425532 Z" id="Shape"></path>
                        <path d="M1.81565217,7.11489362 C1.81565217,6.83287587 1.58206161,6.60425532 1.29391304,6.60425532 L0.59826087,6.60425532 C0.310112304,6.60425532 0.0765217391,6.83287587 0.0765217391,7.11489362 C0.0765217391,7.39691136 0.310112304,7.62553191 0.59826087,7.62553191 L1.29391304,7.62553191 C1.58206161,7.62553191 1.81565217,7.39691136 1.81565217,7.11489362 Z" id="Shape"></path>
                        <path d="M12.573913,3.73106383 C12.7122402,3.73094465 12.8448575,3.67706723 12.9426087,3.5812766 L13.4365217,3.1012766 C13.6280757,2.90007847 13.6224236,2.58654657 13.4237369,2.39208729 C13.2250502,2.197628 12.9047024,2.1920961 12.6991304,2.37957447 L12.2052174,2.85957447 C12.0561946,3.00560805 12.0116465,3.22508397 12.0923221,3.41577771 C12.1729977,3.60647145 12.3630319,3.73088229 12.573913,3.73106383 Z" id="Shape"></path>
                        <path d="M3.25217391,2.85957447 L2.75826087,2.37957447 C2.55268887,2.1920961 2.23234106,2.197628 2.0336544,2.39208729 C1.83496774,2.58654657 1.82931558,2.90007847 2.02086957,3.1012766 L2.51478261,3.5812766 C2.72035461,3.76875497 3.04070242,3.76322306 3.23938908,3.56876378 C3.43807574,3.37430449 3.4437279,3.0607726 3.25217391,2.85957447 L3.25217391,2.85957447 Z" id="Shape"></path>
                        <path d="M13.6417391,11.0297872 C13.4361671,10.8423089 13.1158193,10.8478408 12.9171327,11.0423001 C12.718446,11.2367593 12.7127938,11.5502912 12.9043478,11.7514894 L13.3982609,12.2314894 C13.6038329,12.4189677 13.9241807,12.4134358 14.1228673,12.2189765 C14.321554,12.0245173 14.3272062,11.7109854 14.1356522,11.5097872 L13.6417391,11.0297872 Z" id="Shape"></path>
                        <path d="M1.81565217,11.0297872 L1.32173913,11.5097872 C1.13018514,11.7109854 1.1358373,12.0245173 1.33452397,12.2189765 C1.53321063,12.4134358 1.85355843,12.4189677 2.05913043,12.2314894 L2.55304348,11.7514894 C2.74459747,11.5502912 2.7389453,11.2367593 2.54025864,11.0423001 C2.34157198,10.8478408 2.02122418,10.8423089 1.81565217,11.0297872 Z" id="Shape"></path>
                        <path d="M12.7721739,7.96595745 C12.7755168,5.62774954 11.0452486,3.63248698 8.68744044,3.25563805 C6.32963226,2.87878912 4.04071109,4.23166388 3.28386598,6.44943938 C2.52702088,8.66721489 3.52580155,11.0948257 5.64173913,12.1804255 C5.53325165,12.3448037 5.47530078,12.5362265 5.47478261,12.7319149 L5.47478261,13.7531915 C5.47478261,14.8812625 6.40914487,15.7957447 7.56173913,15.7957447 L8.2573913,15.7957447 C9.40998556,15.7957447 10.3443478,14.8812625 10.3443478,13.7531915 L10.3443478,12.7319149 C10.3438297,12.5362265 10.2858788,12.3448037 10.1773913,12.1804255 C11.7736839,11.3549949 12.7723614,9.73293436 12.7721739,7.96595745 Z M9.29391304,12.7319149 L9.29391304,13.0723404 L7.55478261,13.0723404 C7.26663404,13.0723404 7.03304348,13.300961 7.03304348,13.5829787 C7.03304348,13.8649965 7.26663404,14.093617 7.55478261,14.093617 L9.23130435,14.093617 C9.08426146,14.5006736 8.69156693,14.7732547 8.25043478,14.7744681 L7.55478261,14.7744681 C6.97848548,14.7744681 6.51130435,14.317227 6.51130435,13.7531915 L6.51130435,12.7319149 L9.29391304,12.7319149 Z M7.9026087,11.7106383 L7.9026087,11.7106383 C5.78951922,11.7106383 4.07652174,10.0340876 4.07652174,7.96595745 C4.07652174,5.89782732 5.78951922,4.2212766 7.9026087,4.2212766 C10.0156982,4.2212766 11.7286957,5.89782732 11.7286957,7.96595745 C11.7286961,8.95969866 11.3251142,9.91268916 10.6068313,10.615051 C9.8885483,11.3174128 8.9144743,11.7115417 7.89913043,11.7106383 L7.9026087,11.7106383 Z" id="Shape"></path>
                        <path d="M7.9026087,5.07234043 C7.61446013,5.07234043 7.38086957,5.30096098 7.38086957,5.58297872 C7.38086957,5.86499647 7.61446013,6.09361702 7.9026087,6.09361702 C8.95835948,6.09549062 9.81373784,6.93266945 9.81565217,7.96595745 C9.81565217,8.24797519 10.0492427,8.47659574 10.3373913,8.47659574 C10.6255399,8.47659574 10.8591304,8.24797519 10.8591304,7.96595745 C10.8572138,6.36863456 9.53465599,5.07421632 7.9026087,5.07234043 L7.9026087,5.07234043 Z" id="Shape"></path>
                    </g>
                </g>
            </g>
        </g>
    </g>
</svg>