<?xml version="1.0" encoding="UTF-8"?>
<svg width="31px" height="32px" viewBox="0 0 31 32" version="1.1" xmlns="http://www.w3.org/2000/svg" xmlns:xlink="http://www.w3.org/1999/xlink">
    <!-- Generator: Sketch 62 (91390) - https://sketch.com -->
    <title>Share-2</title>
    <desc>Created with Sketch.</desc>
    <defs>
        <filter x="-5.3%" y="-29.5%" width="110.5%" height="159.1%" filterUnits="objectBoundingBox" id="filter-1">
            <feOffset dx="0" dy="2" in="SourceAlpha" result="shadowOffsetOuter1"></feOffset>
            <feGaussianBlur stdDeviation="2" in="shadowOffsetOuter1" result="shadowBlurOuter1"></feGaussianBlur>
            <feColorMatrix values="0 0 0 0 0.962106718   0 0 0 0 0.890631554   0 0 0 0 0.847746455  0 0 0 1 0" type="matrix" in="shadowBlurOuter1" result="shadowMatrixOuter1"></feColorMatrix>
            <feMerge>
                <feMergeNode in="shadowMatrixOuter1"></feMergeNode>
                <feMergeNode in="SourceGraphic"></feMergeNode>
            </feMerge>
        </filter>
    </defs>
    <g id="06-Refer-&amp;-Earn" stroke="none" stroke-width="1" fill="none" fill-rule="evenodd">
        <g id="2.2-Invite-&amp;-Earn---Hover-State---Desktop" transform="translate(-801.000000, -211.000000)" fill="#BB4225">
            <g id="Group-20" transform="translate(507.000000, 122.000000)">
                <g id="Group-5" filter="url(#filter-1)" transform="translate(90.000000, 81.000000)">
                    <g id="Share-2" transform="translate(208.000000, 10.000000)">
                        <path d="M18.7066667,15.24 C17.4606642,15.2407722 16.281663,15.8140653 15.4984615,16.8 L8.55128205,13.266 C8.73530519,12.5462908 8.72307206,11.7891667 8.51589744,11.076 L15.5928205,7.182 C16.9707171,8.80454258 19.3287134,9.11055414 21.0628342,7.891877 C22.796955,6.67319986 23.3503105,4.32119589 22.3464928,2.4357643 C21.342675,0.550332711 19.1040467,-0.263045367 17.1533856,0.548912698 C15.2027246,1.36087076 14.1664596,3.5374155 14.7494872,5.598 L7.6725641,9.492 C6.5348435,8.15887738 4.69911668,7.69196406 3.07861758,8.32353919 C1.45811848,8.95511432 0.398845463,10.5503281 0.427763679,12.3155966 C0.456681895,14.0808651 1.56761692,15.6392797 3.20790288,16.2155633 C4.84818884,16.7918468 6.66760261,16.2629551 7.76102564,14.892 L14.7082051,18.426 C14.2774609,20.1656006 14.9802839,21.9914993 16.4576147,22.9708772 C17.9349454,23.9502551 19.8605995,23.8668725 21.2507949,22.763328 C22.6409903,21.6597835 23.1887815,19.7797321 22.6143119,18.0836582 C22.0398424,16.3875843 20.4699508,15.2499692 18.7066667,15.252 L18.7066667,15.24 Z M18.7066667,2.04 C20.0094922,2.04 21.065641,3.1145166 21.065641,4.44 C21.065641,5.7654834 20.0094922,6.84 18.7066667,6.84 C17.4038411,6.84 16.3476923,5.7654834 16.3476923,4.44 C16.3476923,3.1145166 17.4038411,2.04 18.7066667,2.04 Z M4.55282051,14.64 C3.24999495,14.64 2.19384615,13.5654834 2.19384615,12.24 C2.19384615,10.9145166 3.24999495,9.84 4.55282051,9.84 C5.85564608,9.84 6.91179487,10.9145166 6.91179487,12.24 C6.91179487,13.5654834 5.85564608,14.64 4.55282051,14.64 Z M18.7066667,21.84 C17.4038411,21.84 16.3476923,20.7654834 16.3476923,19.44 C16.3476923,18.1145166 17.4038411,17.04 18.7066667,17.04 C20.0094922,17.04 21.065641,18.1145166 21.065641,19.44 C21.065641,20.7654834 20.0094922,21.84 18.7066667,21.84 Z" id="Shape"></path>
                    </g>
                </g>
            </g>
        </g>
    </g>
</svg>