<?xml version="1.0" encoding="UTF-8"?>
<svg width="20px" height="20px" viewBox="0 0 20 20" version="1.1" xmlns="http://www.w3.org/2000/svg" xmlns:xlink="http://www.w3.org/1999/xlink">
    <!-- Generator: Sketch 62 (91390) - https://sketch.com -->
    <title>Group 2</title>
    <desc>Created with Sketch.</desc>
    <g id="09-Gift-Card" stroke="none" stroke-width="1" fill="none" fill-rule="evenodd">
        <g id="2.4-Gift-cards---enter-details-normal-state---Desktop-" transform="translate(-669.000000, -596.000000)">
            <g id="Group-4" transform="translate(660.000000, 588.000000)">
                <g id="Group-2" transform="translate(9.000000, 8.000000)">
                    <g id="Group-5">
                        <circle id="Oval-2" fill="#4CAF50" cx="10" cy="10" r="10"></circle>
                        <path d="M9.39389004,5.56929431 L6.25105535,8.52300212 C5.91631488,8.83759885 5.91631488,9.34767734 6.25105535,9.66227407 C6.58579582,9.9768708 7.1285348,9.9768708 7.46327526,9.66227407 L9.14280612,8.08370521 L9.14280612,14.1944433 C9.14280612,14.6393254 9.52657481,15 9.99994286,15 C10.4733109,15 10.8570796,14.6393254 10.8570796,14.1944433 L10.8570796,8.08370521 L12.5367247,9.66216666 C12.8714652,9.97676339 13.4142042,9.97676339 13.7489447,9.66216666 C14.0836851,9.34756993 14.0836851,8.83749144 13.7489447,8.52289471 L10.60611,5.5691869 C10.2712552,5.25469758 9.72863051,5.25469758 9.39389004,5.56929431 Z" id="Shape" fill="#FFFFFF" fill-rule="nonzero"></path>
                    </g>
                </g>
            </g>
        </g>
    </g>
</svg>