<?xml version="1.0" encoding="UTF-8"?>
<svg width="24px" height="23px" viewBox="0 0 24 23" version="1.1" xmlns="http://www.w3.org/2000/svg" xmlns:xlink="http://www.w3.org/1999/xlink">
    <!-- Generator: Sketch 60.1 (88133) - https://sketch.com -->
    <title>Shape</title>
    <desc>Created with Sketch.</desc>
    <defs>
        <path d="M188.067496,8 C186.365897,8 185.005329,9.3329138 184.159858,10.2154199 C183.296625,9.3402375 181.91119,8 180.213144,8 C177.726465,8 176,9.8052926 176,12.3942213 C176,18.0151628 183.143872,22.6474044 183.460036,22.8341588 C183.804759,23.0552804 184.241422,23.0552804 184.586146,22.8341588 C184.888099,22.6400807 192,17.985868 192,12.3978832 C191.975133,9.68445151 190.479574,8 188.067496,8 Z M183.982238,21.9150342 C183.982238,21.9150342 177.040853,17.4841944 177.040853,12.3942213 C177.040853,10.4278073 178.280639,9.09855533 180.188277,9.09855533 C182.095915,9.09855533 183.790409,11.6618511 184.145648,11.6618511 C184.500888,11.6618511 186.145648,9.09855533 188.053286,9.09855533 C189.960924,9.09855533 190.895204,10.4278073 190.895204,12.3942213 C190.909414,17.4365903 183.982238,21.9150342 183.982238,21.9150342 Z" id="path-1"></path>
        <filter x="-43.8%" y="-33.3%" width="187.5%" height="193.3%" filterUnits="objectBoundingBox" id="filter-2">
            <feOffset dx="0" dy="2" in="SourceAlpha" result="shadowOffsetOuter1"></feOffset>
            <feGaussianBlur stdDeviation="2" in="shadowOffsetOuter1" result="shadowBlurOuter1"></feGaussianBlur>
            <feColorMatrix values="0 0 0 0 0   0 0 0 0 0   0 0 0 0 0  0 0 0 0.2 0" type="matrix" in="shadowBlurOuter1"></feColorMatrix>
        </filter>
    </defs>
    <g id="Desktop" stroke="none" stroke-width="1" fill="none" fill-rule="evenodd">
        <g id="1.1-Home-Page-2.0---Full-Length---Desktop" transform="translate(-252.000000, -1671.000000)">
            <g id="Group-11" transform="translate(80.000000, 1665.000000)">
                <g id="Shape">
                    <use fill="black" fill-opacity="1" filter="url(#filter-2)" xlink:href="#path-1"></use>
                    <use fill="#FFFFFF" fill-rule="evenodd" xlink:href="#path-1"></use>
                </g>
            </g>
        </g>
    </g>
</svg>