<?xml version="1.0" encoding="UTF-8"?>
<svg width="24px" height="24px" viewBox="0 0 24 24" version="1.1" xmlns="http://www.w3.org/2000/svg" xmlns:xlink="http://www.w3.org/1999/xlink">
    <!-- Generator: Sketch 60.1 (88133) - https://sketch.com -->
    <title>Shape</title>
    <desc>Created with Sketch.</desc>
    <g id="Desktop" stroke="none" stroke-width="1" fill="none" fill-rule="evenodd">
        <g id="1.1-Navigation-Drawer---Full-Length---Desktop" transform="translate(-1156.000000, -108.000000)" fill="#E9C0A8" fill-rule="nonzero">
            <g id="Group-29" transform="translate(1140.000000, 92.000000)">
                <path d="M28,16 C21.372583,16 16,21.372583 16,28 C16,34.627417 21.372583,40 28,40 C34.627417,40 40,34.627417 40,28 C40,24.8174021 38.7357179,21.7651552 36.4852814,19.5147186 C34.2348448,17.2642821 31.1825979,16 28,16 Z M35.344,35.3573333 C35.0998254,35.0436585 34.772868,34.8044439 34.4,34.6666667 C32.8,34.1333333 30.9333333,34.1333333 30.4,33.3333333 C30.1230892,32.9560885 29.9694225,32.502539 29.96,32.0346667 C31.56,31.1626667 32.7973333,29.24 33.0293333,27.0026667 C33.1011049,26.3344913 33.0714363,25.6593047 32.9413333,25 C32.5146667,21.9893333 30.5253333,20.2666667 28.1173333,20.2666667 L27.8826667,20.2666667 C25.4826667,20.2666667 23.4853333,21.9893333 23.0586667,24.9973333 C22.9285637,25.656638 22.8988951,26.3318247 22.9706667,27 C23.2026667,29.2373333 24.448,31.1626667 26.04,32.032 C26.0311246,32.5007875 25.8774309,32.9553484 25.6,33.3333333 C25.0666667,34.1333333 23.2,34.1333333 21.6,34.6666667 C21.227132,34.8044439 20.9001746,35.0436585 20.656,35.3573333 C17.6758128,32.3851624 16.7808959,27.9097415 18.3889751,24.0200888 C19.9970542,20.1304362 23.7910434,17.5935256 28,17.5935256 C32.2089566,17.5935256 36.0029458,20.1304362 37.6110249,24.0200888 C39.2191041,27.9097415 38.3241872,32.3851624 35.344,35.3573333 L35.344,35.3573333 Z" id="Shape"></path>
            </g>
        </g>
    </g>
</svg>