<?xml version="1.0" encoding="UTF-8"?>
<svg width="27px" height="27px" viewBox="0 0 27 27" version="1.1" xmlns="http://www.w3.org/2000/svg" xmlns:xlink="http://www.w3.org/1999/xlink">
    <!-- Generator: Sketch 60.1 (88133) - https://sketch.com -->
    <title>Group 9</title>
    <desc>Created with Sketch.</desc>
    <defs>
        <linearGradient x1="100%" y1="60.3841126%" x2="0%" y2="60.3841146%" id="linearGradient-1">
            <stop stop-color="#F01E6C" offset="0%"></stop>
            <stop stop-color="#FC5D1F" offset="100%"></stop>
        </linearGradient>
    </defs>
    <g id="Desktop" stroke="none" stroke-width="1" fill="none" fill-rule="evenodd">
        <g id="2.1-Navigation-Drawer---Full-Length---Mobile" transform="translate(-16.000000, -660.000000)">
            <g id="Group-9" transform="translate(16.000000, 660.000000)">
                <circle id="Oval-2" fill="url(#linearGradient-1)" cx="13.5" cy="13.5" r="13.5"></circle>
                <path d="M7.15384609,9 C6.51461542,9 6,9.54060926 6,10.2121275 L6,12.9393856 L8.31670971,12.9393856 C8.3401893,12.4147878 8.43006937,11.8921599 8.59277301,11.3721433 C9.29908273,11.5393586 9.9171,11.8495085 10.6018616,12.2978287 C10.4290791,12.5644798 10.326923,12.8850292 10.326923,13.229401 C10.326923,13.5499962 10.4187416,13.8477539 10.5703153,14.1029748 C9.86962492,14.5577087 9.26499808,14.8432574 8.59277301,15.0085257 C8.43720112,14.5188827 8.3483884,14.0309577 8.31895955,13.5454379 L6,13.5454379 L6,17.7878725 C6,18.4593907 6.51461542,19 7.15384609,19 L19.8461538,19 C20.4853845,19 21,18.4593907 21,17.7878725 L21,13.5454379 L15.5068385,13.5454379 C15.4774149,14.0309577 15.3885989,14.5188827 15.2330251,15.0085257 C14.5609616,14.843372 13.9559597,14.5587624 13.2554826,14.104166 C13.4075548,13.848716 13.5,13.550546 13.5,13.229401 C13.5,12.8847314 13.3981511,12.5634948 13.2250616,12.2966376 C13.9092981,11.8488214 14.5271595,11.539244 15.2330251,11.3721433 C15.3957293,11.8921599 15.4856133,12.4147878 15.5090884,12.9393856 L21,12.9393856 L21,10.2121275 C21,9.54060926 20.4853845,9 19.8461538,9 L7.15384609,9 Z M11.9134615,12.0172736 C12.2194818,12.0172736 12.5129681,12.1449797 12.7293565,12.3722979 C12.9457448,12.5996161 13.0673077,12.9079255 13.0673077,13.229401 C13.0673077,13.5508765 12.9457448,13.8591859 12.7293565,14.0865041 C12.5129681,14.3138223 12.2194818,14.4415285 11.9134615,14.4415285 C11.6074412,14.4415285 11.3139548,14.3138223 11.0975665,14.0865041 C10.8811782,13.8591859 10.7596153,13.5508765 10.7596153,13.229401 C10.7596153,12.9079255 10.8811782,12.5996161 11.0975665,12.3722979 C11.3139548,12.1449797 11.6074412,12.0172736 11.9134615,12.0172736 L11.9134615,12.0172736 Z M10.9038462,14.5018863 C11.1795231,14.7440736 11.5290576,14.8960562 11.9134615,14.8960562 C12.2978654,14.8960562 12.6474001,14.7441881 12.923077,14.5018863 L12.923077,16.8787712 L11.9134615,15.7992249 L10.9038462,16.8787712 L10.9038462,14.5018863 Z M17.5418423,15.0605915 L19.2726115,15.0605915 L19.2726115,16.8787712 L17.5418423,16.8787712 L17.5418423,15.0605915 Z" id="Shape" fill="#FFFFFF" fill-rule="nonzero"></path>
            </g>
        </g>
    </g>
</svg>