<?xml version="1.0" encoding="UTF-8"?>
<svg width="13px" height="16px" viewBox="0 0 13 16" version="1.1" xmlns="http://www.w3.org/2000/svg" xmlns:xlink="http://www.w3.org/1999/xlink">
    <!-- Generator: Sketch 60.1 (88133) - https://sketch.com -->
    <title>Group 19</title>
    <desc>Created with Sketch.</desc>
    <defs>
        <linearGradient x1="100%" y1="60.3841126%" x2="0%" y2="60.3841146%" id="linearGradient-1">
            <stop stop-color="#F01E6C" offset="0%"></stop>
            <stop stop-color="#FC5D1F" offset="100%"></stop>
        </linearGradient>
        <linearGradient x1="100%" y1="60.3841126%" x2="0%" y2="60.3841146%" id="linearGradient-2">
            <stop stop-color="#F01E6C" offset="0%"></stop>
            <stop stop-color="#FC5D1F" offset="100%"></stop>
        </linearGradient>
    </defs>
    <g id="Desktop" stroke="none" stroke-width="1" fill="none" fill-rule="evenodd">
        <g id="1.1-Navigation-Drawer---Full-Length---Desktop" transform="translate(-1162.000000, -635.000000)">
            <g id="Group-11" transform="translate(1140.000000, 618.000000)">
                <g id="Group-19" transform="translate(16.000000, 13.000000)">
                    <rect id="Rectangle-2" x="0" y="0" width="24" height="24"></rect>
                    <g id="Locked" transform="translate(6.000000, 4.000000)">
                        <path d="M11.7817143,5.86666667 L10.6674286,5.86666667 L10.6674286,4.34285714 C10.6674286,2.02852105 8.83819198,0.152380952 6.58171429,0.152380952 C4.32523659,0.152380952 2.496,2.02852105 2.496,4.34285714 L2.496,5.86666667 L1.38171429,5.86666667 C0.766311279,5.86666667 0.267428571,6.37834124 0.267428571,7.00952381 L0.267428571,14.6285714 C0.267428571,15.259754 0.766311279,15.7714286 1.38171429,15.7714286 L11.7817143,15.7714286 C12.3971173,15.7714286 12.896,15.259754 12.896,14.6285714 L12.896,7.00952381 C12.896,6.37834124 12.3971173,5.86666667 11.7817143,5.86666667 L11.7817143,5.86666667 Z M3.61028571,4.34285714 C3.61028571,2.65970362 4.9406396,1.2952381 6.58171429,1.2952381 C8.22278897,1.2952381 9.55314286,2.65970362 9.55314286,4.34285714 L9.55314286,5.86666667 L3.61028571,5.86666667 L3.61028571,4.34285714 Z M11.7817143,14.6285714 L1.38171429,14.6285714 L1.38171429,7.00952381 L11.7817143,7.00952381 L11.7817143,14.6285714 Z" id="Shape" fill="url(#linearGradient-1)"></path>
                        <path d="M6.76742857,12.7238095 C7.69053308,12.7238095 8.43885714,11.9562977 8.43885714,11.0095238 C8.43885714,10.06275 7.69053308,9.2952381 6.76742857,9.2952381 C5.84432406,9.2952381 5.096,10.06275 5.096,11.0095238 C5.09804266,11.9554285 5.84517148,12.7217145 6.76742857,12.7238095 Z M6.76742857,10.4380952 C7.07513007,10.4380952 7.32457143,10.6939325 7.32457143,11.0095238 C7.32457143,11.3251151 7.07513007,11.5809524 6.76742857,11.5809524 C6.45972707,11.5809524 6.21028571,11.3251151 6.21028571,11.0095238 C6.21028571,10.6939325 6.45972707,10.4380952 6.76742857,10.4380952 Z" id="Shape" fill="url(#linearGradient-2)"></path>
                    </g>
                </g>
            </g>
        </g>
    </g>
</svg>