<?xml version="1.0" encoding="UTF-8"?>
<svg width="18px" height="18px" viewBox="0 0 18 18" version="1.1" xmlns="http://www.w3.org/2000/svg" xmlns:xlink="http://www.w3.org/1999/xlink">
    <!-- Generator: Sketch 60.1 (88133) - https://sketch.com -->
    <title>Group 10</title>
    <desc>Created with Sketch.</desc>
    <defs>
        <linearGradient x1="100%" y1="60.3841126%" x2="0%" y2="60.3841146%" id="linearGradient-1">
            <stop stop-color="#F01E6C" offset="0%"></stop>
            <stop stop-color="#FC5D1F" offset="100%"></stop>
        </linearGradient>
    </defs>
    <g id="Desktop" stroke="none" stroke-width="1" fill="none" fill-rule="evenodd">
        <g id="1.1-Navigation-Drawer---Full-Length---Desktop" transform="translate(-1159.000000, -528.000000)">
            <g id="Group-7" transform="translate(1140.000000, 512.000000)">
                <g id="Group-10" transform="translate(16.000000, 13.000000)">
                    <rect id="Rectangle-2" x="0" y="0" width="24" height="24"></rect>
                    <g id="Badge" transform="translate(3.000000, 3.000000)" fill="url(#linearGradient-1)">
                        <path d="M17.716,0.336 C17.481746,0.102037298 17.102254,0.102037298 16.868,0.336 L15.8,1.404 C15.6996777,1.37602976 15.596141,1.36123881 15.492,1.36 L9.424,1.36 C9.10584744,1.36028008 8.80082777,1.48689202 8.576,1.712 L0.608,9.676 C0.140074595,10.1445081 0.140074595,10.9034919 0.608,11.372 L6.676,17.44 C7.14450807,17.9079254 7.90349193,17.9079254 8.372,17.44 L16.336,9.476 C16.5596417,9.25051883 16.6847819,8.9455795 16.684,8.628 L16.684,2.56 C16.6827612,2.45585895 16.6679702,2.35232227 16.64,2.252 L17.708,1.184 C17.9441873,0.951959387 17.9477675,0.572455282 17.716,0.336 L17.716,0.336 Z M15.488,8.628 L7.524,16.592 L1.456,10.524 L9.424,2.56 L14.644,2.56 L12.812,4.392 C12.5299224,4.24172515 12.2156026,4.16211575 11.896,4.16 C10.7914305,4.16 9.896,5.0554305 9.896,6.16 C9.896,7.2645695 10.7914305,8.16 11.896,8.16 C13.0005695,8.16 13.896,7.2645695 13.896,6.16 C13.892653,5.84006305 13.811666,5.52572377 13.66,5.244 L15.492,3.412 L15.488,8.628 Z M12.688,6.16 C12.688,6.6018278 12.3298278,6.96 11.888,6.96 C11.4461722,6.96 11.088,6.6018278 11.088,6.16 C11.088,5.7181722 11.4461722,5.36 11.888,5.36 C12.1008654,5.35893566 12.3053776,5.44275103 12.456273,5.59289565 C12.6071683,5.74304027 12.6920027,5.94713194 12.692,6.16 L12.688,6.16 Z" id="Shape"></path>
                    </g>
                </g>
            </g>
        </g>
    </g>
</svg>