<?xml version="1.0" encoding="UTF-8"?>
<svg width="16px" height="16px" viewBox="0 0 16 16" version="1.1" xmlns="http://www.w3.org/2000/svg" xmlns:xlink="http://www.w3.org/1999/xlink">
    <!-- Generator: Sketch 60.1 (88133) - https://sketch.com -->
    <title>Group 15</title>
    <desc>Created with Sketch.</desc>
    <defs>
        <linearGradient x1="100%" y1="60.3841126%" x2="0%" y2="60.3841146%" id="linearGradient-1">
            <stop stop-color="#F01E6C" offset="0%"></stop>
            <stop stop-color="#FC5D1F" offset="100%"></stop>
        </linearGradient>
        <linearGradient x1="100%" y1="60.3841126%" x2="0%" y2="60.3841146%" id="linearGradient-2">
            <stop stop-color="#F01E6C" offset="0%"></stop>
            <stop stop-color="#FC5D1F" offset="100%"></stop>
        </linearGradient>
        <linearGradient x1="100%" y1="60.3841126%" x2="0%" y2="60.3841146%" id="linearGradient-3">
            <stop stop-color="#F01E6C" offset="0%"></stop>
            <stop stop-color="#FC5D1F" offset="100%"></stop>
        </linearGradient>
    </defs>
    <g id="Desktop" stroke="none" stroke-width="1" fill="none" fill-rule="evenodd">
        <g id="1.1-Navigation-Drawer---Full-Length---Desktop" transform="translate(-1160.000000, -684.000000)">
            <g id="Group-25" transform="translate(1140.000000, 667.000000)">
                <g id="Group-7">
                    <g id="Group-15" transform="translate(16.000000, 13.000000)">
                        <rect id="Rectangle-2" x="0" y="0" width="24" height="24"></rect>
                        <g id="Group" transform="translate(4.000000, 4.000000)">
                            <rect id="Rectangle-path" x="0" y="0" width="16" height="16"></rect>
                            <path d="M15.3392,8.208 L0.6608,8.208 C0.390524422,8.20650291 0.148266018,8.04094773 0.0486759042,7.78968504 C-0.0509142092,7.53842235 0.0121409808,7.25185352 0.208,7.0656 L1.7248,5.6352 C1.88650898,5.48276941 2.14116941,5.49029103 2.2936,5.652 C2.44603058,5.81370898 2.43850897,6.06836941 2.2768,6.2208 L1.024,7.4032 L14.9792,7.4032 L13.7376,6.2192 C13.5874088,6.0634987 13.5868596,5.81701652 13.7363553,5.66064739 C13.8858511,5.50427827 14.1321091,5.49375472 14.2944,5.6368 L15.7936,7.0672 C15.9884913,7.2538358 16.0506878,7.54003797 15.9508342,7.79072667 C15.8509806,8.04141536 15.6090393,8.20647429 15.3392,8.208 L15.3392,8.208 Z" id="Shape" fill="url(#linearGradient-1)" fill-rule="nonzero"></path>
                            <path d="M14.0416,6.3552 C13.9409586,6.35503625 13.8439871,6.3173885 13.7696,6.2496 L8.552,1.4576 C8.2404486,1.16934259 7.7595514,1.16934259 7.448,1.4576 L2.2304,6.2576 C2.1260215,6.36444804 1.97112594,6.40483682 1.82786356,6.36256076 C1.68460118,6.3202847 1.57644921,6.20227181 1.54680251,6.05587356 C1.51715582,5.90947531 1.57087278,5.75868281 1.6864,5.664 L6.904,0.8656 C7.52178414,0.291215111 8.47821586,0.291215111 9.096,0.8656 L14.3136,5.656 C14.4369606,5.7677735 14.4785764,5.94406553 14.418224,6.09920661 C14.3578717,6.25434769 14.2080639,6.35617287 14.0416,6.3552 L14.0416,6.3552 Z" id="Shape" fill="url(#linearGradient-2)" fill-rule="nonzero"></path>
                            <path d="M14.8384,15.5648 L9.6976,15.5648 L9.6976,11.2 C9.69672074,10.8619248 9.42287522,10.5880793 9.0848,10.5872 L6.9152,10.5872 C6.57712478,10.5880793 6.30327926,10.8619248 6.3024,11.2 L6.3024,15.5648 L1.1616,15.5648 L1.1616,7.912 C1.18713479,7.71053228 1.35852054,7.55949753 1.5616,7.55949753 C1.76467946,7.55949753 1.93606521,7.71053228 1.9616,7.912 L1.9616,14.76 L5.4976,14.76 L5.4976,11.2 C5.49848175,10.4174467 6.13264666,9.78328175 6.9152,9.7824 L9.0848,9.7824 C9.86735334,9.78328175 10.5015182,10.4174467 10.5024,11.2 L10.5024,14.76 L14.0336,14.76 L14.0336,7.8048 C14.0591348,7.60333228 14.2305205,7.45229753 14.4336,7.45229753 C14.6366795,7.45229753 14.8080652,7.60333228 14.8336,7.8048 L14.8384,15.5648 Z" id="Shape" fill="url(#linearGradient-3)" fill-rule="nonzero"></path>
                        </g>
                    </g>
                </g>
            </g>
        </g>
    </g>
</svg>