<?xml version="1.0" encoding="UTF-8"?>
<svg width="18px" height="12px" viewBox="0 0 18 12" version="1.1" xmlns="http://www.w3.org/2000/svg" xmlns:xlink="http://www.w3.org/1999/xlink">
    <!-- Generator: Sketch 62 (91390) - https://sketch.com -->
    <title>Group 6</title>
    <desc>Created with Sketch.</desc>
    <g id="02-Contact-Us" stroke="none" stroke-width="1" fill="none" fill-rule="evenodd">
        <g id="1.1-Contact-Us----Normal-State---Desktop" transform="translate(-329.000000, -300.000000)" fill-rule="nonzero">
            <g id="Group-6" transform="translate(326.000000, 294.000000)">
                <rect id="Rectangle-4" x="0" y="0" width="24" height="24"></rect>
                <path d="M4.38461538,6 C4.20083769,6 4.02555923,6.03515554 3.86538462,6.09722217 L11.5168269,12.9097362 C11.8451354,13.2020249 12.1396869,13.2022249 12.46875,12.9097362 L20.1346154,6.09722217 C19.9744408,6.03515554 19.7991623,6 19.6153846,6 L4.38461538,6 Z M3.01442308,7.15277714 C3.00632538,7.21133266 3,7.27257707 3,7.33333259 L3,16.6666674 C3,17.4053337 3.61754769,18 4.38461538,18 L19.6153846,18 C20.3824523,18 21,17.4053337 21,16.6666674 L21,7.33333259 C21,7.27257707 20.9936769,7.21133266 20.9855769,7.15277714 L13.4134615,13.8888912 C12.6193938,14.5947352 11.3661069,14.5958463 10.5721154,13.8888912 L3.01442308,7.15277714 Z" id="Shape" fill="#D88350"></path>
            </g>
        </g>
    </g>
</svg>