<?xml version="1.0" encoding="UTF-8"?>
<svg width="90px" height="22px" viewBox="0 0 90 22" version="1.1" xmlns="http://www.w3.org/2000/svg" xmlns:xlink="http://www.w3.org/1999/xlink">
    <!-- Generator: Sketch 51.3 (57544) - http://www.bohemiancoding.com/sketch -->
    <title>Paypal</title>
    <desc>Created with Sketch.</desc>
    <defs></defs>
    <g id="Mobile" stroke="none" stroke-width="1" fill="none" fill-rule="evenodd">
        <g id="1.1-Shipping-&amp;-Payment---No-Saved-Addresses---Mobile" transform="translate(-44.000000, -1127.000000)">
            <g id="Group-6" transform="translate(0.000000, 930.000000)">
                <g id="Group-4" transform="translate(16.000000, 197.000000)">
                    <g id="Paypal" transform="translate(28.000000, 0.000000)">
                        <g transform="translate(0.000000, 0.167468)">
                            <path d="M33.3184863,4.83838543 L28.3875006,4.83838543 C28.0500302,4.83838543 27.7630491,5.08029474 27.7103383,5.40908416 L25.7160114,17.8847497 C25.6764278,18.1310429 25.8697008,18.3528263 26.1227531,18.3528263 L28.4767657,18.3528263 C28.8142361,18.3528263 29.1012172,18.1111162 29.153928,17.781729 L29.6917399,14.4167187 C29.7436428,14.0873315 30.0312298,13.8454222 30.3680943,13.8454222 L31.9290211,13.8454222 C35.1770979,13.8454222 37.0516642,12.2945325 37.5414103,9.22144733 C37.7619475,7.87679823 37.5507003,6.82048748 36.9125157,6.08061165 C36.2117244,5.26820288 34.9686782,4.83838543 33.3184863,4.83838543 Z M33.8871976,9.3950083 C33.6175849,11.1407805 32.2656837,11.1407805 30.958617,11.1407805 L30.214405,11.1407805 L30.7364642,7.88038502 C30.7675656,7.68331064 30.9404409,7.53824476 31.1423981,7.53824476 L31.4835037,7.53824476 C32.3739327,7.53824476 33.2138725,7.53824476 33.6478784,8.03900101 C33.9067875,8.33770122 33.9859547,8.78166657 33.8871976,9.3950083 Z" id="Fill-1" fill="#28356A"></path>
                            <path d="M48.0579248,9.33881519 L45.6966419,9.33881519 C45.4954925,9.33881519 45.3216074,9.48388107 45.290708,9.68095546 L45.1860942,10.3325563 L45.0210952,10.0964257 C44.5099417,9.36432128 43.3698936,9.11962225 42.2322689,9.11962225 C39.6227806,9.11962225 37.3941835,11.0696424 36.9601776,13.8049711 C36.7345915,15.1693476 37.0552994,16.4741435 37.8399029,17.3839935 C38.5594763,18.2205135 39.5890538,18.5692295 40.8139239,18.5692295 C42.9164998,18.5692295 44.0821964,17.2353408 44.0821964,17.2353408 L43.9769767,17.8827571 C43.9373931,18.1302458 44.1306661,18.3522285 44.3823047,18.3522285 L46.5091155,18.3522285 C46.8473937,18.3522285 47.1329611,18.1103192 47.1862778,17.780932 L48.462445,9.80689177 C48.5028364,9.56139567 48.3101693,9.33881519 48.0579248,9.33881519 Z M44.7664272,13.8733195 C44.5386196,15.2042192 43.4680447,16.0977294 42.1024105,16.0977294 C41.416766,16.0977294 40.8688562,15.8807284 40.5168449,15.469642 C40.167863,15.0613453 40.0353791,14.4800854 40.1462536,13.8326692 C40.3591164,12.5131276 41.4476654,11.5903253 42.7924981,11.5903253 C43.4629958,11.5903253 44.0080781,11.8103153 44.367158,12.2247893 C44.7268436,12.6438463 44.8696273,13.228693 44.7664272,13.8733195 Z" id="Fill-2" fill="#28356A"></path>
                            <path d="M60.6337964,9.33881519 L58.2607999,9.33881519 C58.034406,9.33881519 57.8217451,9.44980653 57.6935023,9.63552274 L54.4207867,14.3918105 L53.0335431,9.82103968 C52.9462976,9.53509252 52.6789063,9.33881519 52.3759706,9.33881519 L50.0443753,9.33881519 C49.7608275,9.33881519 49.5641212,9.61200931 49.6541941,9.87524012 L52.2679235,17.4429763 L49.8107109,20.8655745 C49.6174379,21.1351819 49.8121246,21.5058172 50.1459598,21.5058172 L52.5159269,21.5058172 C52.7409072,21.5058172 52.9513465,21.3976156 53.0789834,21.2156855 L60.9710649,9.97547108 C61.1600967,9.70666081 60.9660159,9.33881519 60.6337964,9.33881519" id="Fill-3" fill="#28356A"></path>
                            <path d="M68.4897275,4.83838543 L63.5581359,4.83838543 C63.2214734,4.83838543 62.9344922,5.08029474 62.8817814,5.40908416 L60.8874546,17.8847497 C60.847871,18.1310429 61.041144,18.3528263 61.2927826,18.3528263 L63.8235076,18.3528263 C64.0583838,18.3528263 64.2595331,18.1836492 64.2962893,17.9530981 L64.8623752,14.4167187 C64.9142782,14.0873315 65.2020671,13.8454222 65.5387297,13.8454222 L67.0990506,13.8454222 C70.3477333,13.8454222 72.2216936,12.2945325 72.7120456,9.22144733 C72.9333906,7.87679823 72.7207298,6.82048748 72.0825452,6.08061165 C71.3823597,5.26820288 70.1401213,4.83838543 68.4897275,4.83838543 Z M69.0586408,9.3950083 C68.7896339,11.1407805 67.4377327,11.1407805 66.1298582,11.1407805 L65.3866559,11.1407805 L65.909321,7.88038502 C65.9402205,7.68331064 66.1118841,7.53824476 66.3144471,7.53824476 L66.6555527,7.53824476 C67.5451739,7.53824476 68.3859215,7.53824476 68.8199274,8.03900101 C69.0788365,8.33770122 69.1573978,8.78166657 69.0586408,9.3950083 Z" id="Fill-4" fill="#298FC2"></path>
                            <path d="M83.2285602,9.33881519 L80.8686909,9.33881519 C80.6661279,9.33881519 80.4938584,9.48388107 80.4635648,9.68095546 L80.358951,10.3325563 L80.1931442,10.0964257 C79.6819907,9.36432128 78.5427504,9.11962225 77.4049238,9.11962225 C74.7956375,9.11962225 72.5678482,11.0696424 72.1338423,13.8049711 C71.908862,15.1693476 72.2281563,16.4741435 73.0125578,17.3839935 C73.7337468,18.2205135 74.7617087,18.5692295 75.9867807,18.5692295 C78.0891547,18.5692295 79.2550533,17.2353408 79.2550533,17.2353408 L79.1498336,17.8827571 C79.11025,18.1302458 79.303321,18.3522285 79.5565753,18.3522285 L81.6827801,18.3522285 C82.0194427,18.3522285 82.3064238,18.1103192 82.3591346,17.780932 L83.6359077,9.80689177 C83.6748854,9.56139567 83.4816125,9.33881519 83.2285602,9.33881519 Z M79.9372645,13.8733195 C79.7108706,15.2042192 78.6386801,16.0977294 77.2730458,16.0977294 C76.588815,16.0977294 76.0394916,15.8807284 75.6874803,15.469642 C75.3387003,15.0613453 75.2074281,14.4800854 75.3168889,13.8326692 C75.5311654,12.5131276 76.6183007,11.5903253 77.9631334,11.5903253 C78.6336311,11.5903253 79.1787135,11.8103153 79.5377933,12.2247893 C79.8988927,12.6438463 80.0416764,13.228693 79.9372645,13.8733195 Z" id="Fill-5" fill="#298FC2"></path>
                            <path d="M86.0123375,5.18072497 L83.9885249,17.8847497 C83.9489413,18.1310429 84.1420123,18.3528263 84.3936509,18.3528263 L86.4283692,18.3528263 C86.7666474,18.3528263 87.0534266,18.1111162 87.1053296,17.781729 L89.1010701,5.30666128 C89.1408557,5.06036811 88.9475827,4.83778763 88.6959441,4.83778763 L86.4176655,4.83778763 C86.2165162,4.83838543 86.0434389,4.98365058 86.0123375,5.18072497" id="Fill-6" fill="#298FC2"></path>
                            <path d="M5.23876841,20.7772996 L5.61582241,18.4142003 L4.77588263,18.3948715 L0.765013676,18.3948715 L3.55242623,0.95647832 C3.56111039,0.903672746 3.58918243,0.854653232 3.63017973,0.819781626 C3.67137899,0.784910021 3.72388785,0.765780455 3.77882019,0.765780455 L10.5417592,0.765780455 C12.7871188,0.765780455 14.336534,1.22668344 15.1453724,2.13653345 C15.5246479,2.5633619 15.7661887,3.00951918 15.8831218,3.50031212 C16.0057098,4.01541555 16.0077294,4.63074993 15.8881708,5.38138615 L15.8794866,5.43598512 L15.8794866,5.91701401 L16.2587621,6.12903337 C16.5780564,6.29621781 16.8319165,6.48751347 17.0266032,6.70650715 C17.3509464,7.07156304 17.5607799,7.53545503 17.6494391,8.0852308 C17.7411276,8.6507486 17.710834,9.32387022 17.5607799,10.0858646 C17.3877026,10.9622379 17.1079919,11.7256271 16.7301301,12.3501278 C16.3827638,12.9256089 15.9400738,13.403051 15.4143793,13.7728893 C14.9125158,14.1243951 14.3163383,14.3912127 13.6422053,14.5619839 C12.988874,14.7297661 12.244056,14.8144543 11.4271393,14.8144543 L10.900839,14.8144543 C10.5245928,14.8144543 10.1590504,14.948162 9.8720693,15.1878794 C9.58428036,15.4325784 9.39403673,15.7669473 9.33567111,16.132601 L9.29588555,16.3454174 L8.62962892,20.5106812 L8.59953731,20.6635185 C8.59145902,20.7119402 8.57772594,20.7360514 8.55753022,20.7523913 C8.53955603,20.7673362 8.51370552,20.7772996 8.48846088,20.7772996 L5.23876841,20.7772996" id="Fill-7" fill="#28356A"></path>
                            <path d="M16.61764,5.49158042 C16.5976462,5.6189116 16.5744212,5.7490325 16.5485706,5.8827402 C15.6567279,10.4009047 12.6053573,11.9617577 8.70839221,11.9617577 L6.72416323,11.9617577 C6.24754437,11.9617577 5.8458516,12.3031009 5.77173332,12.7669929 L4.46809994,20.9259522 C4.41983218,21.2306304 4.6577377,21.5050202 4.96915562,21.5050202 L8.48846088,21.5050202 C8.90509847,21.5050202 9.25912935,21.2063199 9.32476543,20.800813 L9.3593001,20.6244623 L10.0219215,16.4755383 L10.0645345,16.2479762 C10.1293627,15.8410744 10.4842014,15.5421749 10.900839,15.5421749 L11.4271393,15.5421749 C14.8367819,15.5421749 17.5060495,14.1764036 18.2862099,10.2237569 C18.6119668,8.57263621 18.4433326,7.19391256 17.5809756,6.22428267 C17.3200469,5.93195898 16.9963096,5.68925261 16.61764,5.49158042" id="Fill-8" fill="#298FC2"></path>
                            <path d="M15.6847999,5.12453186 C15.5484788,5.0852764 15.4079167,5.049807 15.2637193,5.01772512 C15.118714,4.98644031 14.9702755,4.95874229 14.817394,4.9344318 C14.2824095,4.84914581 13.6961279,4.80869475 13.0682431,4.80869475 L7.76747386,4.80869475 C7.63680758,4.80869475 7.5128059,4.83778763 7.40193142,4.89039394 C7.15736132,5.00636694 6.97580184,5.23472614 6.93177518,5.51429678 L5.80404647,12.5615493 L5.77173332,12.7669929 C5.8458516,12.3031009 6.24754437,11.9617577 6.72416323,11.9617577 L8.70839221,11.9617577 C12.6053573,11.9617577 15.6567279,10.4001076 16.5485706,5.8827402 C16.575229,5.7490325 16.5976462,5.6189116 16.61764,5.49158042 C16.3920539,5.37341549 16.1476857,5.27238747 15.8845355,5.18630442 C15.8195053,5.16498293 15.7524556,5.1444585 15.6847999,5.12453186" id="Fill-9" fill="#22284F"></path>
                            <path d="M6.93177518,5.51429678 C6.97580184,5.23472614 7.15736132,5.00636694 7.40193142,4.89119101 C7.51361372,4.83838543 7.63680758,4.80929255 7.76747386,4.80929255 L13.0682431,4.80929255 C13.6961279,4.80929255 14.2824095,4.84994288 14.817394,4.93522886 C14.9702755,4.95934009 15.118714,4.98723737 15.2637193,5.01852218 C15.4079167,5.05040479 15.5484788,5.08607346 15.6847999,5.12512966 C15.7524556,5.14505629 15.8195053,5.16577999 15.8851414,5.18630442 C16.1482916,5.27238747 16.3928617,5.37421256 16.6184478,5.49158042 C16.8838195,3.82192795 16.6162263,2.68511362 15.7013604,1.65570382 C14.6925845,0.522277016 12.8721427,0.0372628012 10.542567,0.0372628012 L3.77942606,0.0372628012 C3.30361502,0.0372628012 2.89768116,0.378606002 2.82416875,0.843295052 L0.00727045732,18.4610279 C-0.0482677583,18.8095447 0.224172434,19.1239869 0.580424843,19.1239869 L4.75568691,19.1239869 L6.93177518,5.51429678" id="Fill-11" fill="#28356A"></path>
                        </g>
                    </g>
                </g>
            </g>
        </g>
    </g>
</svg>