<?xml version="1.0" encoding="UTF-8"?>
<svg width="39px" height="40px" viewBox="0 0 39 40" version="1.1" xmlns="http://www.w3.org/2000/svg" xmlns:xlink="http://www.w3.org/1999/xlink">
    <!-- Generator: Sketch 60.1 (88133) - https://sketch.com -->
    <title>Group 10</title>
    <desc>Created with Sketch.</desc>
    <g id="Page-1" stroke="none" stroke-width="1" fill="none" fill-rule="evenodd">
        <g id="1.1-PDP---Full-Length---Desktop" transform="translate(-1080.000000, -942.000000)">
            <g id="Group-7" transform="translate(752.000000, 906.000000)">
                <g id="Group-13" transform="translate(320.000000, 36.000000)">
                    <g id="Group-10" transform="translate(8.000000, 0.000000)">
                        <ellipse id="Oval-5" fill="#03A9F4" cx="19.5" cy="20" rx="19.5" ry="20"></ellipse>
                        <g id="Group" transform="translate(20.000000, 20.500000) rotate(-50.000000) translate(-20.000000, -20.500000) translate(9.000000, 16.000000)" fill="#FFFFFF" fill-rule="nonzero">
                            <path d="M8.41775,7.10364706 L4.22075,7.10364706 C2.86475,7.10364706 1.76175,5.93576471 1.76175,4.5 C1.76175,3.06423529 2.86475,1.89635294 4.22075,1.89635294 L9.7705,1.89635294 C11.1265,1.89635294 12.2295,3.06423529 12.2295,4.5 C12.2295,5.24091176 11.9345,5.90823529 11.464,6.38285294 C11.7595,6.59276471 12.1135,6.71691176 12.49525,6.71691176 L13.236,6.71691176 C13.607,6.06891176 13.82475,5.31158824 13.82475,4.5 C13.82475,2.133 12.006,0.207264706 9.7705,0.207264706 L4.22075,0.207264706 C1.98525,0.207264706 0.16675,2.13273529 0.16675,4.5 C0.16675,6.86726471 1.98525,8.79273529 4.22075,8.79273529 L9.7705,8.79273529 C9.7965,8.79273529 9.822,8.78902941 9.84775,8.7885 C9.25625,8.35279412 8.76575,7.77626471 8.41775,7.10364706 Z" id="Shape"></path>
                            <path d="M13.582,1.89635294 L17.77925,1.89635294 C19.13525,1.89635294 20.23825,3.06423529 20.23825,4.50026471 C20.23825,5.93576471 19.13525,7.10364706 17.77925,7.10364706 L12.2295,7.10364706 C10.8735,7.10364706 9.7705,5.93576471 9.7705,4.50026471 C9.7705,3.75935294 10.0655,3.09176471 10.536,2.61714706 C10.2405,2.40723529 9.8865,2.28335294 9.50475,2.28335294 L8.7645,2.28335294 C8.39325,2.93108824 8.1755,3.68841176 8.1755,4.50026471 C8.1755,6.867 9.994,8.79273529 12.2295,8.79273529 L17.77925,8.79273529 C20.0145,8.79273529 21.8335,6.86726471 21.8335,4.50026471 C21.8335,2.133 20.01475,0.207264706 17.77925,0.207264706 L12.2295,0.207264706 C12.2035,0.207264706 12.17825,0.210970588 12.15225,0.2115 C12.74375,0.647205882 13.2345,1.22373529 13.582,1.89635294 Z" id="Shape"></path>
                        </g>
                    </g>
                </g>
            </g>
        </g>
    </g>
</svg>