<?xml version="1.0" encoding="UTF-8"?>
<svg width="24px" height="24px" viewBox="0 0 24 24" version="1.1" xmlns="http://www.w3.org/2000/svg" xmlns:xlink="http://www.w3.org/1999/xlink">
    <!-- Generator: Sketch 62 (91390) - https://sketch.com -->
    <title>Group 34</title>
    <desc>Created with Sketch.</desc>
    <g id="Page-1" stroke="none" stroke-width="1" fill="none" fill-rule="evenodd">
        <g id="1.12-PDP---4+-thumbnail-images" transform="translate(-688.000000, -92.000000)">
            <g id="Group-34" transform="translate(688.000000, 92.000000)">
                <circle id="Oval-7" fill="#FFFFFF" opacity="0.5" cx="12" cy="12" r="12"></circle>
                <path d="M16.0674956,5 C14.365897,5 13.0053286,6.3329138 12.1598579,7.21541992 C11.2966252,6.3402375 9.91119005,5 8.21314387,5 C5.72646536,5 4,6.8052926 4,9.39422133 C4,15.0151628 11.1438721,19.6474044 11.4600355,19.8341588 C11.8047588,20.0552804 12.2414224,20.0552804 12.5861456,19.8341588 C12.8880995,19.6400807 20,14.985868 20,9.39788318 C19.9751332,6.68445151 18.4795737,5 16.0674956,5 Z M11.982238,18.9150342 C11.982238,18.9150342 5.04085258,14.4841944 5.04085258,9.39422133 C5.04085258,7.42780728 6.28063943,6.09855533 8.18827709,6.09855533 C10.0959147,6.09855533 11.7904085,8.66185111 12.1456483,8.66185111 C12.5008881,8.66185111 14.1456483,6.09855533 16.053286,6.09855533 C17.9609236,6.09855533 18.8952043,7.42780728 18.8952043,9.39422133 C18.9094139,14.4365903 11.982238,18.9150342 11.982238,18.9150342 Z" id="Shape" fill="#212121"></path>
            </g>
        </g>
    </g>
</svg>