<?xml version="1.0" encoding="UTF-8"?>
<svg width="18px" height="13px" viewBox="0 0 18 13" version="1.1" xmlns="http://www.w3.org/2000/svg" xmlns:xlink="http://www.w3.org/1999/xlink">
    <!-- Generator: Sketch 51.3 (57544) - http://www.bohemiancoding.com/sketch -->
    <title>Group 26</title>
    <desc>Created with Sketch.</desc>
    <defs></defs>
    <g id="Page-1" stroke="none" stroke-width="1" fill="none" fill-rule="evenodd">
        <g id="1.13-PDP---Complete-Product-Details---Multi-color" transform="translate(-17.000000, -2026.000000)">
            <g id="Group-3" transform="translate(14.000000, 2020.000000)">
                <g id="Group-26">
                    <rect id="Rectangle" x="0" y="0" width="24" height="24"></rect>
                    <path d="M20.6901039,9.22379598 C20.4499934,9.13910086 20.1885143,9.26918508 20.1057968,9.51344396 L19.4222287,11.5304514 C18.7938056,11.7924915 18.0176398,11.8060615 17.383932,11.5550176 C17.1474978,11.4616658 16.8809637,11.5805198 16.7890554,11.8215031 C16.697147,12.0624865 16.8143302,12.3336513 17.0509941,12.427471 C17.4673388,12.591948 17.9135536,12.6757073 18.3779204,12.6757073 C18.6081508,12.6757073 18.8349345,12.6488014 19.0573527,12.6071557 L17.2083871,18.0641423 L6.79126852,18.0641423 L4.94276247,12.6078576 C5.16403175,12.6492693 5.38966667,12.6757073 5.61851838,12.6757073 C6.08288516,12.6757073 6.52955958,12.592182 6.94544472,12.427471 C7.18187887,12.3338852 7.29906198,12.0624865 7.20738343,11.8215031 C7.11570488,11.5809877 6.84986007,11.4616658 6.61250684,11.5550176 C5.97971807,11.8051256 5.2060798,11.7927255 4.57811622,11.5320891 L3.89408856,9.51320999 C3.81160085,9.26871715 3.55035145,9.13886689 3.30978143,9.22356202 C3.06990072,9.30755525 2.94237793,9.57404075 3.02532518,9.81853358 L6.02888902,18.6846159 C6.0927653,18.8734252 6.26716133,19 6.46338559,19 L17.5358104,19 C17.7320347,19 17.906201,18.8734252 17.970307,18.6846159 L20.9747899,9.81876755 C21.0575074,9.57427471 20.9299846,9.30778922 20.6901039,9.22379598 Z M8.2351482,12.1338457 C8.16598719,12.2913037 8.12715592,12.4618638 8.12715592,12.6396768 C8.12715592,12.9719063 8.25421917,13.2844828 8.48513882,13.5193831 C8.7158287,13.7547513 9.02257271,13.8846015 9.34930678,13.8846015 L9.34976632,13.8846015 C9.5246219,13.8846015 9.69235458,13.8448276 9.8472201,13.7744043 C9.90443302,13.8918544 9.97589174,14.0036894 10.0717062,14.1014866 C10.3099785,14.3441077 10.6229263,14.4653013 10.9361039,14.4653013 C11.1061343,14.4653013 11.2752456,14.4264632 11.4330981,14.3546361 C11.4905408,14.4725542 11.5622293,14.5848571 11.6582735,14.6831222 C11.8965458,14.9252754 12.2094936,15.0464689 12.5224415,15.0464689 C12.8353893,15.0464689 13.1485669,14.9252754 13.3868392,14.6831222 C13.3872987,14.6826542 13.3875285,14.6821863 13.3879881,14.6817184 L15.7330288,12.2936434 C17.1017734,10.8999172 17.1020032,8.63233389 15.7332586,7.23837377 C14.7119274,6.19886977 13.2129027,5.93565978 11.9487038,6.44734 C11.9450275,6.44850983 11.9411214,6.44897776 11.937445,6.45038154 C10.8448849,6.85186452 10.373625,6.53577856 10.2217465,6.38112807 C9.98025739,6.13523144 9.65926759,6 9.31782818,6 C8.97638878,6 8.65539898,6.13523144 8.41390988,6.38112807 C8.16943375,6.63006623 8.03570715,6.96135987 8.03800485,7.31324239 C8.04030256,7.66044561 8.17517802,7.98472032 8.41827552,8.22570369 C8.6395448,8.4453963 8.89229267,8.67210784 9.18892677,8.84570945 L7.91392862,10.144446 C7.90818435,10.1502952 7.90404848,10.1573141 7.89876375,10.1631632 C7.67841356,10.3961918 7.55594573,10.7001116 7.55594573,11.0241523 C7.55594573,11.3566158 7.68300898,11.6689583 7.9141584,11.9043265 C8.00882396,12.0007199 8.1186544,12.0744187 8.2351482,12.1338457 Z M9.05979558,7.55562954 C8.9943109,7.49058743 8.95800712,7.40238284 8.95731781,7.30715931 C8.95662849,7.2072565 8.99454067,7.11343676 9.06416123,7.04254553 C9.199726,6.90450652 9.43593037,6.90450652 9.57195468,7.04254553 C9.71671028,7.19017709 10.0108169,7.42156792 10.4866722,7.52427831 L9.8786987,8.14334821 C9.57333331,8.03198114 9.30542056,7.79942049 9.05979558,7.55562954 Z M8.5639502,10.8063314 L11.4177035,7.9000252 C12.4282354,6.87128356 14.072705,6.87151753 15.083237,7.9000252 C16.0933094,8.92900079 16.0933094,10.6034843 15.0830072,11.6319919 L12.7379665,14.0200669 C12.7377367,14.0200669 12.7372772,14.0205349 12.7368176,14.0210028 C12.6187154,14.1417285 12.4259377,14.1412605 12.3080653,14.0210028 C12.1901929,13.9007451 12.1899631,13.7056187 12.307376,13.5851271 L13.6069596,12.2618242 C13.7864106,12.0793319 13.7864106,11.782899 13.6069596,11.6001728 C13.4275086,11.4174465 13.1366188,11.4174465 12.9571678,11.6001728 L11.6591926,12.9220718 C11.6589628,12.9220718 11.6585033,12.9225398 11.6580437,12.9230077 C11.6575842,12.9234756 11.6573544,12.9239436 11.6568949,12.9239436 L11.1513991,13.4388993 C11.1511694,13.4393672 11.1509396,13.4393672 11.1507098,13.4393672 C11.0321481,13.5600929 10.8396002,13.5600929 10.721498,13.4398351 C10.6033958,13.3191095 10.6033958,13.1239832 10.7212682,13.0034915 L12.5284155,11.1633612 C12.7078665,10.9808689 12.7078665,10.684436 12.5284155,10.5017097 C12.3489645,10.3189835 12.0578449,10.3189835 11.8786237,10.5017097 L10.072855,12.3404363 C10.0723955,12.3409042 10.0719359,12.3413721 10.0714764,12.3416061 C10.0712466,12.34184 10.0710169,12.342308 10.0705573,12.3427759 L9.56437225,12.8581996 C9.50692955,12.9166907 9.43087542,12.9487438 9.34976632,12.9487438 C9.26865723,12.9487438 9.1926031,12.9166907 9.1351604,12.8581996 C9.0777177,12.7997084 9.0462391,12.7220323 9.0462391,12.6396768 C9.0462391,12.5573213 9.0777177,12.4798791 9.1351604,12.4216219 L11.4494119,10.0646642 C11.6288628,9.88217191 11.6288628,9.58573897 11.4494119,9.40301274 C11.2699609,9.22028652 10.9788413,9.22028652 10.79962,9.40301274 L8.99500022,11.2408034 C8.9943109,11.2412713 8.99339182,11.2417393 8.99270251,11.2426751 C8.87437055,11.3629328 8.68182262,11.3629328 8.56372043,11.2426751 C8.50627773,11.184184 8.47479914,11.1067418 8.47479914,11.0241523 C8.47502891,10.9420308 8.50650751,10.8648225 8.5639502,10.8063314 Z" id="Shape" fill="#424242" fill-rule="nonzero"></path>
                </g>
            </g>
        </g>
    </g>
</svg>