<?xml version="1.0" encoding="UTF-8"?>
<svg width="17px" height="18px" viewBox="0 0 17 18" version="1.1" xmlns="http://www.w3.org/2000/svg" xmlns:xlink="http://www.w3.org/1999/xlink">
    <!-- Generator: Sketch 51.3 (57544) - http://www.bohemiancoding.com/sketch -->
    <title>Group 21</title>
    <desc>Created with Sketch.</desc>
    <defs></defs>
    <g id="Page-1" stroke="none" stroke-width="1" fill="none" fill-rule="evenodd">
        <g id="1.13-PDP---Complete-Product-Details---Multi-color" transform="translate(-16.000000, -1947.000000)">
            <g id="Group-22" transform="translate(13.000000, 1944.000000)">
                <g id="Group-21">
                    <g id="Group-16">
                        <rect id="Rectangle" x="0" y="0" width="24" height="24"></rect>
                    </g>
                    <g id="Group" transform="translate(4.000000, 3.000000)" fill="#424242" fill-rule="nonzero">
                        <g id="Shape">
                            <g>
                                <path d="M9.54069,17.1147541 L13.53519,17.1147541 L14.36259,10.6037705 C13.81029,10.5391475 13.34229,10.3113443 12.96759,9.92478689 C11.91129,8.83386885 11.99619,6.85622951 12.00039,6.77242623 C12.00009,4.20167213 12.50229,2.6377377 12.77199,1.98354098 L7.78479,0.950754098 C7.70709,1.84957377 7.33299,2.60645902 6.67029,3.204 C4.91439,4.788 1.64709,4.7847541 0.60009,4.73960656 L0.60009,17.1147541 L6.94599,17.1147541 L7.80399,12.0499672 C7.82769,11.9103934 7.94829,11.8071148 8.09199,11.8032787 C8.23389,11.8124262 8.36169,11.8962295 8.39289,12.0343279 L9.54069,17.1147541 Z M13.80009,17.704918 L9.30009,17.704918 C9.15939,17.704918 9.03759,17.6090164 9.00729,17.4738689 L8.14209,13.6448852 L7.49589,17.4582295 C7.47189,17.600459 7.34679,17.704918 7.20009,17.704918 L0.30009,17.704918 C0.13449,17.704918 9e-05,17.5730164 9e-05,17.4098361 L9e-05,4.42622951 C9e-05,4.34360656 0.03519,4.26452459 0.09729,4.20904918 C0.15939,4.15298361 0.24189,4.12406557 0.32589,4.13232787 C0.36669,4.13616393 4.39629,4.4557377 6.26559,2.76845902 C6.88539,2.20868852 7.20009,1.476 7.20009,0.590163934 C7.20009,0.50104918 7.24059,0.41695082 7.31109,0.361180328 C7.38129,0.304819672 7.47369,0.282688525 7.56189,0.301278689 L13.26189,1.48160656 C13.35489,1.50108197 13.43319,1.5627541 13.47279,1.6477377 C13.51239,1.73301639 13.50849,1.83157377 13.46259,1.91331148 C13.45419,1.92836066 12.60009,3.5035082 12.60009,6.78688525 C12.59889,6.8187541 12.52419,8.61255738 13.40319,9.5187541 C13.73889,9.86488525 14.16309,10.0327869 14.70009,10.0327869 C14.78589,10.0327869 14.86809,10.069082 14.92479,10.1325246 C14.98179,10.1962623 15.00849,10.2806557 14.99769,10.364459 L14.09769,17.4464262 C14.07879,17.5939672 13.95129,17.704918 13.80009,17.704918 Z" stroke="#424242" stroke-width="0.5"></path>
                                <path d="M0.9,8.55737705 L0.3,8.55737705 C0.1344,8.55737705 0,8.42547541 0,8.26229508 C0,8.09911475 0.1344,7.96721311 0.3,7.96721311 L0.9,7.96721311 C1.0656,7.96721311 1.2,8.09911475 1.2,8.26229508 C1.2,8.42547541 1.0656,8.55737705 0.9,8.55737705"></path>
                                <path d="M3.9,8.55737705 L2.7,8.55737705 C2.5344,8.55737705 2.4,8.42547541 2.4,8.26229508 C2.4,8.09911475 2.5344,7.96721311 2.7,7.96721311 L3.9,7.96721311 C4.0656,7.96721311 4.2,8.09911475 4.2,8.26229508 C4.2,8.42547541 4.0656,8.55737705 3.9,8.55737705 M6.9,8.55737705 L5.7,8.55737705 C5.5344,8.55737705 5.4,8.42547541 5.4,8.26229508 C5.4,8.09911475 5.5344,7.96721311 5.7,7.96721311 L6.9,7.96721311 C7.0656,7.96721311 7.2,8.09911475 7.2,8.26229508 C7.2,8.42547541 7.0656,8.55737705 6.9,8.55737705 M9.9,8.55737705 L8.7,8.55737705 C8.5344,8.55737705 8.4,8.42547541 8.4,8.26229508 C8.4,8.09911475 8.5344,7.96721311 8.7,7.96721311 L9.9,7.96721311 C10.0656,7.96721311 10.2,8.09911475 10.2,8.26229508 C10.2,8.42547541 10.0656,8.55737705 9.9,8.55737705"></path>
                                <path d="M12.3,8.55737705 L11.7,8.55737705 C11.5344,8.55737705 11.4,8.42547541 11.4,8.26229508 C11.4,8.09911475 11.5344,7.96721311 11.7,7.96721311 L12.3,7.96721311 C12.4656,7.96721311 12.6,8.09911475 12.6,8.26229508 C12.6,8.42547541 12.4656,8.55737705 12.3,8.55737705"></path>
                            </g>
                        </g>
                    </g>
                </g>
            </g>
        </g>
    </g>
</svg>