<?xml version="1.0" encoding="UTF-8"?>
<svg width="18px" height="18px" viewBox="0 0 18 18" version="1.1" xmlns="http://www.w3.org/2000/svg" xmlns:xlink="http://www.w3.org/1999/xlink">
    <!-- Generator: Sketch 51.3 (57544) - http://www.bohemiancoding.com/sketch -->
    <title>Group 16</title>
    <desc>Created with Sketch.</desc>
    <defs></defs>
    <g id="Page-1" stroke="none" stroke-width="1" fill="none" fill-rule="evenodd">
        <g id="1.13-PDP---Complete-Product-Details---Multi-color" transform="translate(-17.000000, -1683.000000)">
            <g id="Group-24" transform="translate(14.000000, 1680.000000)">
                <g id="Group-16">
                    <rect id="Rectangle" x="0" y="0" width="24" height="24"></rect>
                    <path d="M20.8271501,16.3632706 L7.63648528,3.17301846 C7.40578265,2.94232718 7.03221913,2.94232718 6.80175264,3.17301846 L3.51784121,6.4562961 C2.82738626,7.14695321 2.82738626,8.2704221 3.51784121,8.96060696 L15.0390408,20.4814759 C15.3734061,20.8160609 15.8185181,21 16.2912578,21 C16.7644697,21 17.2091095,20.8160609 17.5439471,20.4814759 L20.8271501,17.1979621 C21.0576166,16.9672709 21.0576166,16.5937257 20.8271501,16.3632706 Z M16.7089783,19.6465482 C16.485832,19.8696836 16.0964475,19.8694474 15.8737734,19.6467843 L4.35257386,8.12615151 C4.1223435,7.89593247 4.1223435,7.52120672 4.35257386,7.2912238 L7.21900089,4.42517389 L8.63863672,5.84450377 L7.52526631,6.95758329 C7.29456368,7.18827457 7.29456368,7.56181971 7.52526631,7.79227487 C7.64049955,7.90750245 7.79186126,7.96511624 7.9427507,7.96511624 C8.0941124,7.96511624 8.2447657,7.90750245 8.36023508,7.79227487 L9.4736055,6.67919535 L10.8091777,8.014938 L9.69627958,9.12801753 C9.46557695,9.35870881 9.46557695,9.73225395 9.69627958,9.96270911 C9.81151283,10.0779367 9.96240227,10.1355505 10.113764,10.1355505 C10.2646534,10.1355505 10.415779,10.0779367 10.5312484,9.96270911 L11.6441465,8.84962958 L12.980191,10.1853722 L11.8668206,11.2984518 C11.636118,11.529143 11.636118,11.9026882 11.8668206,12.1331433 C11.9820538,12.2483709 12.1334155,12.3059847 12.284305,12.3059847 C12.4356667,12.3059847 12.58632,12.2483709 12.7017894,12.1331433 L13.8151598,11.0200638 L15.150732,12.3558065 L14.0378339,13.468886 C13.8071312,13.6995773 13.8071312,14.0731224 14.0378339,14.3035776 C14.1530671,14.4188052 14.3039566,14.4764189 14.4553183,14.4764189 C14.6062077,14.4764189 14.7573333,14.4188052 14.8728026,14.3035776 L15.9857008,13.1904981 L17.3217453,14.5262407 L16.2083749,15.6393202 C15.9776722,15.8700115 15.9776722,16.2435567 16.2083749,16.4740118 C16.3236081,16.5892394 16.4749698,16.6468532 16.6258593,16.6468532 C16.777221,16.6468532 16.9278743,16.5892394 17.0433437,16.4740118 L18.1567141,15.3609323 L19.5758776,16.7802622 L16.7089783,19.6465482 Z" id="Shape" fill="#424242" fill-rule="nonzero"></path>
                </g>
            </g>
        </g>
    </g>
</svg>