<?xml version="1.0" encoding="UTF-8"?>
<svg width="18px" height="18px" viewBox="0 0 18 18" version="1.1" xmlns="http://www.w3.org/2000/svg" xmlns:xlink="http://www.w3.org/1999/xlink">
    <!-- Generator: Sketch 51.3 (57544) - http://www.bohemiancoding.com/sketch -->
    <title>Group 27</title>
    <desc>Created with Sketch.</desc>
    <defs></defs>
    <g id="Page-1" stroke="none" stroke-width="1" fill="none" fill-rule="evenodd">
        <g id="1.13-PDP---Complete-Product-Details---Multi-color" transform="translate(-17.000000, -2105.000000)">
            <g id="Group-6" transform="translate(14.000000, 2102.000000)">
                <g id="Group-27">
                    <rect id="Rectangle" x="0" y="0" width="24" height="24"></rect>
                    <g id="Group" transform="translate(3.000000, 3.000000)" fill="#424242" fill-rule="nonzero">
                        <path d="M17.3207547,0 L10.596566,0 C10.416566,0 10.2436981,0.0716603774 10.1163396,0.199018868 L0.51045283,9.80490566 C0.245207547,10.0701509 0.245207547,10.5001132 0.51045283,10.7653585 L7.23464151,17.4895472 C7.36709434,17.6223396 7.54098113,17.688566 7.71486792,17.688566 C7.88875472,17.688566 8.06230189,17.6223396 8.19509434,17.4895472 L17.8009811,7.88366038 C17.9283396,7.75630189 18,7.58343396 18,7.40343396 L18,0.679245283 C18,0.304301887 17.6956981,0 17.3207547,0 Z M16.6415094,7.12188679 L7.71486792,16.0488679 L1.9514717,10.2851321 L10.8777736,1.35849057 L16.6415094,1.35849057 L16.6415094,7.12188679 Z" id="Shape"></path>
                        <path d="M7.23464151,8.72762264 C6.69022642,8.72762264 6.17841509,8.93988679 5.79362264,9.32467925 C5.40883019,9.7094717 5.19690566,10.221283 5.19690566,10.7653585 C5.19690566,11.309434 5.40883019,11.8212453 5.79362264,12.2060377 C6.17841509,12.5911698 6.69022642,12.8030943 7.23464151,12.8030943 C7.7790566,12.8030943 8.2905283,12.5911698 8.67532075,12.2060377 C9.06011321,11.8212453 9.27203774,11.309434 9.27203774,10.7653585 C9.27203774,10.221283 9.06011321,9.7094717 8.67532075,9.32467925 C8.2905283,8.93988679 7.77871698,8.72762264 7.23464151,8.72762264 Z M7.7145283,11.2455849 C7.45777358,11.5023396 7.01049057,11.502 6.75407547,11.2455849 C6.62603774,11.1172075 6.55539623,10.946717 6.55539623,10.7653585 C6.55539623,10.584 6.62603774,10.4135094 6.75441509,10.2851321 C6.88245283,10.1567547 7.05328302,10.0861132 7.23464151,10.0861132 C7.416,10.0861132 7.58649057,10.1567547 7.71486792,10.2851321 C7.84290566,10.4135094 7.91354717,10.584 7.91354717,10.7653585 C7.91354717,10.946717 7.84290566,11.1172075 7.7145283,11.2455849 Z" id="Shape"></path>
                    </g>
                </g>
            </g>
        </g>
    </g>
</svg>