<?xml version="1.0" encoding="UTF-8"?>
<svg width="163px" height="163px" viewBox="0 0 163 163" version="1.1" xmlns="http://www.w3.org/2000/svg" xmlns:xlink="http://www.w3.org/1999/xlink">
    <!-- Generator: Sketch 60.1 (88133) - https://sketch.com -->
    <title>Group 3</title>
    <desc>Created with Sketch.</desc>
    <defs>
        <circle id="path-1" cx="81.5" cy="81.5" r="81.5"></circle>
    </defs>
    <g id="01-My-Orders" stroke="none" stroke-width="1" fill="none" fill-rule="evenodd">
        <g id="2.-My-Order---Empty---Desktop" transform="translate(-639.000000, -160.000000)">
            <g id="Group-5" transform="translate(603.000000, 160.000000)">
                <g id="Group-3" transform="translate(36.000000, 0.000000)">
                    <mask id="mask-2" fill="white">
                        <use xlink:href="#path-1"></use>
                    </mask>
                    <use id="Mask" fill="#FFFAF7" xlink:href="#path-1"></use>
                    <path d="M44.0964015,68.9775326 L30.2868275,76.8533998 L46.7090237,86.0315758 C46.7513233,86.0315758 46.8122844,86.0725055 46.8956395,86.1556052 L65.743842,96.3880312 L79.2423896,88.6994483 L44.0964015,68.9775326 Z M44.0964015,66.1248563 L80.5487006,45.2879162 L65.9304578,36.7298872 L28.8561058,57.8148861 L44.0964015,66.1248563 Z M118.369516,107.736722 L117.871874,87.8300022 L98.9627102,98.8686193 C98.713889,98.993889 98.4849735,99.0546634 98.2772079,99.0546634 C98.1117418,99.0546634 97.9251259,98.9926487 97.7186044,98.8686193 L81.7928064,90.0625315 L66.3049337,98.9926487 C66.1382235,99.0745081 65.9516076,99.1166781 65.7450861,99.1166781 C65.4962649,99.1166781 65.2673494,99.0955931 65.0608279,99.0546634 L47.6433471,89.3803698 L47.6433471,107.612692 L80.6731112,126.403147 L80.4242901,92.8531931 C80.4242901,92.4811049 80.5686063,92.1710314 80.8597271,91.9229726 C81.0674927,91.7158435 81.3573694,91.6128991 81.7306011,91.6128991 C82.0627774,91.6128991 82.3738038,91.7158435 82.6636804,91.9229726 C82.8714461,92.1301017 82.9747069,92.4401752 82.9747069,92.8531931 L83.1003616,126.83725 L118.369516,107.736722 Z M132.801143,76.0472087 L119.364801,68.1093268 L84.2810179,88.6361933 L98.2772079,96.3260165 L118.24635,84.6684927 C118.24635,84.6263227 118.287405,84.585393 118.37076,84.543223 L132.801143,76.0472087 Z M85.6495343,45.2879162 L119.425762,65.1946357 L133.174375,57.2567538 L99.0858766,37.6601078 L85.6495343,45.2879162 Z M99.0858766,34.9314608 C99.2936423,34.9314608 99.5213136,34.9723905 99.7701348,35.0567305 L136.346844,56.1417294 C136.595666,56.3066885 136.782281,56.5336624 136.906692,56.8238912 C137.031103,57.1128797 137.031103,57.4031085 136.906692,57.692097 C136.781037,57.9389155 136.595666,58.1460446 136.346844,58.312244 L121.913973,66.6842289 L135.973613,74.9929587 C136.22119,75.1591582 136.40905,75.3662873 136.532216,75.6131058 C136.657871,75.9020943 136.657871,76.2121678 136.532216,76.5433263 C136.407806,76.7504554 136.22119,76.9364995 135.973613,77.1014586 L120.296636,86.2796346 L120.856484,108.542913 C120.856484,108.748802 120.835334,108.955931 120.794278,109.16306 C120.627568,109.328019 120.442196,109.494218 120.234431,109.657937 L82.9734628,129.87473 C82.8079967,129.95783 82.600231,130 82.3514099,130 C82.1859438,130 81.999328,129.95907 81.7915623,129.87473 L81.5439852,129.812716 L81.4183306,129.812716 C81.3362196,129.771786 81.2740143,129.730856 81.2329588,129.688686 C81.1906592,129.647756 81.1496037,129.606827 81.1073041,129.563416 L45.7747002,109.346623 C45.6092342,109.222594 45.4226183,109.057635 45.2148526,108.851746 C45.172553,108.685547 45.1526473,108.478418 45.1526473,108.231599 L44.9672756,87.9540316 L27.1143578,77.9696645 C26.8244811,77.8456351 26.6577709,77.6186613 26.6167154,77.2875027 C26.4089498,76.9985142 26.4089498,76.7082854 26.6167154,76.4192969 C26.6577709,76.1303084 26.8033313,75.9231793 27.0521525,75.7991499 L41.5459847,67.6132091 L25.7458414,58.8678958 C25.4136652,58.7029367 25.1859938,58.4958075 25.0615832,58.2477487 C24.9794723,57.9587602 24.9794723,57.6486867 25.0615832,57.3175282 C25.1859938,57.0707097 25.4136652,56.8635806 25.7458414,56.6973812 L65.3718543,34.1252697 C65.5783759,34.04217 65.7649918,34 65.9304578,34 C66.1382235,34 66.3870446,34.0409297 66.6781654,34.1252697 L83.0369122,43.861578 L98.4028626,35.0554902 C98.6516837,34.9723905 98.878111,34.9314608 99.0858766,34.9314608 Z" id="Shape" fill="#E9C0A8" fill-rule="nonzero" mask="url(#mask-2)"></path>
                </g>
            </g>
        </g>
    </g>
</svg>