<?xml version="1.0" encoding="UTF-8"?>
<svg width="18px" height="18px" viewBox="0 0 18 18" version="1.1" xmlns="http://www.w3.org/2000/svg" xmlns:xlink="http://www.w3.org/1999/xlink">
    <!-- Generator: Sketch 60.1 (88133) - https://sketch.com -->
    <title>Group 16</title>
    <desc>Created with Sketch.</desc>
    <g id="01-My-Orders" stroke="none" stroke-width="1" fill="none" fill-rule="evenodd">
        <g id="1.1-My-Order---Landing---Desktop" transform="translate(-909.000000, -508.000000)">
            <g id="Group-5" transform="translate(889.000000, 496.000000)">
                <g id="Group-6" transform="translate(17.000000, 9.000000)">
                    <g id="Group-16">
                        <rect id="Rectangle-2" x="0" y="0" width="24" height="24"></rect>
                        <g id="Group" transform="translate(3.000000, 3.000000)" fill="#000000" fill-rule="nonzero">
                            <path d="M2.3454,9.54961364 L6.14,9.54961364 C6.3418,9.54961364 6.5054,9.38229545 6.5054,9.17611364 L6.5054,7.29613636 C6.5054,7.08975 6.3418,6.92243182 6.14,6.92243182 L2.3454,6.92243182 C2.1438,6.92243182 1.9802,7.08975 1.9802,7.29613636 L1.9802,9.17611364 C1.9802,9.38229545 2.1438,9.54961364 2.3454,9.54961364 Z M2.7108,7.66943182 L5.775,7.66943182 L5.775,8.80240909 L2.7108,8.80240909 L2.7108,7.66943182 Z" id="Shape"></path>
                            <path d="M6.1722,12.6229091 C6.1718,12.6229091 6.1716,12.6229091 6.171,12.6229091 L2.3672,12.6345682 C2.1654,12.6351818 2.0022,12.8029091 2.00279835,13.0095 C2.0034,13.2154773 2.1668,13.3817727 2.368,13.3817727 C2.3684,13.3817727 2.3688,13.3817727 2.3692,13.3817727 L6.1732,13.3701136 C6.3748,13.3695 6.538,13.2017727 6.53720293,12.9953864 C6.537,12.7894091 6.3734,12.6229091 6.1722,12.6229091 Z" id="Shape"></path>
                            <path d="M16.68,1.20415909 C16.68,0.618340909 16.214,0.14175 15.6414,0.14175 L10.6332,0.14175 L6.1234,0.14175 L1.1154,0.14175 C0.5432,0.14175 0.0776,0.618340909 0.0776,1.20415909 L0.0776,14.6286818 C0.0776,15.2138864 0.5432,15.6898636 1.1154,15.6898636 L10.007,15.6898636 C10.742,16.98525 12.1128,17.85825 13.6796,17.85825 C16.019,17.85825 17.9222,15.9113864 17.9222,13.5188182 C17.9222,12.32325 17.4472,11.2393636 16.6798,10.4537045 L16.6798,1.20415909 L16.68,1.20415909 Z M10.2678,0.88875 L10.2678,3.99927273 L8.5722,3.10111364 C8.468,3.04588636 8.344,3.04527273 8.2392,3.09947727 L6.4888,4.00561364 L6.4888,0.88875 L10.2678,0.88875 Z M9.6698,14.9428636 L1.1154,14.9428636 C0.946,14.9428636 0.8082,14.8021364 0.8082,14.6286818 L0.8082,1.20415909 C0.8082,1.03336364 0.949,0.88875 1.1154,0.88875 L5.7582,0.88875 L5.7582,4.61331818 C5.7582,4.74320455 5.824,4.86368182 5.9322,4.93179545 C6.0402,4.9995 6.1752,5.00543182 6.2884,4.94672727 L8.4022,3.85240909 L10.465,4.94509091 C10.5178,4.97311364 10.5752,4.98702273 10.633,4.98702273 C10.6988,4.98702273 10.7646,4.96881818 10.8228,4.93261364 C10.9316,4.86490909 10.998,4.74381818 10.998,4.61331818 L10.998,0.88875 L15.641,0.88875 C15.808,0.88875 15.9492,1.03315909 15.9492,1.20415909 L15.9492,9.85275 C15.7248,9.70711364 15.488,9.58438636 15.2422,9.48477273 C15.2326,9.48068182 15.2226,9.477 15.2128,9.47290909 C15.1722,9.45675 15.1312,9.44140909 15.09,9.42627273 C15.0704,9.41911364 15.0506,9.41195455 15.0308,9.40520455 C15.0112,9.39825 14.9914,9.39190909 14.9718,9.38536364 C14.9474,9.37738636 14.9232,9.36981818 14.8988,9.36225 C14.8826,9.35734091 14.8666,9.35222727 14.8504,9.34752273 C14.8106,9.33586364 14.7704,9.32461364 14.73,9.31418182 C14.7198,9.31152273 14.7092,9.30906818 14.699,9.30640909 C14.6646,9.29761364 14.63,9.28943182 14.5952,9.28145455 C14.584,9.279 14.5728,9.27634091 14.5614,9.27388636 C14.4734,9.25486364 14.384,9.2385 14.2942,9.22520455 C14.2844,9.22356818 14.2742,9.22234091 14.2644,9.22090909 C14.2256,9.21538636 14.1864,9.21047727 14.147,9.20597727 C14.1402,9.20515909 14.1332,9.20434091 14.1264,9.20352273 C14.081,9.19861364 14.0354,9.19452273 13.9896,9.19125 C13.9806,9.19063636 13.9718,9.18981818 13.9628,9.18940909 C13.926,9.18695455 13.889,9.18490909 13.8518,9.18327273 C13.8396,9.18265909 13.8276,9.18225 13.8152,9.18184091 C13.77,9.18040909 13.7248,9.17938636 13.679,9.17938636 C11.3394,9.17938636 9.4362,11.12625 9.4362,13.5188182 C9.4362,13.5724091 9.4374,13.6255909 9.4392,13.6789773 C9.4398,13.6928864 9.4402,13.707 9.4408,13.7209091 C9.443,13.7679545 9.4458,13.815 9.4492,13.8618409 C9.451,13.88475 9.4532,13.9074545 9.4552,13.9301591 C9.4574,13.9540909 9.46,13.9780227 9.4626,14.00175 C9.4686,14.0598409 9.4762,14.1177273 9.4846,14.1756136 C9.4848,14.1770455 9.4848,14.1784773 9.485,14.1799091 C9.5246,14.4398864 9.5854,14.69475 9.6698,14.9428636 Z M13.6796,17.11125 C11.8358,17.11125 10.3196,15.6505909 10.178,13.8015 C10.1776,13.7949545 10.1772,13.7886136 10.1768,13.7822727 C10.1752,13.7591591 10.1738,13.7354318 10.1724,13.7123182 C10.1718,13.6975909 10.1712,13.6824545 10.1704,13.6675227 C10.17,13.6509545 10.1692,13.6343864 10.1686,13.6176136 C10.1678,13.5850909 10.1674,13.5521591 10.1674,13.5190227 C10.1674,13.4881364 10.1678,13.45725 10.1684,13.4263636 C10.2058,11.9188636 11.156,10.6394318 12.473,10.1450455 C12.5,10.1350227 12.5268,10.1254091 12.5542,10.116 C12.6902,10.0689545 12.8296,10.0298864 12.9724,10.0000227 C13.201,9.95215909 13.4374,9.927 13.6794,9.927 C13.7316,9.927 13.7836,9.92822727 13.8356,9.93088636 C13.8402,9.93109091 13.8448,9.93109091 13.8494,9.93129545 C13.8994,9.93375 13.9494,9.93763636 13.9992,9.94234091 C14.0052,9.94275 14.0108,9.94315909 14.0166,9.94397727 C14.0658,9.94868182 14.1148,9.95461364 14.1636,9.96156818 C14.1696,9.96218182 14.1756,9.963 14.1816,9.96402273 C14.2304,9.97118182 14.2786,9.97956818 14.3268,9.98877273 C14.3326,9.98979545 14.3386,9.99102273 14.3444,9.99225 C14.3926,10.0016591 14.4402,10.0120909 14.4878,10.0235455 C14.4936,10.0247727 14.4998,10.0264091 14.5056,10.0280455 C14.5526,10.0397045 14.5994,10.0521818 14.646,10.0656818 C14.6528,10.0677273 14.6594,10.0699773 14.6662,10.0720227 C14.7094,10.0849091 14.7524,10.0986136 14.795,10.1133409 C14.8058,10.1170227 14.8162,10.1207045 14.8266,10.1245909 C14.8626,10.1370682 14.8978,10.1505682 14.9334,10.1642727 C14.9518,10.1714318 14.97,10.1787955 14.988,10.1861591 C15.0172,10.1982273 15.046,10.2105 15.0748,10.2233864 C15.101,10.23525 15.127,10.2471136 15.1528,10.2593864 C15.1742,10.2694091 15.1952,10.2798409 15.2162,10.2902727 C15.2538,10.3090909 15.2908,10.3283182 15.3272,10.3483636 C15.337,10.3536818 15.347,10.3587955 15.3564,10.3643182 C16.4486,10.9740682 17.1910003,12.1598182 17.1910003,13.5196364 C17.1918,15.4996364 15.6164,17.11125 13.6796,17.11125 Z" id="Shape"></path>
                            <path d="M15.462,11.6875227 C15.3102,11.5515 15.0794,11.56725 14.9466,11.7225 L12.8092,14.2214318 L12.2014,13.3079318 C12.088,13.1373409 11.8604,13.0929545 11.6938,13.2091364 C11.527,13.3251136 11.4836,13.5574773 11.5972,13.7282727 L12.4708,15.0414545 C12.5344,15.1369773 12.6378,15.1971136 12.7506,15.2040682 C12.758,15.2044773 12.7654,15.2046818 12.7728,15.2046818 C12.8778,15.2046818 12.9778,15.1586591 13.0478,15.07725 L15.4964,12.2146364 C15.6292,12.0593864 15.614,11.8231364 15.462,11.6875227 Z" id="Shape"></path>
                            <path d="M4.2674,10.5923864 L2.3658,10.6050682 C2.164,10.6065 2.0016,10.7748409 2.00279339,10.9812273 C2.0042,11.1867955 2.1674,11.3522727 2.368,11.3522727 C2.3688,11.3522727 2.3698,11.3522727 2.3706,11.3522727 L4.2722,11.3393864 C4.4738,11.3381591 4.6362,11.1696136 4.63500661,10.9636364 C4.6336,10.7580682 4.4702,10.5923864 4.2698,10.5923864 C4.269,10.5923864 4.268,10.5923864 4.2674,10.5923864 Z" id="Shape"></path>
                        </g>
                    </g>
                </g>
            </g>
        </g>
    </g>
</svg>