<?xml version="1.0" encoding="UTF-8"?>
<svg width="18px" height="18px" viewBox="0 0 18 18" version="1.1" xmlns="http://www.w3.org/2000/svg" xmlns:xlink="http://www.w3.org/1999/xlink">
    <!-- Generator: Sketch 60.1 (88133) - https://sketch.com -->
    <title>Group 27</title>
    <desc>Created with Sketch.</desc>
    <g id="01-My-Orders" stroke="none" stroke-width="1" fill="none" fill-rule="evenodd">
        <g id="1.1-My-Order---Landing---Desktop" transform="translate(-903.000000, -1323.000000)" fill-rule="nonzero">
            <g id="Group-27" transform="translate(900.000000, 1320.000000)">
                <rect id="Rectangle-12" x="0" y="0" width="24" height="24"></rect>
                <g id="Group" transform="translate(3.000000, 3.000000)" fill="#000000">
                    <path d="M10.6490769,4.31663736 L9.08050549,3.56162637 C9.03520879,3.53967033 8.9818022,3.53967033 8.93610989,3.56162637 L4.47843956,5.70323077 C4.42087912,5.73092308 4.38408791,5.78907692 4.38408791,5.85336264 C4.38408791,5.91725275 4.42068132,5.97540659 4.47824176,6.0032967 L6.04681319,6.7587033 C6.06995604,6.76978022 6.09448352,6.77531868 6.11940659,6.77531868 C6.14393407,6.77531868 6.16885714,6.76958242 6.1916044,6.7587033 L10.6490769,4.6169011 C10.707033,4.58920879 10.7434286,4.53065934 10.7434286,4.46676923 C10.7432308,4.40248352 10.707033,4.34432967 10.6490769,4.31663736 Z" id="Shape"></path>
                    <path d="M3.71353846,6.62657143 C3.66507692,6.65703297 3.6356044,6.71043956 3.6356044,6.7676044 L3.6356044,11.7146374 C3.6356044,11.7787253 3.6721978,11.8368791 3.72995604,11.8647692 L8.36149451,14.0947912 C8.38424176,14.1058681 8.40916484,14.1108132 8.43369231,14.1108132 C8.46474725,14.1108132 8.49540659,14.1023077 8.52250549,14.0856923 C8.57096703,14.0554286 8.60043956,14.0018242 8.60043956,13.9446593 L8.60043956,8.99762637 C8.60043956,8.93373626 8.56384615,8.87518681 8.50608791,8.84749451 L3.87435165,6.61767033 C3.82292308,6.59274725 3.7621978,6.59591209 3.71353846,6.62657143 Z M4.82004396,8.97448352 C4.8869011,8.83503297 5.03030769,8.74463736 5.18498901,8.74463736 C5.24630769,8.74463736 5.30525275,8.75848352 5.36162637,8.78578022 L7.06826374,9.60646154 C7.16578022,9.65334066 7.23916484,9.73542857 7.27476923,9.83808791 C7.31057143,9.94015385 7.30443956,10.0503297 7.25736264,10.1484396 C7.16479121,10.3416923 6.91615385,10.4346593 6.71617582,10.3371429 L5.00953846,9.51626374 C4.91202198,9.46978022 4.83883516,9.38789011 4.80283516,9.28562637 C4.76663736,9.18336264 4.77276923,9.07298901 4.82004396,8.97448352 Z" id="Shape"></path>
                    <path d="M9.41281319,8.99782418 L9.41281319,13.9448571 C9.41281319,14.002022 9.44208791,14.0556264 9.49074725,14.0858901 C9.51764835,14.1025055 9.54850549,14.111011 9.57936264,14.111011 C9.60389011,14.111011 9.62881319,14.1060659 9.65156044,14.094989 L14.2834945,11.864967 C14.3412527,11.8370769 14.3778462,11.7789231 14.3778462,11.7148352 L14.3778462,6.77057143 C14.3778462,6.71301099 14.3485714,6.6598022 14.2999121,6.62934066 C14.2516484,6.59887912 14.1903297,6.59551648 14.1390989,6.62004396 L9.50696703,8.84749451 C9.44920879,8.87538462 9.41281319,8.93393407 9.41281319,8.99782418 Z" id="Shape"></path>
                    <path d="M13.5358022,5.70718681 L11.97,4.95296703 C11.9245055,4.93101099 11.8712967,4.93101099 11.8256044,4.95296703 L7.36734066,7.09437363 C7.30978022,7.12206593 7.27279121,7.18021978 7.27279121,7.24450549 C7.27279121,7.3083956 7.30958242,7.36694505 7.36734066,7.39443956 L8.93452747,8.14865934 C8.95727473,8.15953846 8.9818022,8.16527473 9.00672527,8.16527473 C9.03145055,8.16527473 9.05617582,8.15953846 9.07892308,8.14865934 L13.5358022,6.00725275 C13.5935604,5.97956044 13.6303516,5.92140659 13.6303516,5.85712088 C13.6301538,5.79342857 13.5935604,5.73527473 13.5358022,5.70718681 Z" id="Shape"></path>
                    <path d="M1.18265934,12.5458022 C1.23428571,12.5458022 1.2869011,12.5361099 1.33793407,12.5157363 C1.55136264,12.4294945 1.65461538,12.1871868 1.56876923,11.9735604 C0.242703297,8.68015385 1.21153846,4.96938462 3.97938462,2.74015385 C6.85542857,0.423098901 10.857956,0.424285714 13.714022,2.49527473 L12.9271648,3.12863736 C12.7956264,3.23446154 12.7412308,3.40892308 12.7887033,3.57052747 C12.835978,3.73193407 12.9762198,3.84962637 13.1437582,3.86742857 L15.5498242,4.12615385 C15.5648571,4.12773626 15.5796923,4.12872527 15.5951209,4.12872527 C15.804989,4.12872527 15.9855824,3.97048352 16.0085275,3.75685714 L16.268044,1.35178022 C16.2862418,1.18424176 16.2013846,1.02224176 16.0536264,0.941736264 C15.9056703,0.860637363 15.7240879,0.876461538 15.5925495,0.982879121 L14.3845714,1.95547253 C11.2209231,-0.464835165 6.69283516,-0.515868132 3.45679121,2.09116484 C0.401340659,4.55221978 -0.66778022,8.6487033 0.795956044,12.2845055 C0.861428571,12.4470989 1.01769231,12.5458022 1.18265934,12.5458022 Z" id="Shape"></path>
                    <path d="M17.1852527,5.59404396 C17.0972308,5.3818022 16.8537363,5.28112088 16.6405055,5.36914286 C16.4280659,5.45736264 16.3273846,5.70105495 16.4154066,5.9132967 C17.7695604,9.17624176 16.791033,13.0052967 14.0364396,15.2248352 C11.1603956,17.5416923 7.15786813,17.5401099 4.30140659,15.4689231 L5.08767033,14.8355604 C5.21901099,14.7301319 5.27340659,14.5554725 5.22593407,14.3942637 C5.17846154,14.2324615 5.03841758,14.1151648 4.87107692,14.0971648 L2.46540659,13.8374505 C2.35364835,13.824989 2.24564835,13.8578242 2.15940659,13.9272527 C2.07336264,13.9964835 2.01857143,14.0971648 2.0067033,14.2071429 L1.74758242,16.6126154 C1.72938462,16.779956 1.81404396,16.941956 1.9618022,17.0224615 C2.02450549,17.0564835 2.09314286,17.0736923 2.16158242,17.0736923 C2.25474725,17.0736923 2.34731868,17.0424396 2.42307692,16.9813187 L3.63105495,16.0087253 C5.19923077,17.2083956 7.10169231,17.8275165 9.01720879,17.8269235 C10.9657582,17.8269235 12.926967,17.1882198 14.559033,15.8736264 C17.6002418,13.4236484 18.680044,9.19661538 17.1852527,5.59404396 Z" id="Shape"></path>
                </g>
            </g>
        </g>
    </g>
</svg>