<?xml version="1.0" encoding="UTF-8"?>
<svg width="18px" height="13px" viewBox="0 0 18 13" version="1.1" xmlns="http://www.w3.org/2000/svg" xmlns:xlink="http://www.w3.org/1999/xlink">
    <!-- Generator: Sketch 60.1 (88133) - https://sketch.com -->
    <title>Group 15</title>
    <desc>Created with Sketch.</desc>
    <g id="01-My-Orders" stroke="none" stroke-width="1" fill="none" fill-rule="evenodd">
        <g id="1.1-My-Order---Landing---Desktop" transform="translate(-927.000000, -675.000000)">
            <g id="Group-5" transform="translate(889.000000, 661.000000)">
                <g id="Group-7" transform="translate(35.000000, 9.000000)">
                    <g id="Group-15">
                        <rect id="Rectangle-2" x="0" y="0" width="24" height="24"></rect>
                        <g id="Group" transform="translate(3.000000, 5.000000)" fill="#000000" fill-rule="nonzero">
                            <g id="Shape">
                                <g>
                                    <path d="M0.8611581,10.4 C0.860250034,10.4 0.857142857,0.866967677 0.857142857,0.866967677 L10.2854166,0.866666667 L10.2854168,10.4 L5.57142857,10.4 L5.57142857,11.2666667 L12.4285714,11.2666667 L12.4285714,10.4 L11.1428571,10.4 L11.1428571,0.866967677 C11.1428571,0.391647331 10.7581623,0 10.2854166,0 L0.85744056,0 C0.387343515,0 0,0.388969159 0,0.866967677 L0,10.399699 C0,10.8758542 0.387202243,11.2666667 0.8611581,11.2666667 L2.14285714,11.2666667 L2.14285714,10.4 L0.8611581,10.4 Z"></path>
                                    <path d="M14.573401,2.6 C14.6589189,2.6 14.8078527,2.6851115 14.8517415,2.75907239 L16.984693,6.3534906 C17.0671447,6.49243691 17.1428571,6.76733564 17.1428571,6.93133894 L17.1428571,10.4019944 C17.1428571,10.4047129 15.8571429,10.4 15.8571429,10.4 L15.8571429,11.2666667 L17.1388419,11.2666667 C17.6213759,11.2666667 18,10.8828734 18,10.4019944 L18,6.93133894 C18,6.60983952 17.881856,6.18087906 17.719687,5.90759427 L15.5867355,2.31317607 C15.3878142,1.97795684 14.9597556,1.73333333 14.573401,1.73333333 L10.7142857,1.73333333 L10.7142857,2.6 L14.573401,2.6 Z"></path>
                                    <path d="M13.7103334,3.46666667 C13.2393203,3.46666667 12.8571429,3.84681538 12.8571429,4.32508138 L12.8571429,6.94158528 C12.8571429,7.41839342 13.2358684,7.8 13.7123133,7.8 L17.5714286,7.8 L17.5714286,6.93333333 L13.7123133,6.93333333 C13.7085905,6.93333333 13.7142857,4.32508138 13.7142857,4.32508138 C13.7142857,4.32866699 15.8571429,4.33333333 15.8571429,4.33333333 L15.8571429,3.46666667 L13.7103334,3.46666667 Z"></path>
                                    <path d="M3.85714286,13 C5.04061017,13 6,12.0299503 6,10.8333333 C6,9.63671635 5.04061017,8.66666667 3.85714286,8.66666667 C2.67367554,8.66666667 1.71428571,9.63671635 1.71428571,10.8333333 C1.71428571,12.0299503 2.67367554,13 3.85714286,13 Z M3.85714286,12.1333333 C4.56722325,12.1333333 5.14285714,11.5513035 5.14285714,10.8333333 C5.14285714,10.1153632 4.56722325,9.53333333 3.85714286,9.53333333 C3.14706247,9.53333333 2.57142857,10.1153632 2.57142857,10.8333333 C2.57142857,11.5513035 3.14706247,12.1333333 3.85714286,12.1333333 Z"></path>
                                    <path d="M14.1428571,13 C15.3263245,13 16.2857143,12.0299503 16.2857143,10.8333333 C16.2857143,9.63671635 15.3263245,8.66666667 14.1428571,8.66666667 C12.9593898,8.66666667 12,9.63671635 12,10.8333333 C12,12.0299503 12.9593898,13 14.1428571,13 Z M14.1428571,12.1333333 C14.8529375,12.1333333 15.4285714,11.5513035 15.4285714,10.8333333 C15.4285714,10.1153632 14.8529375,9.53333333 14.1428571,9.53333333 C13.4327768,9.53333333 12.8571429,10.1153632 12.8571429,10.8333333 C12.8571429,11.5513035 13.4327768,12.1333333 14.1428571,12.1333333 Z"></path>
                                </g>
                            </g>
                        </g>
                    </g>
                </g>
            </g>
        </g>
    </g>
</svg>