<?xml version="1.0" encoding="UTF-8"?>
<svg width="27px" height="27px" viewBox="0 0 27 27" version="1.1" xmlns="http://www.w3.org/2000/svg" xmlns:xlink="http://www.w3.org/1999/xlink">
    <!-- Generator: Sketch 60.1 (88133) - https://sketch.com -->
    <title>Group 5</title>
    <desc>Created with Sketch.</desc>
    <defs>
        <linearGradient x1="100%" y1="60.3841126%" x2="0%" y2="60.3841146%" id="linearGradient-1">
            <stop stop-color="#F01E6C" offset="0%"></stop>
            <stop stop-color="#FC5D1F" offset="100%"></stop>
        </linearGradient>
    </defs>
    <g id="Desktop" stroke="none" stroke-width="1" fill="none" fill-rule="evenodd">
        <g id="2.1-Navigation-Drawer---Full-Length---Mobile" transform="translate(-16.000000, -775.000000)">
            <g id="Group-6" transform="translate(0.000000, 764.000000)">
                <g id="Group-5" transform="translate(16.000000, 11.000000)">
                    <circle id="Oval-2" fill="url(#linearGradient-1)" cx="13.5" cy="13.5" r="13.5"></circle>
                    <g id="Group" transform="translate(8.000000, 8.000000)" fill="#FFFFFF" fill-rule="nonzero">
                        <path d="M9.16585526,5.70616667 C9.10632895,5.70616667 9.04748684,5.70783333 8.98881579,5.7105 L8.98881579,2.02166667 C8.98881579,0.736 6.76256579,0.0633333333 4.56334211,0.0633333333 C2.36411842,0.0633333333 0.137697368,0.736 0.137697368,2.02166667 L0.137697368,8.68833333 L0.141631579,8.68833333 C0.223394737,9.927 2.40551316,10.575 4.56334211,10.575 C4.93384211,10.575 5.30382895,10.5541667 5.66492105,10.516 C6.17243421,11.9238333 7.54975,12.9361667 9.16585526,12.9361667 C11.2118158,12.9361667 12.8761579,11.3145 12.8761579,9.321 C12.8761579,7.3275 11.2118158,5.70616667 9.16585526,5.70616667 Z M4.56351316,1.06333333 C6.77146053,1.06333333 7.96267105,1.7435 7.96267105,2.02166667 C7.96267105,2.29983333 6.77146053,2.98 4.56351316,2.98 C2.35539474,2.98 1.16418421,2.29983333 1.16418421,2.02166667 C1.16418421,1.7435 2.35539474,1.06333333 4.56351316,1.06333333 Z M1.16418421,3.31966667 C2.01825,3.75583333 3.29498684,3.98 4.56351316,3.98 C5.83203947,3.98 7.10843421,3.75566667 7.96267105,3.31966667 L7.96267105,4.25633333 C7.96267105,4.5345 6.77146053,5.21466667 4.56351316,5.21466667 C2.35539474,5.21466667 1.16418421,4.5345 1.16418421,4.25633333 L1.16418421,3.31966667 Z M1.16418421,5.55416667 C2.01825,5.99033333 3.29498684,6.2145 4.56351316,6.2145 C5.83203947,6.2145 7.10843421,5.99016667 7.96267105,5.55416667 L7.96267105,5.90233333 C7.23142105,6.1475 6.60280263,6.609 6.15806579,7.2085 C5.70614474,7.29016667 5.17571053,7.34366667 4.56351316,7.34366667 C2.35539474,7.34366667 1.16418421,6.66366667 1.16418421,6.38533333 L1.16418421,5.55416667 Z M4.56351316,9.57516667 C2.35539474,9.57516667 1.16418421,8.89483333 1.16418421,8.61683333 L1.16418421,7.68333333 C2.01825,8.1195 3.29498684,8.34383333 4.56351316,8.34383333 C4.91536842,8.34383333 5.26671053,8.32466667 5.61052632,8.2905 C5.51046053,8.61733333 5.45589474,8.96333333 5.45589474,9.3215 C5.45589474,9.39283333 5.45863158,9.46316667 5.46273684,9.53333333 C5.18426316,9.559 4.88628947,9.57516667 4.56351316,9.57516667 Z M9.16585526,11.9365 C7.68607895,11.9365 6.48203947,10.7633333 6.48203947,9.32133333 C6.48203947,7.87933333 7.68607895,6.70616667 9.16585526,6.70616667 C10.6458026,6.70616667 11.8498421,7.87933333 11.8498421,9.32133333 C11.8498421,10.7633333 10.6459737,11.9365 9.16585526,11.9365 Z" id="Shape"></path>
                        <path d="M9.10256579,8.89483333 C8.67065789,8.84466667 8.45119737,8.78483333 8.45119737,8.59533333 C8.45119737,8.302 8.88721053,8.2705 9.07468421,8.2705 C9.35042105,8.2705 9.65557895,8.40033333 9.75496053,8.56016667 L9.79447368,8.624 L10.4248026,8.33983333 L10.3863158,8.26333333 C10.1648026,7.822 9.77155263,7.68883333 9.46793421,7.6345 L9.46793421,7.24383333 L8.73052632,7.24383333 L8.73052632,7.63216667 C8.08121053,7.73083333 7.69617105,8.08716667 7.69617105,8.59533333 C7.69617105,9.43166667 8.50131579,9.51916667 9.03346053,9.57716667 C9.51702632,9.63316667 9.74247368,9.7465 9.74247368,9.93333333 C9.74247368,10.2953333 9.21785526,10.3233333 9.05689474,10.3233333 C8.69597368,10.3233333 8.34822368,10.1491667 8.24832895,9.91833333 L8.21514474,9.84116667 L7.53127632,10.1236667 L7.56497368,10.2005 C7.75740789,10.6396667 8.16964474,10.9163333 8.73035526,10.9853333 L8.73035526,11.4065 L9.46776316,11.4065 L9.46776316,10.9641667 C10.0058947,10.8996667 10.5241842,10.5645 10.5241842,9.93316667 C10.5243553,9.0655 9.66892105,8.96283333 9.10256579,8.89483333 Z" id="Shape"></path>
                    </g>
                </g>
            </g>
        </g>
    </g>
</svg>