<?xml version="1.0" encoding="UTF-8"?>
<svg width="12px" height="16px" viewBox="0 0 12 16" version="1.1" xmlns="http://www.w3.org/2000/svg" xmlns:xlink="http://www.w3.org/1999/xlink">
    <!-- Generator: Sketch 60.1 (88133) - https://sketch.com -->
    <title>Shape</title>
    <desc>Created with Sketch.</desc>
    <g id="Desktop" stroke="none" stroke-width="1" fill="none" fill-rule="evenodd">
        <g id="1.1-Shipping-&amp;-Payment---Landing---No-Saved-Addresses---Desktop" transform="translate(-1249.000000, -21.000000)" fill="#F3A320">
            <g id="Group-7">
                <g id="Group" transform="translate(1249.000000, 21.000000)">
                    <path d="M10.5,5.33333333 L9.75,5.33333333 L9.75,3.80952381 C9.75,1.70666667 8.07,0 6,0 C3.93,0 2.25,1.70666667 2.25,3.80952381 L2.25,5.33333333 L1.5,5.33333333 C0.675,5.33333333 0,6.01904762 0,6.85714286 L0,14.4761905 C0,15.3142857 0.675,16 1.5,16 L10.5,16 C11.325,16 12,15.3142857 12,14.4761905 L12,6.85714286 C12,6.01904762 11.325,5.33333333 10.5,5.33333333 L10.5,5.33333333 Z M8.325,5.33333333 L3.675,5.33333333 L3.675,3.80952381 C3.675,2.50666667 4.7175,1.44761905 6,1.44761905 C7.2825,1.44761905 8.325,2.50666667 8.325,3.80952381 L8.325,5.33333333 L8.325,5.33333333 Z" id="Shape"></path>
                </g>
            </g>
        </g>
    </g>
</svg>