<?xml version="1.0" encoding="UTF-8"?>
<svg width="60px" height="60px" viewBox="0 0 60 60" version="1.1" xmlns="http://www.w3.org/2000/svg" xmlns:xlink="http://www.w3.org/1999/xlink">
    <!-- Generator: Sketch 60.1 (88133) - https://sketch.com -->
    <title>Group</title>
    <desc>Created with Sketch.</desc>
    <g id="Desktop" stroke="none" stroke-width="1" fill="none" fill-rule="evenodd">
        <g id="12.-Gift-Card-sent---Mobile" transform="translate(-150.000000, -688.000000)" fill-rule="nonzero">
            <g id="Group" transform="translate(150.000000, 688.000000)">
                <circle id="Oval" fill="#E9C0A8" cx="30" cy="30" r="30"></circle>
                <path d="M39.0897598,18 L20.8849558,18 C20.4045512,18 20,18.4037855 20,18.8832808 L20,40.637224 C20,41.0662461 20.2275601,41.4700315 20.6068268,41.6719243 C20.9860936,41.873817 21.4412137,41.8485804 21.795196,41.6214511 L23.3628319,40.5615142 C23.6915297,40.3596215 24.0960809,40.3596215 24.4247788,40.5615142 L26.2958281,41.7981073 C26.6750948,42.0504732 27.1807838,42.0504732 27.585335,41.7981073 L29.4563843,40.5615142 C29.7850822,40.3596215 30.1896334,40.3596215 30.5183312,40.5615142 L32.3893805,41.7981073 C32.5916561,41.9242902 32.8192162,42 33.0214918,42 C33.2490518,42 33.4766119,41.9242902 33.6788875,41.7981073 L35.5499368,40.5615142 C35.8786346,40.3596215 36.2831858,40.3596215 36.6118837,40.5615142 L38.204804,41.6214511 C38.5587863,41.8485804 39.0139064,41.873817 39.3931732,41.6719243 C39.7724399,41.4700315 40,41.0662461 40,40.637224 L40,18.8832808 C39.9747155,18.4037855 39.5701643,18 39.0897598,18 Z M24.2730721,22.7192429 L29.9620733,22.7192429 C30.3160556,22.7192429 30.619469,22.9968454 30.619469,23.3753943 C30.619469,23.7287066 30.3413401,24.0315457 29.9620733,24.0315457 L24.2730721,24.0315457 C23.9190898,24.0315457 23.6156764,23.7539432 23.6156764,23.3753943 C23.6156764,22.9968454 23.9190898,22.7192429 24.2730721,22.7192429 Z M24.2730721,26.7318612 L29.9620733,26.7318612 C30.3160556,26.7318612 30.619469,27.0094637 30.619469,27.3880126 C30.619469,27.7413249 30.3413401,28.044164 29.9620733,28.044164 L24.2730721,28.044164 C23.9190898,28.044164 23.6156764,27.7665615 23.6156764,27.3880126 C23.6156764,27.0347003 23.9190898,26.7318612 24.2730721,26.7318612 Z M35.6510746,36.044164 L24.2730721,36.044164 C23.9190898,36.044164 23.6156764,35.7665615 23.6156764,35.3880126 C23.6156764,35.0094637 23.8938053,34.7318612 24.2730721,34.7318612 L35.6510746,34.7318612 C36.0050569,34.7318612 36.3084703,35.0094637 36.3084703,35.3880126 C36.3084703,35.7665615 36.0050569,36.044164 35.6510746,36.044164 Z M35.6510746,32.0315457 L24.2730721,32.0315457 C23.9190898,32.0315457 23.6156764,31.7539432 23.6156764,31.3753943 C23.6156764,31.022082 23.8938053,30.7192429 24.2730721,30.7192429 L35.6510746,30.7192429 C36.0050569,30.7192429 36.3084703,30.9968454 36.3084703,31.3753943 C36.2831858,31.7539432 36.0050569,32.0315457 35.6510746,32.0315457 Z M36.0809102,27.6656151 C35.8027813,27.9684543 35.4235145,28.1451104 34.94311,28.1955836 L34.94311,28.8012618 C34.94311,28.8769716 34.8925411,28.9274448 34.8166877,28.9274448 L34.1845765,28.9274448 C34.1087231,28.9274448 34.0581542,28.8769716 34.0581542,28.8012618 L34.0581542,28.170347 C33.4513274,28.0694006 32.920354,27.8170347 32.4399494,27.3880126 C32.3893805,27.3375394 32.3893805,27.2618297 32.4399494,27.2113565 L32.9709229,26.5804416 C33.0214918,26.5299685 33.0973451,26.5299685 33.147914,26.555205 C33.3501896,26.7318612 33.5524652,26.8580442 33.7800253,26.9589905 C34.0581542,27.0599369 34.3109987,27.1356467 34.5385588,27.1356467 C34.7408344,27.1356467 34.9178255,27.0851735 35.0442478,26.9842271 C35.17067,26.8832808 35.2465234,26.7570978 35.2465234,26.6056782 C35.2465234,26.555205 35.2465234,26.4794953 35.2212389,26.4290221 C35.1959545,26.3785489 35.17067,26.3280757 35.1453856,26.2776025 C35.1201011,26.2271293 35.0695322,26.2018927 35.0189633,26.1514196 C34.9683944,26.126183 34.9178255,26.0757098 34.8419722,26.0504732 C34.7661188,26.0252366 34.6902655,25.9747634 34.5891277,25.9495268 C34.5132743,25.9242902 34.3868521,25.873817 34.2857143,25.8485804 C34.1845765,25.8233438 34.0834387,25.7981073 34.0075853,25.7728707 C33.931732,25.7476341 33.8305942,25.7223975 33.7294564,25.6719243 C33.6283186,25.6466877 33.5524652,25.5962145 33.4766119,25.5709779 C33.4007585,25.5457413 33.3249052,25.4952681 33.2490518,25.444795 C33.1731985,25.3943218 33.0973451,25.3438486 33.0467762,25.2933754 C32.9962073,25.2429022 32.920354,25.192429 32.8697851,25.1419558 C32.8192162,25.0914826 32.7686473,25.0157729 32.7180784,24.9400631 C32.6675095,24.8643533 32.642225,24.7886435 32.6169406,24.7129338 C32.5916561,24.637224 32.5663717,24.5362776 32.5410872,24.4605678 C32.5158028,24.3596215 32.5158028,24.2586751 32.5158028,24.1577287 C32.5158028,23.7287066 32.642225,23.3501577 32.920354,23.0473186 C33.1984829,22.7444795 33.5777497,22.5678233 34.0581542,22.5173502 L34.0581542,21.9116719 C34.0581542,21.8359621 34.1087231,21.785489 34.1845765,21.785489 L34.8166877,21.785489 C34.8925411,21.785489 34.94311,21.8359621 34.94311,21.9116719 L34.94311,22.6435331 C35.1959545,22.6940063 35.448799,22.7949527 35.7269279,22.8958991 C35.9292035,22.9968454 36.1314791,23.0977918 36.2831858,23.2239748 C36.3337547,23.2744479 36.3590392,23.3501577 36.3084703,23.4006309 L35.8027813,24.0315457 C35.7522124,24.0820189 35.676359,24.0820189 35.6257901,24.0567823 C35.2212389,23.7791798 34.8166877,23.6529968 34.4121365,23.6529968 C34.2098609,23.6529968 34.0328698,23.70347 33.9064475,23.7791798 C33.7800253,23.8548896 33.7294564,23.9810726 33.7294564,24.1324921 C33.7294564,24.2839117 33.8053097,24.4100946 33.931732,24.4858044 C34.0581542,24.5867508 34.2857143,24.6876972 34.6144121,24.7886435 C34.7661188,24.8391167 34.8672566,24.8643533 34.9683944,24.9148265 C35.0695322,24.9400631 35.17067,24.9905363 35.2970923,25.0410095 C35.4235145,25.0914826 35.5246523,25.1167192 35.6005057,25.1671924 C35.676359,25.2176656 35.7774968,25.2681388 35.8533502,25.318612 C35.954488,25.3690852 36.0050569,25.4195584 36.0809102,25.4952681 C36.1314791,25.5457413 36.2073325,25.6214511 36.2579014,25.6971609 C36.3084703,25.7728707 36.3590392,25.8485804 36.3843236,25.9495268 C36.4096081,26.0252366 36.4348925,26.126183 36.460177,26.2271293 C36.4854614,26.3280757 36.4854614,26.4542587 36.4854614,26.5804416 C36.4854614,27.0094637 36.3590392,27.362776 36.0809102,27.6656151 Z" id="Shape" fill="#FFFFFF"></path>
            </g>
        </g>
    </g>
</svg>