<?xml version="1.0" encoding="UTF-8"?>
<svg width="100px" height="100px" viewBox="0 0 100 100" version="1.1" xmlns="http://www.w3.org/2000/svg" xmlns:xlink="http://www.w3.org/1999/xlink">
    <!-- Generator: Sketch 60.1 (88133) - https://sketch.com -->
    <title>Group 3</title>
    <desc>Created with Sketch.</desc>
    <g id="Desktop" stroke="none" stroke-width="1" fill="none" fill-rule="evenodd">
        <g id="10A.-Partial-Delivery---Desktop" transform="translate(-300.000000, -188.000000)" fill-rule="nonzero">
            <g id="Group-3" transform="translate(300.000000, 188.000000)">
                <circle id="Oval-2" fill="#D88350" cx="50" cy="50" r="50"></circle>
                <path d="M67.8719739,37.5884515 L65.7496336,34.0477904 C65.6424988,33.8698136 65.4507275,33.7603308 65.2444931,33.7603308 L52.5329496,33.7603308 C52.3256438,33.7603308 52.1349439,33.8698136 52.0283447,34.0477904 L49.8674359,37.652631 C49.8572581,37.6693501 49.8529727,37.6876871 49.8449376,37.7054848 C49.8374382,37.7211252 49.8304744,37.7362262 49.824582,37.7529453 C49.8004767,37.8187428 49.7838708,37.8866976 49.7838708,37.955731 C49.7838708,37.9568097 49.7833351,37.9584277 49.7833351,37.9595063 L49.7833351,41.2450672 L45.2981369,37.1041387 L45.2970655,37.107914 C44.4351661,35.6263913 42.8051102,34.7607766 41.058813,34.982978 C38.6927411,35.2828421 37.0171529,37.4563172 37.314452,39.8379713 L39.3055521,54.3732883 L39.3323358,54.369513 L33.2031542,69.8588939 C32.6337328,71.3150683 33.3049322,72.8715569 34.6719722,73.4135774 C35.9993723,73.9404968 37.4912244,73.3154204 38.0702879,72.0205039 L43.5946937,58.3588915 L46.0191541,71.9417626 C46.3464509,73.3235103 47.6947423,74.2187879 49.0966011,73.9534405 C50.5407781,73.679464 51.4905281,72.2783007 51.2028711,70.7396097 L47.849552,53.1964836 L47.8302678,53.1943263 L46.6833898,44.8056832 L49.7822637,47.5427517 L49.7822637,50.9528964 C49.7822637,51.2808053 50.0468867,51.5472313 50.3725765,51.5472313 L67.4043305,51.5472313 C67.7294846,51.5472313 67.9946433,51.2813447 67.9946433,50.9528964 L67.9946433,37.9859332 C67.9951789,37.9767647 68,37.9692141 68,37.9600456 C67.9994643,37.8192821 67.9517893,37.6903837 67.8719739,37.5884515 Z M59.4784984,34.9484613 L64.9118395,34.9484613 L66.3597663,37.3657108 L59.4784984,37.3657108 L59.4784984,34.9484613 Z M52.8645318,34.9484613 L58.2978729,34.9484613 L58.2978729,37.3657108 L51.4166051,37.3657108 L52.8645318,34.9484613 Z M66.8134821,50.3591009 L50.9623535,50.3591009 L50.9623535,48.5599165 L59.1297746,48.5599165 L59.3858268,48.5582986 C60.7534025,48.532411 61.7808251,47.4580779 61.7561841,46.1577681 C61.7326145,44.8957503 60.7266188,43.8872147 59.4865335,43.8516193 L52.6052656,43.8516193 L50.9628892,42.3350407 L50.9628892,38.5533019 L66.8140178,38.5533019 L66.8140178,50.3591009 L66.8134821,50.3591009 Z M44.1271536,34.2910255 C46.4010896,34.2910255 48.2443438,32.4352121 48.2443438,30.1452431 C48.2443438,27.8563527 46.4016253,26 44.1271536,26 C41.8532176,26 40.0094277,27.8563527 40.0094277,30.1457824 C40.0099634,32.4352121 41.8537532,34.2910255 44.1271536,34.2910255 Z" id="Shape" fill="#FFFFFF"></path>
            </g>
        </g>
    </g>
</svg>