<?xml version="1.0" encoding="UTF-8"?>
<svg width="39px" height="40px" viewBox="0 0 39 40" version="1.1" xmlns="http://www.w3.org/2000/svg" xmlns:xlink="http://www.w3.org/1999/xlink">
    <!-- Generator: Sketch 60.1 (88133) - https://sketch.com -->
    <title>instagram</title>
    <desc>Created with Sketch.</desc>
    <defs>
        <polygon id="path-1" points="19.3942125 0.271219512 0.0585 0.271219512 0.0585 39.0253659 38.729925 39.0253659 38.729925 0.271219512 19.3942125 0.271219512"></polygon>
    </defs>
    <g id="Desktop" stroke="none" stroke-width="1" fill="none" fill-rule="evenodd">
        <g id="6A.-Order-Confirmation---COD---Desktop" transform="translate(-393.000000, -3071.000000)">
            <g id="Group-13" transform="translate(80.000000, 3014.000000)">
                <g id="Group-12" transform="translate(188.000000, 57.000000)">
                    <g id="instagram" transform="translate(125.000000, 0.000000)">
                        <path d="M23.2401,19.6468293 C23.2401,18.8039024 22.966125,18.0234146 22.50885,17.3863415 C21.803925,16.4107317 20.6583,15.7707317 19.362525,15.7707317 C18.071625,15.7707317 16.925025,16.4068293 16.221075,17.3863415 C15.7599,18.0234146 15.489825,18.8039024 15.485925,19.6468293 C15.485925,21.7882927 17.2263,23.5258537 19.362525,23.5258537 C21.499725,23.5258537 23.2401,21.7882927 23.2401,19.6468293 Z" id="Fill-1" fill="#D88350"></path>
                        <g id="Group-5">
                            <mask id="mask-2" fill="white">
                                <use xlink:href="#path-1"></use>
                            </mask>
                            <g id="Clip-3"></g>
                            <polygon id="Fill-2" fill="#D88350" mask="url(#mask-2)" points="27.829425 14.9014634 27.829425 11.1668293 27.341925 11.1668293 24.093225 11.1785366 24.108825 14.9131707"></polygon>
                            <path d="M19.362525,0.271219512 C8.68725,0.271219512 0,8.96487805 0,19.6468293 C0,30.3326829 8.68725,39.0253659 19.362525,39.0253659 C30.0417,39.0253659 38.729925,30.3326829 38.729925,19.6468293 C38.729925,8.96487805 30.0417,0.271219512 19.362525,0.271219512 L19.362525,0.271219512 Z M30.3771,17.3863415 L30.3771,26.4107317 C30.3771,28.7590244 28.469025,30.6682927 26.119275,30.6682927 L12.60675,30.6682927 C10.259925,30.6682927 8.35185,28.7590244 8.35185,26.4107317 L8.35185,12.8897561 C8.35185,10.5385366 10.259925,8.62926829 12.60675,8.62926829 L26.119275,8.62926829 C28.469025,8.62926829 30.3771,10.5385366 30.3771,12.8897561 L30.3771,17.3863415 Z" id="Fill-4" fill="#D88350" mask="url(#mask-2)"></path>
                        </g>
                        <path d="M25.388025,19.6468293 C25.388025,22.9697561 22.68825,25.675122 19.362525,25.675122 C16.041675,25.675122 13.3419,22.9697561 13.3419,19.6468293 C13.3419,18.8497561 13.5018,18.0839024 13.783575,17.3863415 L10.49685,17.3863415 L10.49685,26.4107317 C10.49685,27.577561 11.44065,28.5190244 12.60675,28.5190244 L26.119275,28.5190244 C27.2844,28.5190244 28.229175,27.577561 28.229175,26.4107317 L28.229175,17.3863415 L24.94245,17.3863415 C25.224225,18.0839024 25.388025,18.8497561 25.388025,19.6468293 L25.388025,19.6468293 Z" id="Fill-6" fill="#D88350"></path>
                    </g>
                </g>
            </g>
        </g>
    </g>
</svg>