<?xml version="1.0" encoding="UTF-8"?>
<svg width="12px" height="12px" viewBox="0 0 12 12" version="1.1" xmlns="http://www.w3.org/2000/svg" xmlns:xlink="http://www.w3.org/1999/xlink">
    <!-- Generator: Sketch 60.1 (88133) - https://sketch.com -->
    <title>Shape</title>
    <desc>Created with Sketch.</desc>
    <g id="Desktop" stroke="none" stroke-width="1" fill="none" fill-rule="evenodd">
        <g id="6A.-Order-Confirmation---COD---Desktop" transform="translate(-293.000000, -871.000000)" fill="#D88350" fill-rule="nonzero">
            <g id="Group-7" transform="translate(293.000000, 868.000000)">
                <path d="M0.217650949,7.08148813 C0.217650949,7.08148813 0.510381555,8.26645309 1.5934848,9.59771001 C2.44240356,10.6510122 4.02314883,12.421145 5.60389411,13.5475932 C6.89190877,14.4692326 7.9164659,14.7764457 7.9164659,14.7764457 C8.85320384,15.1714341 9.48257464,14.9227377 9.48257464,14.9227377 C9.93630708,14.7910749 10.3461299,14.4838618 10.7120432,14.1912779 C11.121866,13.8548063 11.5170524,13.4890764 11.8536926,13.0940881 C11.9707848,12.9477961 12.0293309,12.8161333 11.9854213,12.6259538 C11.8244195,12.2602239 10.6827701,11.2215509 10.375403,10.9728545 C10.155855,10.7973042 9.95094361,10.6071246 9.71675912,10.4608326 C9.61430341,10.4023158 9.5118477,10.3437991 9.40939199,10.3145407 C9.1752075,10.2706531 9.01420567,10.490091 8.86784037,10.636383 C8.58974629,10.9143377 8.10674079,11.60191 7.79937365,11.6896852 C7.49200652,11.7920896 6.62845123,11.2215509 6.35035715,10.9874837 C5.42825574,10.2267655 4.44760821,9.27586768 4.0085123,8.64681221 C3.80360088,8.35422827 3.20350313,7.50573484 3.30595885,7.19852171 C3.39377803,6.90593777 4.08169495,6.40854507 4.35978903,6.13059033 C4.50615433,5.98429836 4.72570229,5.83800639 4.6817927,5.58931004 C4.66715617,5.47227646 4.60861004,5.36987209 4.53542739,5.2820969 C4.38906209,5.04802975 4.1987872,4.8285918 4.02314883,4.62378304 C3.77432782,4.3165699 2.73513416,3.17549254 2.36922091,3.01457137 C2.19358254,2.97068378 2.04721724,3.02920057 1.90085194,3.14623414 C1.49102909,3.48270568 1.12511583,3.87769399 0.803112162,4.28731151 C0.510381555,4.65304143 0.203014419,5.06265895 0.0712856459,5.51616405 C0.0712856459,5.53079325 -0.162898839,6.15984872 0.217650949,7.08148813 Z" id="Shape"></path>
            </g>
        </g>
    </g>
</svg>