<?xml version="1.0" encoding="UTF-8"?>
<svg width="100px" height="100px" viewBox="0 0 100 100" version="1.1" xmlns="http://www.w3.org/2000/svg" xmlns:xlink="http://www.w3.org/1999/xlink">
    <!-- Generator: Sketch 60.1 (88133) - https://sketch.com -->
    <title>Group 8</title>
    <desc>Created with Sketch.</desc>
    <g id="Desktop" stroke="none" stroke-width="1" fill="none" fill-rule="evenodd">
        <g id="6A.-Order-Confirmation---COD---Desktop" transform="translate(-300.000000, -188.000000)">
            <g id="Group-8" transform="translate(300.000000, 188.000000)">
                <circle id="Oval-2" fill="#D88350" fill-rule="nonzero" cx="50" cy="50" r="50"></circle>
                <g id="Group-3" transform="translate(26.000000, 29.000000)" fill="#FFFFFF">
                    <g id="Cart">
                        <path d="M17.4469565,26.67 L38.3165217,26.67 C39.5701958,26.6707619 40.7034101,25.918827 41.1965217,24.759 L47.4573913,10.059 C47.8712787,9.08551409 47.7714304,7.96791549 47.191628,7.08432084 C46.6118256,6.20072619 45.6296467,5.66936032 44.5773913,5.67 L10.1426087,5.67 C9.5406865,5.67781164 8.9537674,5.86009169 8.45217391,6.195 L6.36521739,1.365 C6.11699664,0.792691524 5.55620876,0.421988223 4.93565217,0.42 L1.80521739,0.42 C0.940771696,0.42 0.24,1.12515152 0.24,1.995 C0.24,2.86484848 0.940771696,3.57 1.80521739,3.57 L3.89217391,3.57 L13.4191304,25.473 C14.5989451,29.0252284 14.1637845,32.9200582 12.2295652,36.12 C12.2270663,38.2569874 13.5120648,40.1822509 15.478896,40.9883464 C17.4457272,41.7944419 19.7018545,41.3204903 21.183886,39.7898816 C22.6659175,38.2592729 23.0780721,35.9774833 22.226087,34.02 L33.5478261,34.02 C32.627321,36.1427387 33.1979105,38.6216583 34.9521378,40.1210163 C36.706365,41.6203742 39.2297465,41.7859067 41.1625818,40.5284182 C43.0954172,39.2709297 43.981022,36.8875357 43.3421963,34.6625056 C42.7033707,32.4374756 40.6910544,30.8965329 38.3895652,30.87 L17.6973913,30.87 L17.6973913,30.87 L17.4886957,30.87 C16.3361014,30.87 15.4017391,29.929798 15.4017391,28.77 C15.4017391,27.610202 16.3361014,26.67 17.4886957,26.67 L17.4469565,26.67 Z M44.5773913,8.82 L38.3165217,23.52 L16.4034783,23.52 L10.1426087,8.82 L44.5773913,8.82 Z M19.533913,36.12 C19.533913,37.279798 18.5995508,38.22 17.4469565,38.22 C16.2943623,38.22 15.36,37.279798 15.36,36.12 C15.36,34.960202 16.2943623,34.02 17.4469565,34.02 C18.5995508,34.02 19.533913,34.960202 19.533913,36.12 Z M40.4034783,36.12 C40.4034783,37.279798 39.469116,38.22 38.3165217,38.22 C37.1639275,38.22 36.2295652,37.279798 36.2295652,36.12 C36.2295652,34.960202 37.1639275,34.02 38.3165217,34.02 C39.469116,34.02 40.4034783,34.960202 40.4034783,36.12 Z" id="Shape"></path>
                    </g>
                    <path d="M31.8019386,12.3580927 L26.5969386,17.5630927 L24.3919386,15.3580927 C23.9486739,14.9450544 23.257924,14.9572419 22.8295059,15.38566 C22.4010878,15.8140781 22.3889003,16.504828 22.8019386,16.9480927 L25.8019386,19.9480927 C26.2411649,20.3867727 26.9527122,20.3867727 27.3919386,19.9480927 L33.3919386,13.9480927 C33.6929183,13.6676368 33.8168123,13.2452594 33.7150169,12.8466593 C33.6132214,12.4480593 33.301972,12.1368098 32.9033719,12.0350144 C32.5047719,11.9332189 32.0823944,12.0571129 31.8019386,12.3580927 L31.8019386,12.3580927 Z" id="Shape"></path>
                </g>
            </g>
        </g>
    </g>
</svg>