<?xml version="1.0" encoding="UTF-8"?>
<svg width="100px" height="100px" viewBox="0 0 100 100" version="1.1" xmlns="http://www.w3.org/2000/svg" xmlns:xlink="http://www.w3.org/1999/xlink">
    <!-- Generator: Sketch 60.1 (88133) - https://sketch.com -->
    <title>Group</title>
    <desc>Created with Sketch.</desc>
    <g id="Desktop" stroke="none" stroke-width="1" fill="none" fill-rule="evenodd">
        <g id="9A.-Payment-Pending---Desktop" transform="translate(-300.000000, -188.000000)" fill-rule="nonzero">
            <g id="Group" transform="translate(300.000000, 188.000000)">
                <circle id="Oval-2" fill="#D88350" cx="50" cy="50" r="50"></circle>
                <path d="M60.701,58.735 C60.701,59.297 61.159,59.756 61.722,59.756 C62.286,59.756 62.744,59.298 62.744,58.735 C62.744,58.172 62.286,57.714 61.722,57.714 C61.159,57.714 60.701,58.172 60.701,58.735 Z M63.969,58.735 C63.969,59.297 64.427,59.756 64.99,59.756 C65.554,59.756 66.011,59.298 66.011,58.735 C66.011,58.172 65.555,57.714 64.99,57.714 C64.427,57.714 63.969,58.172 63.969,58.735 Z M67.135,58.735 C67.135,59.297 67.592,59.756 68.156,59.756 C68.719,59.756 69.177,59.298 69.177,58.735 C69.177,58.172 68.72,57.714 68.156,57.714 C67.592,57.714 67.135,58.172 67.135,58.735 Z M28.532,42.803 L64.072,42.803 L64.072,49.669 C59.656,49.985 56.108,53.44 55.646,57.816 L29.888,57.816 C28.914,57.816 28.532,57.432 28.532,56.46 L28.532,42.803 Z M64.071,37.289 L28.532,37.289 L28.532,35.888 C28.532,34.913 28.914,34.532 29.888,34.532 L62.715,34.532 C63.69,34.532 64.071,34.914 64.071,35.888 L64.071,37.289 Z M29.059,33 C27.922,33 27,33.921 27,35.059 L27,57.288 C27,58.425 27.922,59.347 29.059,59.347 L55.611,59.347 C55.902,64.133 59.876,67.925 64.734,67.925 C69.783,67.925 73.875,63.833 73.875,58.786 C73.875,54.03 70.244,50.124 65.604,49.686 L65.604,35.059 C65.604,33.922 64.681,33 63.545,33 L29.059,33 Z M57.331,58.887 C57.331,54.743 60.691,51.382 64.837,51.382 C68.983,51.382 72.343,54.743 72.343,58.887 C72.343,63.033 68.983,66.395 64.837,66.395 C60.691,66.395 57.331,63.032 57.331,58.887 Z" id="Shape" fill="#FFFFFF"></path>
            </g>
        </g>
    </g>
</svg>