<?xml version="1.0" encoding="UTF-8"?>
<svg width="100px" height="100px" viewBox="0 0 100 100" version="1.1" xmlns="http://www.w3.org/2000/svg" xmlns:xlink="http://www.w3.org/1999/xlink">
    <!-- Generator: Sketch 60.1 (88133) - https://sketch.com -->
    <title>Group 2</title>
    <desc>Created with Sketch.</desc>
    <g id="Desktop" stroke="none" stroke-width="1" fill="none" fill-rule="evenodd">
        <g id="18.-Referal-Received---Mobile" transform="translate(-130.000000, -124.000000)" fill-rule="nonzero">
            <g id="Group-2" transform="translate(130.000000, 124.000000)">
                <circle id="Oval-2" fill="#D88350" cx="50" cy="50" r="50"></circle>
                <path d="M74.8369191,45.033189 C74.8047517,44.9688264 74.7677603,44.9069551 74.726257,44.8480975 L74.6505408,44.7902564 C74.6073845,44.73889 74.5606769,44.6905721 74.5107572,44.6456537 L74.4699869,44.605165 L68.3661001,39.5845596 L68.3661001,36.9354383 C68.3628893,33.5825618 65.6267507,30.8653139 62.2505646,30.8621253 L57.7716629,30.8621253 L52.9141804,26.8595228 C51.5137757,25.7134924 49.4920487,25.7134924 48.0916439,26.8595228 L43.2341614,30.8447729 L38.7552597,30.8447729 C35.3790736,30.8479616 32.6429351,33.5652095 32.6397242,36.9180859 L32.6397242,39.5845596 L26.5300131,44.5762445 L26.4892428,44.6167332 C26.4393363,44.661665 26.3926295,44.709982 26.3494592,44.7613359 L26.2795673,44.8423134 C26.2381007,44.9011945 26.2011109,44.963063 26.1689053,45.0274049 L26.128135,45.1025983 C26.0453741,45.2844512 26.0017324,45.4814529 26,45.681009 L26,67.926687 C26.0032108,71.2795635 28.7393494,73.9968113 32.1155355,74 L68.8844645,74 C72.2606506,73.9968113 74.9967892,71.2795635 75,67.926687 L75,45.6925772 C74.9980976,45.4930402 74.9544635,45.2960729 74.871865,45.1141665 L74.8369191,45.033189 Z M68.3661001,43.2979567 L71.190895,45.6115997 L68.3661001,47.7054467 L68.3661001,43.2979567 Z M49.9204802,29.1095406 C50.2433797,28.8447895 50.7100257,28.8447895 51.0329252,29.1095406 L53.1704505,30.8447729 L47.8062522,30.8447729 L49.9204802,29.1095406 Z M46.2802805,44.8770181 L49.0468323,44.8770181 L49.0468323,42.1295669 C49.0468323,41.3309483 49.6987414,40.68354 50.5029122,40.68354 C51.3070829,40.68354 51.958992,41.3309483 51.958992,42.1295669 L51.958992,44.8770181 L54.7255438,44.8770181 C55.5297145,44.8770181 56.1816237,45.5244264 56.1816237,46.323045 C56.1816237,47.1216636 55.5297145,47.7690719 54.7255438,47.7690719 L51.958992,47.7690719 L51.958992,50.516523 C51.958992,51.3151416 51.3070829,51.9625499 50.5029122,51.9625499 C49.6987414,51.9625499 49.0468323,51.3151416 49.0468323,50.516523 L49.0468323,47.7690719 L46.2802805,47.7690719 C45.4761098,47.7690719 44.8242006,47.1216636 44.8242006,46.323045 C44.8242006,45.5244264 45.4761098,44.8770181 46.2802805,44.8770181 L46.2802805,44.8770181 Z M32.6397242,43.315309 L32.6397242,47.7285831 L29.8149293,45.6347362 L32.6397242,43.315309 Z M72.0878402,67.926687 C72.0846347,69.6823276 70.6523106,71.1047628 68.8844645,71.1079462 L32.1213598,71.1079462 C30.3535137,71.1047628 28.9211896,69.6823276 28.9179841,67.926687 L28.9179841,48.5730628 L32.9950077,51.5807988 C33.1502583,51.767999 33.3505952,51.9132352 33.5774397,52.0030387 L48.2372519,62.8829451 C49.582262,63.8693097 51.417738,63.8693097 52.7627481,62.8829451 L67.4575062,52.0088228 C67.6843508,51.9190193 67.8846876,51.7737831 68.0399382,51.5865829 L72.1169618,48.5788469 L72.0878402,67.926687 Z" id="Shape" fill="#FFFFFF"></path>
            </g>
        </g>
    </g>
</svg>