<?xml version="1.0" encoding="UTF-8"?>
<svg width="100px" height="100px" viewBox="0 0 100 100" version="1.1" xmlns="http://www.w3.org/2000/svg" xmlns:xlink="http://www.w3.org/1999/xlink">
    <!-- Generator: Sketch 60.1 (88133) - https://sketch.com -->
    <title>Group 8</title>
    <desc>Created with Sketch.</desc>
    <g id="Desktop" stroke="none" stroke-width="1" fill="none" fill-rule="evenodd">
        <g id="15.-Return-Initiated---Mobile" transform="translate(-130.000000, -124.000000)" fill-rule="nonzero">
            <g id="Group-8" transform="translate(130.000000, 124.000000)">
                <circle id="Oval-2" fill="#D88350" cx="50" cy="50" r="50"></circle>
                <g id="Group" transform="translate(26.000000, 26.000000)" fill="#FFFFFF">
                    <path d="M28.3975385,11.511033 L24.2146813,9.49767033 C24.0938901,9.43912088 23.9514725,9.43912088 23.8296264,9.49767033 L11.9425055,15.2086154 C11.789011,15.2824615 11.6909011,15.4375385 11.6909011,15.608967 C11.6909011,15.7793407 11.7884835,15.9344176 11.941978,16.0087912 L16.1248352,18.0232088 C16.1865495,18.0527473 16.251956,18.0675165 16.3184176,18.0675165 C16.3838242,18.0675165 16.4502857,18.0522198 16.5109451,18.0232088 L28.3975385,12.3117363 C28.5520879,12.2378901 28.6491429,12.0817582 28.6491429,11.9113846 C28.6486154,11.739956 28.5520879,11.5848791 28.3975385,11.511033 Z" id="Shape"></path>
                    <path d="M9.90276923,17.6708571 C9.77353846,17.7520879 9.69494505,17.8945055 9.69494505,18.0469451 L9.69494505,31.239033 C9.69494505,31.4099341 9.79252747,31.565011 9.94654945,31.6393846 L22.2973187,37.5861099 C22.357978,37.6156484 22.4244396,37.6288352 22.4898462,37.6288352 C22.5726593,37.6288352 22.6544176,37.6061538 22.7266813,37.5618462 C22.8559121,37.4811429 22.9345055,37.3381978 22.9345055,37.1857582 L22.9345055,23.9936703 C22.9345055,23.8232967 22.8369231,23.6671648 22.6829011,23.5933187 L10.3316044,17.6471209 C10.1944615,17.5806593 10.0325275,17.5890989 9.90276923,17.6708571 Z M12.8534505,23.931956 C13.0317363,23.5600879 13.4141538,23.319033 13.8266374,23.319033 C13.9901538,23.319033 14.1473407,23.355956 14.2976703,23.4287473 L18.8487033,25.6172308 C19.1087473,25.7422418 19.3044396,25.9611429 19.3993846,26.2349011 C19.4948571,26.5070769 19.4785055,26.8008791 19.352967,27.0625055 C19.1061099,27.5778462 18.4430769,27.8257582 17.9098022,27.5657143 L13.3587692,25.3767033 C13.0987253,25.2527473 12.9035604,25.0343736 12.8075604,24.7616703 C12.711033,24.488967 12.7273846,24.1946374 12.8534505,23.931956 Z" id="Shape"></path>
                    <path d="M25.1008352,23.9941978 L25.1008352,37.1862857 C25.1008352,37.3387253 25.1789011,37.4816703 25.3086593,37.5623736 C25.3803956,37.6066813 25.4626813,37.6293626 25.544967,37.6293626 C25.6103736,37.6293626 25.6768352,37.6161758 25.7374945,37.5866374 L38.0893187,31.6399121 C38.2433407,31.5655385 38.3409231,31.4104615 38.3409231,31.2395604 L38.3409231,18.0548571 C38.3409231,17.9013626 38.2628571,17.7594725 38.1330989,17.6782418 C38.0043956,17.597011 37.8408791,17.588044 37.7042637,17.6534505 L25.3519121,23.5933187 C25.1978901,23.6676923 25.1008352,23.8238242 25.1008352,23.9941978 Z" id="Shape"></path>
                    <path d="M36.0954725,15.2191648 L31.92,13.2079121 C31.7986813,13.1493626 31.6567912,13.1493626 31.5349451,13.2079121 L19.6462418,18.9183297 C19.4927473,18.9921758 19.3941099,19.1472527 19.3941099,19.3186813 C19.3941099,19.4890549 19.4922198,19.6451868 19.6462418,19.7185055 L23.8254066,21.7297582 C23.8860659,21.7587692 23.9514725,21.7740659 24.0179341,21.7740659 C24.0838681,21.7740659 24.1498022,21.7587692 24.2104615,21.7297582 L36.0954725,16.0193407 C36.2494945,15.9454945 36.3476044,15.7904176 36.3476044,15.618989 C36.3470769,15.4491429 36.2494945,15.2940659 36.0954725,15.2191648 Z" id="Shape"></path>
                    <path d="M3.15375824,33.4554725 C3.29142857,33.4554725 3.43173626,33.4296264 3.56782418,33.3752967 C4.13696703,33.1453187 4.41230769,32.4991648 4.18338462,31.9294945 C0.647208791,23.1470769 3.23076923,13.2516923 10.6116923,7.30707692 C18.2811429,1.12826374 28.9545495,1.13142857 36.5707253,6.65406593 L34.4724396,8.34303297 C34.1216703,8.62523077 33.9766154,9.09046154 34.1032088,9.52140659 C34.2292747,9.95182418 34.6032527,10.2656703 35.050022,10.3131429 L41.4661978,11.0030769 C41.5062857,11.0072967 41.5458462,11.0099341 41.586989,11.0099341 C42.1466374,11.0099341 42.6282198,10.587956 42.6894066,10.0182857 L43.3814505,3.60474725 C43.429978,3.15797802 43.2036923,2.72597802 42.8096703,2.5112967 C42.4151209,2.29503297 41.9309011,2.33723077 41.5801319,2.62101099 L38.3588571,5.21459341 C29.9224615,-1.23956044 17.8475604,-1.37564835 9.21810989,5.57643956 C1.07024176,12.1392527 -1.78074725,23.0632088 2.12254945,32.7586813 C2.29714286,33.1922637 2.71384615,33.4554725 3.15375824,33.4554725 Z" id="Shape"></path>
                    <path d="M45.8273407,14.9174505 C45.5926154,14.3514725 44.9432967,14.082989 44.3746813,14.3177143 C43.8081758,14.552967 43.5396923,15.2028132 43.7744176,15.7687912 C47.3854945,24.469978 44.7760879,34.6807912 37.4305055,40.5995604 C29.7610549,46.7778462 19.0876484,46.7736264 11.4704176,41.2504615 L13.5671209,39.5614945 C13.9173626,39.2803516 14.0624176,38.8145934 13.9358242,38.3847033 C13.8092308,37.9532308 13.4357802,37.6404396 12.9895385,37.5924396 L6.57441758,36.8998681 C6.2763956,36.8666374 5.9883956,36.9541978 5.75841758,37.1393407 C5.52896703,37.323956 5.38285714,37.5924396 5.35120879,37.8857143 L4.66021978,44.3003077 C4.61169231,44.7465495 4.83745055,45.1785495 5.23147253,45.3932308 C5.39868132,45.483956 5.58171429,45.5298462 5.76421978,45.5298462 C6.01265934,45.5298462 6.25951648,45.4465055 6.46153846,45.2835165 L9.68281319,42.6899341 C13.8646154,45.8890549 18.9378462,47.540044 24.0458901,47.5384627 C29.242022,47.5384627 34.4719121,45.8352527 38.8240879,42.3296703 C46.933978,35.7963956 49.8134505,24.5243077 45.8273407,14.9174505 Z" id="Shape"></path>
                </g>
            </g>
        </g>
    </g>
</svg>