<?xml version="1.0" encoding="UTF-8"?>
<svg width="60px" height="60px" viewBox="0 0 60 60" version="1.1" xmlns="http://www.w3.org/2000/svg" xmlns:xlink="http://www.w3.org/1999/xlink">
    <!-- Generator: Sketch 60.1 (88133) - https://sketch.com -->
    <title>Group 9</title>
    <desc>Created with Sketch.</desc>
    <g id="Desktop" stroke="none" stroke-width="1" fill="none" fill-rule="evenodd">
        <g id="6A.-Order-Confirmation---COD---Desktop" transform="translate(-320.000000, -742.000000)" fill-rule="nonzero">
            <g id="Group-9" transform="translate(320.000000, 742.000000)">
                <circle id="Oval" fill="#E9C0A8" cx="30" cy="30" r="30"></circle>
                <g id="Group" transform="translate(18.000000, 18.000000)" fill="#FFFFFF" stroke="#FFFFFF" stroke-width="0.666666667">
                    <rect id="Rectangle-path" x="0" y="12.9836066" width="2.4" height="1"></rect>
                    <rect id="Rectangle-path" x="0" y="16.1311475" width="3.2" height="1"></rect>
                    <rect id="Rectangle-path" x="0" y="19.2786885" width="3.6" height="1"></rect>
                    <path d="M3.2156,11.52 L5.212,19.3742951 C5.25658364,19.5493499 5.41652825,19.6721264 5.6,19.6721311 L7.6,19.6721311 L7.6,20.6777705 C7.01829543,21.0068919 6.70829062,21.6589829 6.82446891,22.3090899 C6.9406472,22.9591969 7.4581498,23.4682159 8.11909193,23.5824896 C8.78003405,23.6967633 9.44299325,23.3918406 9.7776,22.8196721 L11.4224,22.8196721 C11.7046223,23.3062779 12.2304447,23.6066711 12.8,23.6066711 C13.3695553,23.6066711 13.8953777,23.3062779 14.1776,22.8196721 L21.2,22.8196721 C21.4209139,22.8196721 21.6,22.6435219 21.6,22.4262295 L21.6,9.04918033 L23.6,9.04918033 C23.7649864,9.04905044 23.912965,8.94929616 23.9726185,8.79799328 C24.032272,8.6466904 23.9913601,8.47488487 23.8696,8.36537705 L20.4,5.24931148 L20.4,1.18032787 C20.4,0.963035508 20.2209139,0.786885246 20,0.786885246 L17.6,0.786885246 C17.3790861,0.786885246 17.2,0.963035508 17.2,1.18032787 L17.2,2.37521311 L14.6696,0.103081967 C14.5168741,-0.0339769994 14.2831259,-0.0339769994 14.1304,0.103081967 L4.9304,8.36537705 C4.80863991,8.47488487 4.76772803,8.6466904 4.82738153,8.79799328 C4.88703502,8.94929616 5.03501355,9.04905044 5.2,9.04918033 L7.6,9.04918033 L7.6,11.0163934 L3.8884,11.0163934 L3.1796,8.92485246 C3.12517123,8.76411433 2.97224296,8.65569691 2.8,8.6557377 L0,8.6557377 L0,9.44262295 L2.5116,9.44262295 L3.2156,11.52 Z M8.4,22.8196721 C8.01631883,22.8165139 7.68894792,22.5458586 7.61979489,22.1746343 C7.55064186,21.8034099 7.7591832,21.4361692 8.1168,21.2994098 C8.122,21.2994098 8.128,21.2974426 8.1332,21.2954754 C8.17746157,21.2801341 8.22277574,21.2679066 8.2688,21.2588852 C8.312088,21.2509613 8.35597479,21.2466183 8.4,21.2459016 C8.8418278,21.2459016 9.2,21.5982022 9.2,22.0327869 C9.1992714,22.0760904 9.19485596,22.1192577 9.1868,22.1618361 C9.1776283,22.2071058 9.16519698,22.2516771 9.1496,22.2952131 C9.1496,22.3003279 9.1472,22.3062295 9.1456,22.3117377 C9.02807535,22.6166524 8.73152511,22.818675 8.4,22.8196721 L8.4,22.8196721 Z M10,22.0327869 C10,21.1636174 9.2836556,20.4590164 8.4,20.4590164 L8.4,19.6721311 L12.4,19.6721311 L12.4,20.5148852 C11.6957259,20.6937416 11.2027259,21.3173462 11.2,22.0327869 L10,22.0327869 Z M12.8,22.8196721 C12.4684749,22.818675 12.1719247,22.6166524 12.0544,22.3117377 C12.0544,22.3062295 12.0524,22.3003279 12.0504,22.2952131 C12.034803,22.2516771 12.0223717,22.2071058 12.0132,22.1618361 C12.005144,22.1192577 12.0007286,22.0760904 12,22.0327869 C12,21.5982022 12.3581722,21.2459016 12.8,21.2459016 C13.2418278,21.2459016 13.6,21.5982022 13.6,22.0327869 C13.5992714,22.0760904 13.594856,22.1192577 13.5868,22.1618361 C13.5776283,22.2071058 13.565197,22.2516771 13.5496,22.2952131 C13.5476,22.3003279 13.5472,22.3062295 13.5456,22.3117377 C13.4280753,22.6166524 13.1315251,22.818675 12.8,22.8196721 L12.8,22.8196721 Z M8,8.26229508 L6.2312,8.26229508 L14.4,0.926163934 L17.3304,3.5575082 C17.4476324,3.66271619 17.6170108,3.6898067 17.7620926,3.62655345 C17.9071744,3.56330019 18.0005195,3.42166664 18,3.26557377 L18,1.57377049 L19.6,1.57377049 L19.6,5.42281967 C19.6000822,5.53332405 19.6474064,5.63870039 19.7304,5.71318033 L22.5688,8.26229508 L21.2,8.26229508 C20.9790861,8.26229508 20.8,8.43844534 20.8,8.6557377 L20.8,22.0327869 L14.4,22.0327869 C14.3972741,21.3173462 13.9042741,20.6937416 13.2,20.5148852 L13.2,19.6721311 L15.2,19.6721311 C15.3699307,19.6721929 15.521353,19.5666411 15.5776,19.408918 L18.3776,11.5400656 C18.4205325,11.4196781 18.4014536,11.2862884 18.3264177,11.1822254 C18.2513819,11.0781624 18.1297053,11.0163463 18,11.0163934 L8.4,11.0163934 L8.4,8.6557377 C8.4,8.43844534 8.2209139,8.26229508 8,8.26229508 Z M8,11.8032787 L17.436,11.8032787 L14.916,18.8852459 L5.9124,18.8852459 L4.1124,11.8032787 L8,11.8032787 Z" id="Shape"></path>
                </g>
            </g>
        </g>
    </g>
</svg>