<?xml version="1.0" encoding="UTF-8"?>
<svg width="100px" height="100px" viewBox="0 0 100 100" version="1.1" xmlns="http://www.w3.org/2000/svg" xmlns:xlink="http://www.w3.org/1999/xlink">
    <!-- Generator: Sketch 60.1 (88133) - https://sketch.com -->
    <title>Group 3</title>
    <desc>Created with Sketch.</desc>
    <g id="Desktop" stroke="none" stroke-width="1" fill="none" fill-rule="evenodd">
        <g id="8A.-Complete-Shipment---Mobile" transform="translate(-300.000000, -188.000000)">
            <g id="Group-3" transform="translate(300.000000, 188.000000)">
                <circle id="Oval-2" fill="#D88350" fill-rule="nonzero" cx="50" cy="50" r="50"></circle>
                <g id="Group" transform="translate(26.000000, 33.000000)" fill="#FFFFFF">
                    <g id="Shape">
                        <path d="M2.2964216,28 C2.29400009,28 2.28571429,2.33414375 2.28571429,2.33414375 L27.4277776,2.33333333 L27.4277781,28 L14.8571429,28 L14.8571429,30.3333333 L33.1428571,30.3333333 L33.1428571,28 L29.7142857,28 L29.7142857,2.33414375 C29.7142857,1.05443512 28.6884329,0 27.4277776,0 L2.28650816,0 C1.03291604,0 0,1.04722466 0,2.33414375 L0,27.9991896 C0,29.2811458 1.03253931,30.3333333 2.2964216,30.3333333 L5.71428571,30.3333333 L5.71428571,28 L2.2964216,28 Z" fill-rule="nonzero"></path>
                        <path d="M20.3019386,11.3580927 L15.0969386,16.5630927 L12.8919386,14.3580927 C12.4486739,13.9450544 11.757924,13.9572419 11.3295059,14.38566 C10.9010878,14.8140781 10.8889003,15.504828 11.3019386,15.9480927 L14.3019386,18.9480927 C14.7411649,19.3867727 15.4527122,19.3867727 15.8919386,18.9480927 L21.8919386,12.9480927 C22.1929183,12.6676368 22.3168123,12.2452594 22.2150169,11.8466593 C22.1132214,11.4480593 21.801972,11.1368098 21.4033719,11.0350144 C21.0047719,10.9332189 20.5823944,11.0571129 20.3019386,11.3580927 L20.3019386,11.3580927 Z"></path>
                        <path d="M38.8624027,7 C39.0904503,7 39.4876073,7.22914635 39.6046441,7.42827183 L45.2925147,17.1055516 C45.5123858,17.4796378 45.7142857,18.2197498 45.7142857,18.6612972 L45.7142857,28.0053695 C45.7142857,28.0126887 42.2857143,28 42.2857143,28 L42.2857143,30.3333333 L45.7035785,30.3333333 C46.9903358,30.3333333 48,29.3000437 48,28.0053695 L48,18.6612972 C48,17.7957218 47.6849493,16.6408282 47.2524987,15.9050615 L41.5646281,6.22778172 C41.0341712,5.32526841 39.8926816,4.66666667 38.8624027,4.66666667 L28.5714286,4.66666667 L28.5714286,7 L38.8624027,7 Z" fill-rule="nonzero"></path>
                        <path d="M36.5608891,9.33333333 C35.3048542,9.33333333 34.2857143,10.3568106 34.2857143,11.6444499 L34.2857143,18.6888835 C34.2857143,19.9725977 35.2956491,21 36.5661687,21 L46.8571429,21 L46.8571429,18.6666667 L36.5661687,18.6666667 C36.5562414,18.6666667 36.5714286,11.6444499 36.5714286,11.6444499 C36.5714286,11.6541034 42.2857143,11.6666667 42.2857143,11.6666667 L42.2857143,9.33333333 L36.5608891,9.33333333 Z" fill-rule="nonzero"></path>
                        <path d="M10.2857143,35 C13.4416271,35 16,32.3883278 16,29.1666667 C16,25.9450056 13.4416271,23.3333333 10.2857143,23.3333333 C7.12980144,23.3333333 4.57142857,25.9450056 4.57142857,29.1666667 C4.57142857,32.3883278 7.12980144,35 10.2857143,35 Z M10.2857143,32.6666667 C12.179262,32.6666667 13.7142857,31.0996632 13.7142857,29.1666667 C13.7142857,27.2336701 12.179262,25.6666667 10.2857143,25.6666667 C8.39216658,25.6666667 6.85714286,27.2336701 6.85714286,29.1666667 C6.85714286,31.0996632 8.39216658,32.6666667 10.2857143,32.6666667 Z" fill-rule="nonzero"></path>
                        <path d="M37.7142857,35 C40.8701986,35 43.4285714,32.3883278 43.4285714,29.1666667 C43.4285714,25.9450056 40.8701986,23.3333333 37.7142857,23.3333333 C34.5583728,23.3333333 32,25.9450056 32,29.1666667 C32,32.3883278 34.5583728,35 37.7142857,35 Z M37.7142857,32.6666667 C39.6078334,32.6666667 41.1428571,31.0996632 41.1428571,29.1666667 C41.1428571,27.2336701 39.6078334,25.6666667 37.7142857,25.6666667 C35.8207381,25.6666667 34.2857143,27.2336701 34.2857143,29.1666667 C34.2857143,31.0996632 35.8207381,32.6666667 37.7142857,32.6666667 Z" fill-rule="nonzero"></path>
                    </g>
                </g>
            </g>
        </g>
    </g>
</svg>