<?xml version="1.0" encoding="UTF-8"?>
<svg width="39px" height="40px" viewBox="0 0 39 40" version="1.1" xmlns="http://www.w3.org/2000/svg" xmlns:xlink="http://www.w3.org/1999/xlink">
    <!-- Generator: Sketch 60.1 (88133) - https://sketch.com -->
    <title>twitter</title>
    <desc>Created with Sketch.</desc>
    <defs>
        <polygon id="path-1" points="19.3942125 0.271219512 0.0585 0.271219512 0.0585 39.0253659 38.729925 39.0253659 38.729925 0.271219512 19.3942125 0.271219512"></polygon>
    </defs>
    <g id="Desktop" stroke="none" stroke-width="1" fill="none" fill-rule="evenodd">
        <g id="6A.-Order-Confirmation---COD---Desktop" transform="translate(-330.000000, -3071.000000)">
            <g id="Group-13" transform="translate(80.000000, 3014.000000)">
                <g id="Group-12" transform="translate(188.000000, 57.000000)">
                    <g id="twitter" transform="translate(62.000000, 0.000000)">
                        <mask id="mask-2" fill="white">
                            <use xlink:href="#path-1"></use>
                        </mask>
                        <g id="Clip-2"></g>
                        <path d="M19.362525,0.271219512 C8.68725,0.271219512 0,8.96487805 0,19.6468293 C0,30.3326829 8.68725,39.0253659 19.362525,39.0253659 C30.0417,39.0253659 38.729925,30.3326829 38.729925,19.6468293 C38.729925,8.96487805 30.0417,0.271219512 19.362525,0.271219512 L19.362525,0.271219512 Z M28.004925,15.2146341 C28.01175,15.404878 28.01565,15.5990244 28.01565,15.7941463 C28.01565,21.6858537 23.533575,28.48 15.333825,28.48 C12.816375,28.48 10.47345,27.7453659 8.501025,26.4760976 C8.85105,26.5180488 9.204975,26.5404878 9.563775,26.5404878 C11.654175,26.5404878 13.57395,25.8282927 15.1008,24.6312195 C13.1508,24.5931707 11.505975,23.3053659 10.938525,21.5326829 C11.2086,21.5863415 11.486475,21.6126829 11.77605,21.6126829 C12.1797,21.6126829 12.57555,21.56 12.948975,21.4565854 C10.911225,21.0487805 9.372675,19.2468293 9.372675,17.0858537 C9.372675,17.0663415 9.372675,17.0478049 9.376575,17.0282927 C9.97425,17.3639024 10.66455,17.5619512 11.3958,17.5843902 C10.199475,16.7882927 9.4107,15.4204878 9.4107,13.8731707 C9.4107,13.057561 9.632025,12.2917073 10.01325,11.6321951 C12.209925,14.3307317 15.497625,16.1063415 19.198725,16.2926829 C19.122675,15.964878 19.08465,15.6263415 19.08465,15.275122 C19.08465,12.8136585 21.080475,10.8165854 23.541375,10.8165854 C24.824475,10.8165854 25.9818,11.3580488 26.793,12.222439 C27.809925,12.0243902 28.7664,11.6546341 29.627325,11.1404878 C29.291925,12.1843902 28.587,13.057561 27.665625,13.6097561 C28.568475,13.5034146 29.4294,13.2634146 30.225,12.9092683 C29.631225,13.8009756 28.872675,14.5853659 28.004925,15.2146341 L28.004925,15.2146341 Z" id="Fill-1" fill="#D88350" mask="url(#mask-2)"></path>
                    </g>
                </g>
            </g>
        </g>
    </g>
</svg>