<?xml version="1.0" encoding="UTF-8"?>
<svg width="22px" height="14px" viewBox="0 0 22 14" version="1.1" xmlns="http://www.w3.org/2000/svg" xmlns:xlink="http://www.w3.org/1999/xlink">
    <!-- Generator: Sketch 62 (91390) - https://sketch.com -->
    <title>Group 3</title>
    <desc>Created with Sketch.</desc>
    <g id="Header" stroke="none" stroke-width="1" fill="none" fill-rule="evenodd">
        <g id="1.4-Header---Cart-Snippet---Desktop" transform="translate(-1338.000000, -55.000000)">
            <g id="Group-3" transform="translate(1329.000000, 42.000000)">
                <circle id="Oval-4" fill-rule="nonzero" cx="20" cy="20" r="20"></circle>
                <g id="Menu-2" transform="translate(9.000000, 13.000000)" fill="#212121">
                    <path d="M1,2 L21,2 C21.5522847,2 22,1.55228475 22,1 C22,0.44771525 21.5522847,0 21,0 L1,0 C0.44771525,0 0,0.44771525 0,1 C0,1.55228475 0.44771525,2 1,2 L1,2 Z" id="Shape"></path>
                    <path d="M21,6 L1,6 C0.44771525,6 0,6.44771525 0,7 C0,7.55228475 0.44771525,8 1,8 L21,8 C21.5522847,8 22,7.55228475 22,7 C22,6.44771525 21.5522847,6 21,6 L21,6 Z" id="Shape"></path>
                    <path d="M21,12 L1,12 C0.44771525,12 0,12.4477153 0,13 C0,13.5522847 0.44771525,14 1,14 L21,14 C21.5522847,14 22,13.5522847 22,13 C22,12.4477153 21.5522847,12 21,12 L21,12 Z" id="Shape"></path>
                </g>
            </g>
        </g>
    </g>
</svg>