<?xml version="1.0" encoding="UTF-8"?>
<svg width="27px" height="27px" viewBox="0 0 27 27" version="1.1" xmlns="http://www.w3.org/2000/svg" xmlns:xlink="http://www.w3.org/1999/xlink">
    <!-- Generator: Sketch 51.3 (57544) - http://www.bohemiancoding.com/sketch -->
    <title>Group 13</title>
    <desc>Created with Sketch.</desc>
    <defs></defs>
    <g id="Page-1" stroke="none" stroke-width="1" fill="none" fill-rule="evenodd">
        <g id="1.15-PDP---Product-Detail---Opened---Multicolor" transform="translate(-783.000000, -993.000000)">
            <g id="Group-13" transform="translate(784.000000, 994.000000)">
                <g id="offer">
                    <g id="Group">
                        <path d="M23.1395349,12.5 L24.5930233,9.60227273 C24.9127907,8.97727273 24.6511628,8.21022727 24.0116279,7.89772727 L21.1046512,6.39204545 L20.5232558,3.23863636 C20.4069767,2.55681818 19.7383721,2.07386364 19.0406977,2.1875 L15.7848837,2.64204545 L13.4302326,0.397727273 C12.9069767,-0.0852272727 12.0930233,-0.0852272727 11.5697674,0.397727273 L9.21511628,2.64204545 L5.95930233,2.1875 C5.26162791,2.10227273 4.59302326,2.55681818 4.47674419,3.23863636 L3.89534884,6.39204545 L0.988372093,7.89772727 C0.348837209,8.23863636 0.11627907,8.97727273 0.406976744,9.60227273 L1.86046512,12.5 L0.406976744,15.3977273 C0.0872093023,16.0227273 0.348837209,16.7897727 0.988372093,17.1022727 L3.89534884,18.6079545 L4.47674419,21.7613636 C4.59302326,22.4431818 5.26162791,22.9261364 5.95930233,22.8125 L9.21511628,22.3579545 L11.5697674,24.6022727 C12.0930233,25.0852273 12.9069767,25.0852273 13.4302326,24.6022727 L15.7848837,22.3579545 L19.0406977,22.8125 C19.7383721,22.8977273 20.4069767,22.4431818 20.5232558,21.7613636 L21.1046512,18.6079545 L24.0116279,17.1022727 C24.6511628,16.7613636 24.8837209,16.0227273 24.5930233,15.3977273 L23.1395349,12.5 Z" id="Shape" stroke="#4CAF50" stroke-width="1.57894737" stroke-linecap="round"></path>
                        <path d="M16.4244186,7.38636364 L8.86627907,17.0454545" id="Shape" stroke="#4CAF50" stroke-width="1.57894737" stroke-linecap="round"></path>
                        <circle id="Oval-2" fill="#4CAF50" cx="15.625" cy="15.625" r="1.5625"></circle>
                        <circle id="Oval-2-Copy" fill="#4CAF50" cx="9.375" cy="9.375" r="1.5625"></circle>
                    </g>
                </g>
            </g>
        </g>
    </g>
</svg>