<?xml version="1.0" encoding="UTF-8"?>
<svg width="18px" height="13px" viewBox="0 0 18 13" version="1.1" xmlns="http://www.w3.org/2000/svg" xmlns:xlink="http://www.w3.org/1999/xlink">
    <!-- Generator: Sketch 51.3 (57544) - http://www.bohemiancoding.com/sketch -->
    <title>Group 15</title>
    <desc>Created with Sketch.</desc>
    <defs></defs>
    <g id="Page-1" stroke="none" stroke-width="1" fill="none" fill-rule="evenodd">
        <g id="1.15-PDP---Product-Detail---Opened---Multicolor" transform="translate(-771.000000, -1509.000000)">
            <g id="Group-25" transform="translate(768.000000, 1503.000000)">
                <g id="Group-15">
                    <rect id="Rectangle" x="0" y="0" width="24" height="24"></rect>
                    <path d="M20.9852586,11.9834686 C20.9803259,11.9308485 20.9658778,11.8795015 20.9425862,11.8318156 C20.937931,11.8227164 20.9425862,11.8121007 20.9340517,11.8030015 L19.4025,9.30906817 C19.155891,8.90853878 18.7131265,8.66299402 18.2348276,8.66150992 L15.1313793,8.66150992 L15.1313793,8.20655096 C15.1296689,6.98830361 14.1193647,6.00125306 12.8728448,6 L5.25853448,6 C4.01080392,6.00125542 2.99999934,6.99015227 3,8.20958402 L3,16.9000584 C3,17.020721 3.04904543,17.1364416 3.13634684,17.221763 C3.22364826,17.3070843 3.34205439,17.3550174 3.46551724,17.3550174 L4.91017241,17.3550174 C5.12796952,18.3160101 5.99981316,19 7.00693966,19 C8.01406615,19 8.88590979,18.3160101 9.1037069,17.3550174 L15.5030172,17.3550174 C15.7227784,18.31318 16.5931177,18.9942208 17.5978448,18.9942208 C18.602572,18.9942208 19.4729113,18.31318 19.6926724,17.3550174 L20.5344828,17.3550174 C20.6579456,17.3550174 20.7763517,17.3070843 20.8636532,17.221763 C20.9509546,17.1364416 21,17.020721 21,16.9000584 L21,12.0471628 C20.9967109,12.0256032 20.9917835,12.0043129 20.9852586,11.9834686 Z M8.2262069,16.904608 C8.22278524,17.5462396 7.68870003,18.0641466 7.03217134,18.0624746 C6.37564265,18.0608026 5.84432652,17.5401822 5.84432652,16.8985419 C5.84432652,16.2569016 6.37564265,15.7362812 7.03217134,15.7346092 C7.68870003,15.7329371 8.22278524,16.2508442 8.2262069,16.8924758 L8.2262069,16.8993002 L8.2262069,16.904608 Z M14.2003448,9.11646888 L14.2003448,16.4450995 L9.10525862,16.4450995 C8.88877486,15.4820771 8.01581119,14.7960039 7.00693966,14.7960039 C5.99806812,14.7960039 5.12510446,15.4820771 4.90862069,16.4450995 L3.93103448,16.4450995 L3.93103448,8.20958402 C3.93188956,7.4938198 4.52538359,6.91378667 5.25775862,6.91295098 L12.8759483,6.91295098 C13.6083233,6.91378667 14.2018173,7.4938198 14.2026724,8.20958402 L14.2003448,9.11646888 Z M15.1313793,9.57142784 L18.2348276,9.57142784 C18.3860713,9.57194044 18.5260771,9.64955426 18.6041379,9.77615937 L19.712069,11.5823464 L15.1344828,11.5823464 L15.1313793,9.57142784 Z M17.5962931,18.0905344 C16.9249935,18.088033 16.3817927,17.556136 16.3805172,16.9000584 C16.3809457,16.241838 16.9271935,15.7085452 17.6006893,15.7088243 C18.2741852,15.7091034 18.81997,16.2428488 18.8198273,16.9010693 C18.8196846,17.5592898 18.2736683,18.092809 17.6001724,18.0928092 L17.5962931,18.0905344 Z M20.0689655,16.4450995 L19.7035345,16.4450995 C19.4855507,15.482563 18.6123729,14.7974156 17.6036638,14.7974156 C16.5949547,14.7974156 15.7217769,15.482563 15.5037931,16.4450995 L15.1344828,16.4450995 L15.1344828,12.4952974 L20.0689655,12.4952974 L20.0689655,16.4450995 Z M11.7431897,9.06793992 C11.8306031,9.15327578 11.8797197,9.26907307 11.8797197,9.38982339 C11.8797197,9.5105737 11.8306031,9.62637099 11.7431897,9.71170685 L8.36508621,13.0131924 C8.27776995,13.0986232 8.15928534,13.1466258 8.03573276,13.1466258 C7.91218018,13.1466258 7.79369557,13.0986232 7.70637931,13.0131924 L6.4262069,11.761297 C6.30854024,11.6462991 6.26258618,11.478686 6.30565516,11.321596 C6.34872415,11.1645059 6.47427297,11.0418047 6.63500861,10.9997125 C6.79574425,10.9576204 6.96724714,11.0025322 7.08491379,11.11753 L8.03612069,12.0471628 L11.0852586,9.06718166 C11.2672214,8.88998524 11.561655,8.89032457 11.7431897,9.06793992 Z" id="Shape" fill="#424242" fill-rule="nonzero"></path>
                </g>
            </g>
        </g>
    </g>
</svg>