<?xml version="1.0" encoding="UTF-8"?>
<svg width="15px" height="18px" viewBox="0 0 15 18" version="1.1" xmlns="http://www.w3.org/2000/svg" xmlns:xlink="http://www.w3.org/1999/xlink">
    <!-- Generator: Sketch 51.3 (57544) - http://www.bohemiancoding.com/sketch -->
    <title>Group 19</title>
    <desc>Created with Sketch.</desc>
    <defs></defs>
    <g id="Page-1" stroke="none" stroke-width="1" fill="none" fill-rule="evenodd">
        <g id="1.15-PDP---Product-Detail---Opened---Multicolor" transform="translate(-772.000000, -1821.000000)">
            <g id="Group-20" transform="translate(768.000000, 1818.000000)">
                <g id="Group-19">
                    <rect id="Rectangle-2" x="0" y="0" width="24" height="24"></rect>
                    <g id="Group-18" transform="translate(4.000000, 3.000000)" fill="#424242" fill-rule="nonzero">
                        <path d="M0,0.507130435 C0,0.787304348 0.228947368,1.01426087 0.511578947,1.01426087 L1.08710526,1.01426087 L1.08710526,2.47226087 C1.08710526,3.31121739 1.77631579,3.99365217 2.62263158,3.99365217 L6.93947368,3.99365217 L6.93947368,4.51721739 C3.42236842,4.77782609 0.640263158,7.69147826 0.640263158,11.2429565 L0.640263158,12.384 C0.640263158,12.456 0.645,12.5264348 0.649736842,12.5968696 L0.652894737,12.6477391 C0.645789474,12.6993913 0.640263158,12.7518261 0.640263158,12.8050435 L0.640263158,15.2561739 C0.640263158,16.3753043 1.55842105,17.2854783 2.68657895,17.2854783 L12.2155263,17.2854783 C13.3444737,17.2854783 14.2626316,16.3753043 14.2626316,15.2561739 L14.2626316,12.8050435 C14.2626316,12.7573043 14.2578947,12.7126957 14.2492105,12.6485217 L14.2531579,12.5968696 C14.2571053,12.5256522 14.2626316,12.4552174 14.2626316,12.384 L14.2626316,11.2429565 C14.2626316,7.69147826 11.4797368,4.77782609 7.96263158,4.51721739 L7.96263158,3.99365217 L12.2802632,3.99365217 C13.1265789,3.99365217 13.815,3.31121739 13.815,2.47226087 L13.815,1.01426087 L14.3905263,1.01426087 C14.6723684,1.01426087 14.9013158,0.787304348 14.9013158,0.507130435 C14.9013158,0.226956522 14.6723684,0 14.3905263,0 L13.3026316,0 L1.59868421,0 L0.511578947,0 C0.228947368,2.60661058e-16 0,0.226956522 0,0.507130435 Z M13.2378947,11.2437391 L13.2378947,12.3847826 C13.2378947,12.434087 13.2347368,12.4818261 13.2307895,12.5295652 L13.2244737,12.6438261 C13.2221053,12.6657391 13.2244737,12.6892174 13.2260526,12.711913 L13.2378947,15.2585217 C13.2378947,15.8188696 12.78,16.2735652 12.2147368,16.2735652 L2.68578947,16.2735652 C2.12131579,16.2735652 1.66263158,15.8188696 1.66263158,15.2585217 L1.66657895,12.7862609 L1.67526316,12.711913 C1.67684211,12.6892174 1.67763158,12.6657391 1.67605263,12.6438261 L1.66973684,12.5295652 C1.66657895,12.4818261 1.66263158,12.434087 1.66263158,12.3847826 L1.66263158,11.2437391 C1.66263158,8.08043478 4.25921053,5.50643478 7.45026316,5.50643478 C10.6421053,5.50643478 13.2378947,8.08043478 13.2378947,11.2437391 Z M2.11026316,1.01426087 L12.7910526,1.01426087 L12.7910526,2.47226087 C12.7910526,2.75165217 12.5613158,2.9793913 12.2794737,2.9793913 L2.62263158,2.9793913 C2.34,2.9793913 2.11105263,2.75165217 2.11105263,2.47226087 L2.11105263,1.01426087 L2.11026316,1.01426087 Z" id="Shape"></path>
                        <path d="M2.68578947,10.8892174 C2.68578947,13.4937391 4.82368421,15.6122609 7.45026316,15.6122609 C10.0768421,15.6122609 12.2147368,13.4937391 12.2147368,10.8892174 C12.2147368,8.28469565 10.0768421,6.16617391 7.45026316,6.16617391 C4.82368421,6.16617391 2.68578947,8.28469565 2.68578947,10.8892174 Z M11.1915789,10.8892174 C11.1915789,12.9341739 9.51394737,14.5972174 7.45105263,14.5972174 C5.38815789,14.5972174 3.70973684,12.9341739 3.70973684,10.8892174 C3.70973684,8.84426087 5.38736842,7.18043478 7.45105263,7.18043478 C9.51473684,7.18043478 11.1915789,8.84426087 11.1915789,10.8892174 Z" id="Shape"></path>
                        <path d="M6.93868421,9.12913043 L6.93868421,10.8892174 C6.93868421,11.1693913 7.16763158,11.3955652 7.45026316,11.3955652 L8.18526316,11.3955652 C8.46868421,11.3955652 8.69763158,11.1693913 8.69763158,10.8892174 C8.69763158,10.6098261 8.46868421,10.3828696 8.18526316,10.3828696 L7.96184211,10.3828696 L7.96184211,9.12913043 C7.96184211,8.84895652 7.73289474,8.62278261 7.45105263,8.62278261 C7.16921053,8.62278261 6.93868421,8.84895652 6.93868421,9.12913043 Z" id="Shape"></path>
                    </g>
                </g>
            </g>
        </g>
    </g>
</svg>