<?xml version="1.0" encoding="UTF-8"?>
<svg width="24px" height="24px" viewBox="0 0 24 24" version="1.1" xmlns="http://www.w3.org/2000/svg" xmlns:xlink="http://www.w3.org/1999/xlink">
    <!-- Generator: Sketch 60.1 (88133) - https://sketch.com -->
    <title>Group</title>
    <desc>Created with Sketch.</desc>
    <g id="Desktop" stroke="none" stroke-width="1" fill="none" fill-rule="evenodd">
        <g id="1.1-Login-/-Signup---Landing---Desktop" transform="translate(-577.000000, -336.000000)" fill-rule="nonzero">
            <g id="Group-7" transform="translate(480.000000, 132.000000)">
                <g id="Group-14-Copy" transform="translate(32.000000, 196.000000)">
                    <g id="Group" transform="translate(65.000000, 8.000000)">
                        <path d="M24,22.5 C24,23.328 23.328,24 22.5,24 L1.5,24 C0.672,24 0,23.328 0,22.5 L0,1.5 C0,0.672 0.672,0 1.5,0 L22.5,0 C23.328,0 24,0.672 24,1.5 L24,22.5 Z" id="Shape" fill="#FFFFFF"></path>
                        <path d="M16.5,24 L16.5,15 L19.5,15 L20.25,11.25 L16.5,11.25 L16.5,9.75 C16.5,8.25 17.2515,7.5 18.75,7.5 L20.25,7.5 L20.25,3.75 L17.25,3.75 C14.49375,3.75 12.75,5.91075 12.75,9 L12.75,11.25 L9.75,11.25 L9.75,15 L12.75,15 L12.75,24 L16.5,24 Z" id="f" fill="#3B5998"></path>
                    </g>
                </g>
            </g>
        </g>
    </g>
</svg>