<?xml version="1.0" encoding="UTF-8"?>
<svg width="30px" height="32px" viewBox="0 0 30 32" version="1.1" xmlns="http://www.w3.org/2000/svg" xmlns:xlink="http://www.w3.org/1999/xlink">
    <!-- Generator: Sketch 60.1 (88133) - https://sketch.com -->
    <title>Mask</title>
    <desc>Created with Sketch.</desc>
    <g id="Desktop" stroke="none" stroke-width="1" fill="none" fill-rule="evenodd">
        <g id="1.5-Login-/-Signup----Landing---Loader---Desktop" transform="translate(-705.000000, -328.000000)" fill="#BB4225">
            <path d="M722.045455,358.608696 C722.045455,360.463768 719.318182,360.463768 719.318182,358.608696 C719.318182,356.753623 722.045455,356.753623 722.045455,358.608696 Z M714.666061,355.34315 C716.50303,356.425275 714.912121,359.236947 713.075152,358.154821 C711.238182,357.072696 712.829091,354.261024 714.666061,355.34315 Z M728.487273,356.171749 C729.244848,357.512348 727.277576,358.671768 726.52,357.331169 C725.762424,355.993043 727.729697,354.833623 728.487273,356.171749 Z M710.438182,350.729585 C711.650303,352.86972 708.501212,354.724792 707.289091,352.584657 C706.07697,350.442048 709.226061,348.586976 710.438182,350.729585 Z M732.949697,350.842744 C733.998788,351.461101 733.089697,353.067594 732.040606,352.449237 C730.989697,351.830879 731.898788,350.224386 732.949697,350.842744 Z M709.090909,344.695652 C709.090909,347.478261 705,347.478261 705,344.695652 C705,341.913043 709.090909,341.913043 709.090909,344.695652 Z M735,344.695652 C735,345.623188 733.636364,345.623188 733.636364,344.695652 C733.636364,343.768116 735,343.768116 735,344.695652 Z M710.004848,335.739362 C712.627879,337.285256 710.355152,341.302106 707.732121,339.756213 C705.106667,338.210319 707.379394,334.193469 710.004848,335.739362 Z M732.890909,337.5023 C733.193939,338.038415 732.407879,338.502184 732.104848,337.966068 C731.801818,337.429952 732.587879,336.966184 732.890909,337.5023 Z M716.02303,331.36201 C717.689697,334.309101 713.359394,336.859826 711.692727,333.913353 C710.026061,330.968734 714.356364,328.41801 716.02303,331.36201 Z M723.409091,330.782609 C723.409091,334.492754 717.954545,334.492754 717.954545,330.782609 C717.954545,327.072464 723.409091,327.072464 723.409091,330.782609 Z" id="Mask"></path>
        </g>
    </g>
</svg>