<?xml version="1.0" encoding="UTF-8"?>
<svg width="12px" height="16px" viewBox="0 0 12 16" version="1.1" xmlns="http://www.w3.org/2000/svg" xmlns:xlink="http://www.w3.org/1999/xlink">
    <!-- Generator: Sketch 60.1 (88133) - https://sketch.com -->
    <title>Shape</title>
    <desc>Created with Sketch.</desc>
    <g id="Desktop" stroke="none" stroke-width="1" fill="none" fill-rule="evenodd">
        <g id="1.1-Login-/-Signup---Landing---Desktop" transform="translate(-512.000000, -377.000000)" fill="#F3A320">
            <g id="Group-7" transform="translate(480.000000, 132.000000)">
                <g id="Group-5" transform="translate(32.000000, 244.000000)">
                    <path d="M10.5,6.33333333 L9.75,6.33333333 L9.75,4.80952381 C9.75,2.70666667 8.07,1 6,1 C3.93,1 2.25,2.70666667 2.25,4.80952381 L2.25,6.33333333 L1.5,6.33333333 C0.675,6.33333333 0,7.01904762 0,7.85714286 L0,15.4761905 C0,16.3142857 0.675,17 1.5,17 L10.5,17 C11.325,17 12,16.3142857 12,15.4761905 L12,7.85714286 C12,7.01904762 11.325,6.33333333 10.5,6.33333333 L10.5,6.33333333 Z M8.325,6.33333333 L3.675,6.33333333 L3.675,4.80952381 C3.675,3.50666667 4.7175,2.44761905 6,2.44761905 C7.2825,2.44761905 8.325,3.50666667 8.325,4.80952381 L8.325,6.33333333 L8.325,6.33333333 Z" id="Shape"></path>
                </g>
            </g>
        </g>
    </g>
</svg>