<?xml version="1.0" encoding="UTF-8"?>
<svg width="20px" height="18px" viewBox="0 0 20 18" version="1.1" xmlns="http://www.w3.org/2000/svg" xmlns:xlink="http://www.w3.org/1999/xlink">
    <!-- Generator: Sketch 62 (91390) - https://sketch.com -->
    <title>Group 17</title>
    <desc>Created with Sketch.</desc>
    <g id="01-My-Orders" stroke="none" stroke-width="1" fill="none" fill-rule="evenodd">
        <g id="1.1-My-Order---Full-Length---Mobile" transform="translate(-80.000000, -2712.000000)">
            <g id="Group-17" transform="translate(78.000000, 2709.000000)">
                <rect id="Rectangle-2" x="0" y="0" width="24" height="24"></rect>
                <g id="Group" transform="translate(2.000000, 3.000000)" fill="#000000" fill-rule="nonzero">
                    <path d="M7.3642972,0.0761123077 C7.3170972,0.0782881319 7.2703032,0.0887716484 7.2267972,0.107028791 L0.22679714,3.27186396 C0.00177714,3.37315846 -0.05174886,3.69713868 0.08929714,3.88999582 L2.2642972,6.40578857 L0.08929714,8.9154 C-0.04159286,9.09721978 0.00177714,9.43221758 0.22679714,9.53353187 L2.3955472,10.5163714 L2.3955472,14.3143714 C2.3967472,14.4653538 2.4935552,14.6115495 2.6330472,14.6728879 L9.8267972,17.8377231 C9.9287352,17.8825451 10.0498572,17.8825451 10.1517972,17.8377231 L17.3580472,14.6728879 C17.4975372,14.6115495 17.5943872,14.4653538 17.5955472,14.3143714 L17.5955472,10.5163714 L19.7642972,9.53353187 C19.9893152,9.43221758 20.063048,9.10076044 19.9017972,8.9154 L17.7267972,6.40578857 L19.9017972,3.88999582 C20.063048,3.70463538 19.9893152,3.37315846 19.7642972,3.27186396 L12.7642972,0.107028791 C12.7017552,0.0800881319 12.6321672,0.0693276923 12.5642972,0.0761123077 C12.4653712,0.0832331868 12.3697292,0.128272747 12.3017972,0.199738681 L9.9955472,2.65373209 L7.6892972,0.199738681 C7.6071472,0.113121099 7.4839692,0.0662617582 7.3642972,0.0761123077 L7.3642972,0.0761123077 Z M7.3017972,0.947688132 L9.3205472,3.09878703 L2.9080472,5.92364571 L1.04554714,3.77873209 L7.3017972,0.947688132 Z M12.6892972,0.947688132 L18.9455472,3.77873209 L17.0830472,5.92364571 L10.6705472,3.09878703 L12.6892972,0.947688132 Z M9.9955472,3.67363978 L16.2080472,6.40578857 L9.9955472,9.13175604 L3.7830472,6.40578857 L9.9955472,3.67363978 Z M2.9080472,6.88176 L9.3205472,9.70660879 L7.3017972,11.8577077 L1.04554714,9.02666374 L2.9080472,6.88176 Z M17.0830472,6.88176 L18.9455472,9.02666374 L12.6892972,11.8577077 L10.6705472,9.70660879 L17.0830472,6.88176 Z M9.5955472,10.5781846 L9.5955472,16.8672462 L3.1955472,14.054756 L3.1955472,10.8748879 L7.2267972,12.698367 C7.3796592,12.7678549 7.5758552,12.7285319 7.6892972,12.6056571 L9.5955472,10.5781846 Z M10.3955472,10.5781846 L12.3017972,12.6056571 C12.4152372,12.7285319 12.6114332,12.7678549 12.7642972,12.698367 L16.7955472,10.8748879 L16.7955472,14.054756 L10.3955472,16.8610747 L10.3955472,10.5781846 Z" id="Shape"></path>
                </g>
            </g>
        </g>
    </g>
</svg>