<?xml version="1.0" encoding="UTF-8"?>
<svg width="66px" height="22px" viewBox="0 0 66 22" version="1.1" xmlns="http://www.w3.org/2000/svg" xmlns:xlink="http://www.w3.org/1999/xlink">
    <!-- Generator: Sketch 63.1 (92452) - https://sketch.com -->
    <title>Paypal</title>
    <desc>Created with Sketch.</desc>
    <defs>
        <filter x="-2.7%" y="-25.0%" width="105.3%" height="150.0%" filterUnits="objectBoundingBox" id="filter-1">
            <feOffset dx="0" dy="2" in="SourceAlpha" result="shadowOffsetOuter1"></feOffset>
            <feGaussianBlur stdDeviation="2" in="shadowOffsetOuter1" result="shadowBlurOuter1"></feGaussianBlur>
            <feColorMatrix values="0 0 0 0 0.962106718   0 0 0 0 0.890631554   0 0 0 0 0.847746455  0 0 0 1 0" type="matrix" in="shadowBlurOuter1" result="shadowMatrixOuter1"></feColorMatrix>
            <feMerge>
                <feMergeNode in="shadowMatrixOuter1"></feMergeNode>
                <feMergeNode in="SourceGraphic"></feMergeNode>
            </feMerge>
        </filter>
    </defs>
    <g id="Desktop" stroke="none" stroke-width="1" fill="none" fill-rule="evenodd">
        <g id="3.2-Shipping-&amp;-Payment---US-Store---Shipping-&amp;-Tax---Opened---Desktop" transform="translate(-956.000000, -711.000000)">
            <g id="Group-10" transform="translate(860.000000, 613.000000)">
                <g id="Group-8" filter="url(#filter-1)" transform="translate(24.000000, 83.000000)">
                    <g id="Paypal" transform="translate(76.000000, 17.000000)">
                        <g transform="translate(0.000000, 0.107180)">
                            <path d="M21.5650123,3.11115255 L18.3734878,3.11115255 C18.1550639,3.11115255 17.9693186,3.26670378 17.9352021,3.47812018 L16.6443967,11.5001555 C16.6187767,11.6585256 16.7438704,11.8011356 16.9076557,11.8011356 L18.4312636,11.8011356 C18.6496874,11.8011356 18.8354327,11.6457125 18.8695492,11.4339117 L19.2176418,9.27016087 C19.2512354,9.05836008 19.4373729,8.90280886 19.6554046,8.90280886 L20.6656968,8.90280886 C22.7679776,8.90280886 23.9812694,7.90556408 24.298252,5.92952542 C24.4409922,5.06489639 24.3042648,4.38567315 23.8912071,3.90992217 C23.4376279,3.38753145 22.6330803,3.11115255 21.5650123,3.11115255 Z M21.9331043,6.04112766 C21.7586005,7.1636847 20.8835978,7.1636847 20.0376137,7.1636847 L19.5559309,7.1636847 L19.8938278,5.06720275 C19.9139578,4.94048104 20.0258494,4.84720156 20.1565639,4.84720156 L20.3773406,4.84720156 C20.9536607,4.84720156 21.4973022,4.84720156 21.7782076,5.16919515 C21.9457836,5.36126375 21.9970237,5.64673997 21.9331043,6.04112766 L21.9331043,6.04112766 Z" id="Fill-1" fill="#28356A"></path>
                            <path d="M31.1049467,6.00499467 L29.5766331,6.00499467 C29.4464415,6.00499467 29.3338963,6.09827415 29.313897,6.22499586 L29.2461869,6.64398474 L29.1393932,6.49214932 C28.8085548,6.02139546 28.0706716,5.8640504 27.334357,5.8640504 C25.6453953,5.8640504 24.2029611,7.11794188 23.9220557,8.87679823 C23.7760476,9.75411224 23.9836222,10.593115 24.4914479,11.1781619 C24.9571836,11.7160565 25.623566,11.940286 26.4163493,11.940286 C27.7772177,11.940286 28.5317016,11.0825761 28.5317016,11.0825761 L28.4635994,11.4988742 C28.4379793,11.6580131 28.5630731,11.8007512 28.7259433,11.8007512 L30.1024974,11.8007512 C30.3214442,11.8007512 30.5062744,11.6451999 30.540783,11.4333992 L31.3667678,6.30597475 C31.3929107,6.14811717 31.2682091,6.00499467 31.1049467,6.00499467 Z M28.9745622,8.92074722 C28.8271163,9.7765352 28.1341989,10.3510753 27.2503076,10.3510753 C26.806532,10.3510753 26.4519036,10.2115405 26.2240683,9.94720589 C25.9981937,9.68466516 25.912445,9.31090658 25.9842072,8.89460846 C26.1219803,8.04612396 26.8265313,7.45274858 27.696959,7.45274858 C28.130931,7.45274858 28.4837294,7.59420538 28.7161397,7.86071818 C28.9489422,8.130178 29.0413573,8.50624293 28.9745622,8.92074722 L28.9745622,8.92074722 Z" id="Fill-2" fill="#28356A"></path>
                            <path d="M39.2445369,6.00499467 L37.7086419,6.00499467 C37.562111,6.00499467 37.4244686,6.07636373 37.3414649,6.19578196 L35.2232369,9.25414448 L34.3253592,6.31507207 C34.2688905,6.13120386 34.0958246,6.00499467 33.8997529,6.00499467 L32.3906543,6.00499467 C32.2071311,6.00499467 32.0798153,6.18066248 32.1381139,6.34992374 L33.8298206,11.2160887 L32.2394176,13.4168694 C32.1143239,13.5902309 32.2403326,13.8285548 32.4564036,13.8285548 L33.990338,13.8285548 C34.1359539,13.8285548 34.2721584,13.7589796 34.3547699,13.6419959 L39.4628301,6.41437371 C39.5851789,6.24152478 39.4595623,6.00499467 39.2445369,6.00499467" id="Fill-3" fill="#28356A"></path>
                            <path d="M44.3291992,3.11115255 L41.1372825,3.11115255 C40.9193815,3.11115255 40.7336362,3.26670378 40.6995197,3.47812018 L39.4087143,11.5001555 C39.3830943,11.6585256 39.508188,11.8011356 39.6710583,11.8011356 L41.3090413,11.8011356 C41.4610623,11.8011356 41.5912539,11.6923522 41.6150439,11.5441045 L41.9814366,9.27016087 C42.0150302,9.05836008 42.2012983,8.90280886 42.4191994,8.90280886 L43.4290994,8.90280886 C45.5317724,8.90280886 46.744672,7.90556408 47.0620467,5.92952542 C47.2053098,5.06489639 47.0676674,4.38567315 46.6546097,3.90992217 C46.2014226,3.38753145 45.3973979,3.11115255 44.3291992,3.11115255 Z M44.6974219,6.04112766 C44.5233102,7.1636847 43.6483075,7.1636847 42.8018006,7.1636847 L42.3207714,7.1636847 L42.6590604,5.06720275 C42.6790597,4.94048104 42.790167,4.84720156 42.9212736,4.84720156 L43.1420504,4.84720156 C43.7178476,4.84720156 44.262012,4.84720156 44.5429174,5.16919515 C44.7104933,5.36126375 44.7613413,5.64673997 44.6974219,6.04112766 L44.6974219,6.04112766 Z" id="Fill-4" fill="#298FC2"></path>
                            <path d="M53.8687415,6.00499467 L52.3413429,6.00499467 C52.2102362,6.00499467 52.0987368,6.09827415 52.0791296,6.22499586 L52.0114195,6.64398474 L51.9041029,6.49214932 C51.5732646,6.02139546 50.8359043,5.8640504 50.0994589,5.8640504 C48.4106279,5.8640504 46.9687166,7.11794188 46.6878112,8.87679823 C46.5421953,9.75411224 46.7488548,10.593115 47.2565499,11.1781619 C47.7233312,11.7160565 48.3886679,11.940286 49.1815819,11.940286 C50.5423196,11.940286 51.2969342,11.0825761 51.2969342,11.0825761 L51.228832,11.4988742 C51.2032119,11.6580131 51.328175,11.8007512 51.4920909,11.8007512 L52.8682529,11.8007512 C53.0861539,11.8007512 53.2718992,11.6451999 53.3060157,11.4333992 L54.1323926,6.30597475 C54.1576205,6.14811717 54.0325267,6.00499467 53.8687415,6.00499467 Z M51.7384877,8.92074722 C51.5919568,9.7765352 50.8979936,10.3510753 50.0141024,10.3510753 C49.5712417,10.3510753 49.2156984,10.2115405 48.987863,9.94720589 C48.7621192,9.68466516 48.6771547,9.31090658 48.748002,8.89460846 C48.88669,8.04612396 49.5903261,7.45274858 50.4607537,7.45274858 C50.8947258,7.45274858 51.2475241,7.59420538 51.4799345,7.86071818 C51.713652,8.130178 51.8060671,8.50624293 51.7384877,8.92074722 L51.7384877,8.92074722 Z" id="Fill-5" fill="#298FC2"></path>
                            <path d="M55.6705098,3.33128188 L54.36062,11.5001555 C54.335,11.6585256 54.459963,11.8011356 54.6228333,11.8011356 L55.9397816,11.8011356 C56.1587283,11.8011356 56.3443429,11.6457125 56.3779365,11.4339117 L57.6696569,3.41226077 C57.6954077,3.25389066 57.5703139,3.11076816 57.4074437,3.11076816 L55.9328537,3.11076816 C55.8026621,3.11115255 55.6906398,3.20456017 55.6705098,3.33128188" id="Fill-6" fill="#298FC2"></path>
                            <path d="M3.39073343,13.3601073 L3.63477735,11.8406 L3.09113586,11.8281712 L0.495146424,11.8281712 L2.29926758,0.61502954 C2.3048883,0.581074784 2.32305761,0.54955452 2.34959265,0.527131568 C2.3762584,0.504708616 2.41024417,0.492408026 2.4457985,0.492408026 L6.82303406,0.492408026 C8.27631757,0.492408026 9.27915901,0.788775385 9.80267047,1.37382224 C10.0481523,1.64827917 10.2044868,1.93516482 10.2801704,2.25075185 C10.3595141,2.58197089 10.3608213,2.97763989 10.2834383,3.46030995 L10.2778176,3.49541789 L10.2778176,3.80472649 L10.5232994,3.94105804 C10.7299589,4.04856008 10.894267,4.17156599 11.0202758,4.31238213 C11.2302032,4.5471184 11.3660156,4.84540773 11.4233992,5.19892158 C11.4827436,5.5625578 11.4631364,5.99538484 11.3660156,6.48535837 C11.2539933,7.04887919 11.0729537,7.53974964 10.8283869,7.94131267 C10.6035581,8.31135545 10.3170319,8.61835769 9.97678215,8.85616912 C9.65195669,9.08219247 9.26608756,9.25376009 8.82976265,9.36356849 C8.40690133,9.47145492 7.92482635,9.52591066 7.39608631,9.52591066 L7.05544439,9.52591066 C6.81192333,9.52591066 6.57533014,9.61188666 6.38958487,9.76602844 C6.20331675,9.9233735 6.08018371,10.1383776 6.04240723,10.3734982 L6.01665648,10.5103423 L5.58542943,13.1886678 L5.56595297,13.2869444 C5.5607244,13.3180803 5.55183581,13.3335842 5.53876436,13.3440909 C5.52713078,13.3537008 5.51039932,13.3601073 5.49406001,13.3601073 L3.39073343,13.3601073" id="Fill-7" fill="#28356A"></path>
                            <path d="M10.755579,3.53116648 C10.7426382,3.61304229 10.7276061,3.69671193 10.7108746,3.78268793 C10.1336395,6.68793372 8.15867455,7.69158505 5.63640808,7.69158505 L4.35213838,7.69158505 C4.04365222,7.69158505 3.78366114,7.91107372 3.73568892,8.20936305 L2.891927,13.4556932 C2.86068624,13.6516057 3.01466789,13.8280423 3.21622961,13.8280423 L5.49406001,13.8280423 C5.76372397,13.8280423 5.99286644,13.6359737 6.03534865,13.3752268 L6.05770082,13.2618307 L6.48657501,10.594012 L6.51415576,10.4476862 C6.55611511,10.1860424 6.78578044,9.99384563 7.05544439,9.99384563 L7.39608631,9.99384563 C9.60293876,9.99384563 11.3305919,9.1156347 11.835542,6.57402513 C12.0463844,5.51233038 11.9372378,4.62579093 11.379087,4.00230473 C11.2102039,3.81433633 11.0006686,3.65827258 10.755579,3.53116648" id="Fill-8" fill="#298FC2"></path>
                            <path d="M10.1518088,3.29514889 C10.0635766,3.26990705 9.97259929,3.24709971 9.87926916,3.22647059 C9.78541616,3.206354 9.68934103,3.18854377 9.59039017,3.17291177 C9.24412753,3.11807164 8.86466342,3.09206101 8.45827212,3.09206101 L5.02740935,3.09206101 C4.94283708,3.09206101 4.8625784,3.11076816 4.79081615,3.14459479 C4.63252092,3.21916712 4.51500861,3.36600542 4.48651286,3.54577343 L3.75660324,8.07725983 L3.73568892,8.20936305 C3.78366114,7.91107372 4.04365222,7.69158505 4.35213838,7.69158505 L5.63640808,7.69158505 C8.15867455,7.69158505 10.1336395,6.6874212 10.7108746,3.78268793 C10.7281289,3.69671193 10.7426382,3.61304229 10.755579,3.53116648 C10.6095709,3.4551847 10.4514064,3.39022221 10.2810854,3.33486955 C10.2389954,3.32115952 10.1955982,3.30796201 10.1518088,3.29514889" id="Fill-9" fill="#22284F"></path>
                            <path d="M4.48651286,3.54577343 C4.51500861,3.36600542 4.63252092,3.21916712 4.79081615,3.14510731 C4.86310125,3.11115255 4.94283708,3.09244541 5.02740935,3.09244541 L8.45827212,3.09244541 C8.86466342,3.09244541 9.24412753,3.11858416 9.59039017,3.1734243 C9.68934103,3.18892817 9.78541616,3.20686653 9.87926916,3.22698312 C9.97259929,3.2474841 10.0635766,3.27041958 10.1518088,3.29553329 C10.1955982,3.3083464 10.2389954,3.32167204 10.2814776,3.33486955 C10.4517985,3.39022221 10.6100938,3.45569723 10.7561018,3.53116648 C10.9278607,2.45755554 10.754664,1.7265673 10.1625274,1.06464176 C9.50960863,0.335831755 8.33134837,0.0239605258 6.82355692,0.0239605258 L2.44619065,0.0239605258 C2.13822735,0.0239605258 1.87549126,0.243449193 1.82791119,0.542251045 L0.00470572103,11.8707108 C-0.031240759,12.0948122 0.145093065,12.2970031 0.375673395,12.2970031 L3.07806441,12.2970031 L4.48651286,3.54577343" id="Fill-11" fill="#28356A"></path>
                        </g>
                    </g>
                </g>
            </g>
        </g>
    </g>
</svg>