<?xml version="1.0" encoding="UTF-8"?>
<svg width="17px" height="17px" viewBox="0 0 17 17" version="1.1" xmlns="http://www.w3.org/2000/svg" xmlns:xlink="http://www.w3.org/1999/xlink">
    <!-- Generator: Sketch 63.1 (92452) - https://sketch.com -->
    <title>Shape</title>
    <desc>Created with Sketch.</desc>
    <g id="01-My-Orders" stroke="none" stroke-width="1" fill="none" fill-rule="evenodd">
        <g id="1.1-My-Order---Landing---Desktop" transform="translate(-753.000000, -104.000000)" fill="#212121">
            <g id="Group" transform="translate(745.000000, 95.000000)">
                <g id="Group-31" transform="translate(2.000000, 3.000000)">
                    <path d="M18.1517439,12.3087874 L17.3799886,12.3087874 L17.111721,12.5750958 C18.0594054,13.6801784 18.6357919,15.1128009 18.6357919,16.6824653 C18.6357919,20.1716883 15.8073185,23 12.3178959,23 C8.82847341,23 6,20.1716883 6,16.6824653 C6,13.1932422 8.82847341,10.3649305 12.3178959,10.3649305 C13.8876501,10.3649305 15.3193825,10.9403122 16.4245283,11.8869704 L16.6927959,11.6206621 L16.6927959,10.8508947 L21.5507719,6 L23,7.44914527 L18.1517439,12.3087874 L18.1517439,12.3087874 Z M12.3178959,12.3087874 C9.90154374,12.3087874 7.94396798,14.2662512 7.94396798,16.6824653 C7.94396798,19.0977074 9.90154374,21.0561432 12.3178959,21.0561432 C14.7332762,21.0561432 16.6918239,19.0977074 16.6918239,16.6824653 C16.6918239,14.2662512 14.7332762,12.3087874 12.3178959,12.3087874 L12.3178959,12.3087874 Z" id="Shape" transform="translate(14.500000, 14.500000) scale(1, -1) translate(-14.500000, -14.500000) "></path>
                </g>
            </g>
        </g>
    </g>
</svg>