<?xml version="1.0" encoding="UTF-8"?>
<svg width="10px" height="18px" viewBox="0 0 10 18" version="1.1" xmlns="http://www.w3.org/2000/svg" xmlns:xlink="http://www.w3.org/1999/xlink">
    <!-- Generator: Sketch 62 (91390) - https://sketch.com -->
    <title>Forward</title>
    <desc>Created with Sketch.</desc>
    <g id="Category-Listing" stroke="none" stroke-width="1" fill="none" fill-rule="evenodd">
        <g id="9----Category-Listing----Simple---Filter-Applied" transform="translate(-1343.000000, -4017.000000)" fill="#646464">
            <g id="Group-17-Copy-2" transform="translate(1348.000000, 4017.500000) scale(-1, 1) translate(-1348.000000, -4017.500000) translate(1336.000000, 3767.000000)">
                <path d="M7.77600509,267.874322 L16.8667076,259.302945 C17.0444308,259.135803 17.0444308,258.864519 16.8667076,258.696948 L7.77600509,250.125571 C7.68737074,250.042 7.57100975,250 7.45464876,250 C7.33828777,250 7.22192677,250.042 7.13329243,250.125571 C6.95556919,250.293141 6.95556919,250.564425 7.13329243,250.731567 L15.9026386,258.999946 L7.13329243,267.268326 C6.95556919,267.435896 6.95556919,267.70718 7.13329243,267.874322 C7.31101566,268.041893 7.59873639,268.041893 7.77600509,267.874322" id="Forward" transform="translate(12.000000, 259.000000) scale(-1, 1) translate(-12.000000, -259.000000) "></path>
            </g>
        </g>
    </g>
</svg>