<?xml version="1.0" encoding="UTF-8"?>
<svg width="14px" height="10px" viewBox="0 0 14 10" version="1.1" xmlns="http://www.w3.org/2000/svg" xmlns:xlink="http://www.w3.org/1999/xlink">
    <!-- Generator: Sketch 63.1 (92452) - https://sketch.com -->
    <title>Shape</title>
    <desc>Created with Sketch.</desc>
    <g id="Desktop" stroke="none" stroke-width="1" fill="none" fill-rule="evenodd">
        <g id="3.2-Shipping-&amp;-Payment---US-Store---Shipping-&amp;-Tax---Opened---Desktop" transform="translate(-1080.000000, -462.000000)" fill="#D88350" fill-rule="nonzero">
            <g id="Group-5" transform="translate(876.000000, 457.000000)">
                <path d="M216.974824,6.08365189 L216.972703,6.08200932 C217.066506,5.96777565 217.125,5.82412496 217.125,5.66569108 C217.125,5.2980528 216.822527,5 216.449436,5 C216.228037,5 216.033157,5.10646876 215.909955,5.26863577 L215.908743,5.26773982 L208.698941,11.8084757 L205.404015,10.1340939 C205.386133,10.1240891 205.367797,10.1151296 205.349157,10.1061701 L205.331882,10.0973599 L205.325366,10.0948214 C205.297482,10.0824274 205.268841,10.0715267 205.239594,10.0618206 L205.228683,10.0576395 L205.228683,10.0579381 C205.137911,10.0291184 205.041229,10.0132899 204.940758,10.0132899 C204.421129,10.0132899 204,10.4284136 204,10.9402998 C204,11.2280492 204.133052,11.485187 204.341873,11.6552682 L204.341873,11.6552682 L204.342025,11.6554175 C204.342177,11.6555668 204.342328,11.6557162 204.342631,11.6558655 L207.886689,14.5688986 C207.954427,14.6365428 208.02853,14.6977661 208.108543,14.7512245 L208.1093,14.7519711 L208.1093,14.7519711 C208.343884,14.9084637 208.626657,15 208.931252,15 C209.335256,15 209.701073,14.8390276 209.966419,14.5789034 L209.969601,14.5818899 L210.014457,14.5275355 C210.054009,14.4849779 210.090984,14.4403297 210.125232,14.393143 L216.974824,6.08365189 Z" id="Shape"></path>
            </g>
        </g>
    </g>
</svg>