<?xml version="1.0" encoding="UTF-8"?>
<svg width="38px" height="38px" viewBox="0 0 38 38" version="1.1" xmlns="http://www.w3.org/2000/svg" xmlns:xlink="http://www.w3.org/1999/xlink">
    <!-- Generator: Sketch 60.1 (88133) - https://sketch.com -->
    <title>Pinterest</title>
    <desc>Created with Sketch.</desc>
    <g id="Footer" stroke="none" stroke-width="1" fill="none" fill-rule="evenodd">
        <g id="1.-Footer---Desktop" transform="translate(-1279.000000, -826.000000)">
            <g id="Group-9" transform="translate(0.000000, 768.000000)">
                <g id="Group-17-Copy" transform="translate(1192.000000, 32.000000)">
                    <g id="Group-16" transform="translate(0.000000, 27.000000)">
                        <g id="Pinterest" transform="translate(88.000000, 0.000000)">
                            <path d="M27.421875,-1.43182567e-15 C32.625,-1.43182567e-15 36,3.375 36,8.578125 L36,27.421875 C36,32.625 32.625,36 27.421875,36 L8.578125,36 C3.375,36 0,32.625 0,27.421875 L0,8.578125 C0,3.375 3.375,-1.43182567e-15 8.578125,-1.43182567e-15 L27.421875,-1.43182567e-15 Z" id="App-Icon-Shape" fill="#FFFFFF"></path>
                            <path d="M27.421875,-1.43182567e-15 C32.625,-1.43182567e-15 36,3.375 36,8.578125 L36,27.421875 C36,32.625 32.625,36 27.421875,36 L8.578125,36 C3.375,36 0,32.625 0,27.421875 L0,8.578125 C0,3.375 3.375,-1.43182567e-15 8.578125,-1.43182567e-15 L27.421875,-1.43182567e-15 Z" id="Border" stroke="#E9C0A8" stroke-width="0.5"></path>
                            <g id="Icon" transform="translate(3.000000, 3.000000)">
                                <circle id="Oval" fill="#BD081C" cx="15" cy="15" r="15"></circle>
                                <path d="M9.77259491,23.7121721 L11.2545942,17.5029522 C11.2545942,17.5029522 11.4045942,16.7529522 11.0214949,16.0834721 C11.0214949,16.0834721 10.1682949,13.9507721 11.8542949,12.1426721 C11.8542949,12.1426721 13.2354949,10.5784721 15.0027949,11.7568721 C15.0027949,11.7568721 16.0107942,12.5499522 15.6045942,14.0529522 L14.4045942,17.8029522 C14.4045942,17.8029522 13.6716951,20.6529522 16.3839949,20.8978721 C16.3839949,20.8978721 19.2483949,21.2836721 20.6295949,17.4037721 C22.0107949,13.5241721 20.4045942,11.0529522 20.4045942,11.0529522 C20.4045942,11.0529522 18.3387956,7.42619199 13.6716949,8.18957208 C9.00459418,8.95295218 8.41449491,13.4053721 8.41449491,13.4053721 C8.41449491,13.4053721 8.06409491,16.1473721 9.52779491,18.1468721 L8.82699491,20.5384721 C8.82699491,20.5384721 5.25459428,18.2529522 5.40459491,14.1475721 C5.40459491,14.1475721 5.55459427,7.30295204 12.5553949,5.65295208 C12.5553949,5.65295208 18.8965772,4.05606606 22.65,9.14999991 C24.7499989,12 24.5999995,15.1029516 24.15,17.403772 C23.7000005,19.7045924 22.0002949,21.1774721 22.0002949,21.1774721 C22.0002949,21.1774721 17.4045942,26.052951 13.4067949,21.7501721 L12.5553949,25.0300721 C12.5553949,25.0300721 11.5563942,28.583751 10.2045942,29.502951 L9.58299491,29.3437721 C9.58299491,29.3437721 9.27369491,25.3852721 9.77259491,23.7121721 Z" fill="#FFFFFF"></path>
                            </g>
                        </g>
                    </g>
                </g>
            </g>
        </g>
    </g>
</svg>