<?xml version="1.0" encoding="UTF-8"?>
<svg width="36px" height="36px" viewBox="0 0 36 36" version="1.1" xmlns="http://www.w3.org/2000/svg" xmlns:xlink="http://www.w3.org/1999/xlink">
    <!-- Generator: Sketch 60.1 (88133) - https://sketch.com -->
    <title>Twitter</title>
    <desc>Created with Sketch.</desc>
    <g id="Footer" stroke="none" stroke-width="1" fill="none" fill-rule="evenodd">
        <g id="1.-Footer---Desktop" transform="translate(-1324.000000, -827.000000)">
            <g id="Group-9" transform="translate(0.000000, 768.000000)">
                <g id="Group-17-Copy" transform="translate(1192.000000, 32.000000)">
                    <g id="Group-16" transform="translate(0.000000, 27.000000)">
                        <g id="Twitter" transform="translate(132.000000, 0.000000)">
                            <path d="M27.421875,-1.43182567e-15 C32.625,-1.43182567e-15 36,3.375 36,8.578125 L36,27.421875 C36,32.625 32.625,36 27.421875,36 L8.578125,36 C3.375,36 0,32.625 0,27.421875 L0,8.578125 C0,3.375 3.375,-1.43182567e-15 8.578125,-1.43182567e-15 L27.421875,-1.43182567e-15 Z" id="App-Icon-Shape" fill="#1DA1F2"></path>
                            <path d="M8.0031,9.24643959 C8.0031,9.24643959 12.0882,14.3242396 18.3114,14.6296396 C18.3114,14.6296396 17.0412,11.2618396 20.8383,8.95333959 C20.8383,8.95333959 23.9232,7.14133959 26.9004,10.0753396 C26.9004,10.0753396 28.2432,10.0102396 29.8617,8.82013959 C29.8617,8.82013959 30.0999,9.91513959 27.9894,11.6764396 C27.9894,11.6764396 29.1636,11.5813396 30.4965,10.7083396 C30.4965,10.7083396 30.2427,12.2158396 28.0686,13.3108396 C28.0686,13.3108396 28.7301,25.2382396 17.0904,27.8488396 C17.0904,27.8488396 10.935,29.2378396 6.6,25.8370396 C6.6,25.8370396 11.1984,26.3158396 13.6413,23.7532396 C13.6413,23.7532396 10.5759,24.0406396 9.0669,20.4241396 C9.0669,20.4241396 10.5996,20.6875396 11.2224,20.1847396 C11.2224,20.1847396 7.989,20.2084396 7.2705,15.3706396 C7.2705,15.3706396 8.5878,16.0411396 9.45,15.9214396 C9.45,15.9214396 5.7897,13.6606396 8.0031,9.24643959" id="Icon" fill="#FFFFFF"></path>
                        </g>
                    </g>
                </g>
            </g>
        </g>
    </g>
</svg>