<?xml version="1.0" encoding="UTF-8"?>
<svg width="22px" height="18px" viewBox="0 0 22 18" version="1.1" xmlns="http://www.w3.org/2000/svg" xmlns:xlink="http://www.w3.org/1999/xlink">
    <!-- Generator: Sketch 60.1 (88133) - https://sketch.com -->
    <title>Group 5</title>
    <desc>Created with Sketch.</desc>
    <g id="02-Contact-Us" stroke="none" stroke-width="1" fill="none" fill-rule="evenodd">
        <g id="1.1-Contact-Us----Normal-State---Desktop" transform="translate(-329.000000, -239.000000)" fill-rule="nonzero">
            <g id="Group-5" transform="translate(328.000000, 236.000000)">
                <rect id="Rectangle-4" x="0" y="0" width="24" height="24"></rect>
                <g id="Group" transform="translate(1.000000, 3.000000)" fill="#D88350">
                    <path d="M21.8854167,11.835 C21.8854167,10.17 20.6020833,8.7075 18.7229167,7.92 C18.76875,7.6275 18.7916667,7.3125 18.7916667,7.02 C18.7916667,5.1075 17.7833333,3.33 15.95,2.025 C14.2083333,0.7875 11.89375,0.09 9.46458333,0.09 C7.03541667,0.09 4.72083333,0.7875 2.97916667,2.025 C1.14583333,3.33 0.1375,5.1075 0.1375,7.02 C0.1375,8.1675 0.527083333,9.2925 1.2375,10.305 C1.76458333,11.025 2.475,11.6775 3.3,12.24 C3.09375,12.69 2.75,13.185 2.26875,13.7025 C1.87916667,14.1075 1.76458333,14.6925 1.99375,15.21 C2.22291667,15.7275 2.72708333,16.0425 3.27708333,16.0425 C3.36875,16.0425 3.46041667,16.0425 3.55208333,16.02 C5.43125,15.66 7.33333333,14.715 8.68541667,13.95 C8.9375,13.9725 9.18958333,13.9725 9.46458333,13.9725 C9.64791667,13.9725 9.83125,13.9725 10.0145833,13.95 C11.06875,15.3675 13.1770833,16.335 15.5833333,16.335 C15.8354167,16.335 16.0875,16.3125 16.3395833,16.3125 C17.2791667,16.875 18.7458333,17.6175 20.1666667,17.8875 C20.4875,17.955 20.69375,17.5725 20.4645833,17.325 C19.8229167,16.65 19.4791667,15.975 19.31875,15.435 C20.8770833,14.625 21.8854167,13.32 21.8854167,11.835 Z M9.4875,13.005 L9.46458333,13.005 C9.12083333,13.005 8.8,12.9825 8.45625,12.96 C7.19583333,13.7025 5.24791667,14.715 3.36875,15.075 C3.34583333,15.075 3.3,15.075 3.27708333,15.075 C2.91041667,15.075 2.68125,14.625 2.95625,14.3325 C3.82708333,13.4325 4.2625,12.5325 4.46875,11.835 C2.40625,10.755 1.07708333,9 1.07708333,7.02 C1.07708333,3.7125 4.83541667,1.035 9.46458333,1.035 C14.09375,1.035 17.8520833,3.7125 17.8520833,7.02 C17.8520833,7.2225 17.8291667,7.425 17.80625,7.605 C17.39375,10.6425 13.81875,13.005 9.4875,13.005 Z" id="Shape"></path>
                    <ellipse id="Oval" cx="5.45416667" cy="7.02" rx="1.19166667" ry="1.17"></ellipse>
                    <ellipse id="Oval" cx="9.46458333" cy="7.02" rx="1.19166667" ry="1.17"></ellipse>
                    <ellipse id="Oval" cx="13.475" cy="7.02" rx="1.19166667" ry="1.17"></ellipse>
                </g>
            </g>
        </g>
    </g>
</svg>