<?xml version="1.0" encoding="UTF-8"?>
<svg width="18px" height="14px" viewBox="0 0 18 14" version="1.1" xmlns="http://www.w3.org/2000/svg" xmlns:xlink="http://www.w3.org/1999/xlink">
    <!-- Generator: Sketch 60.1 (88133) - https://sketch.com -->
    <title>Group 8</title>
    <desc>Created with Sketch.</desc>
    <g id="02-Contact-Us" stroke="none" stroke-width="1" fill="none" fill-rule="evenodd">
        <g id="1.1-Contact-Us----Normal-State---Desktop" transform="translate(-329.000000, -419.000000)" fill-rule="nonzero">
            <g id="Group-8" transform="translate(326.000000, 414.000000)">
                <rect id="Rectangle-4" x="0" y="0" width="24" height="24"></rect>
                <g id="Group" transform="translate(3.000000, 5.000000)" fill="#D88350">
                    <g id="Shape">
                        <path d="M15.4764455,12.0152154 C15.4764455,12.1745231 15.349195,12.3036769 15.192235,12.3036769 L9.00000758,12.3036769 C8.84304758,12.3036769 8.71579705,12.1745231 8.71579705,12.0152154 L8.71579705,8.02563845 C8.71579705,7.86633076 8.84304758,7.73717693 9.00000758,7.73717693 L15.192235,7.73717693 C15.349195,7.73717693 15.4764455,7.86633076 15.4764455,8.02563845 L15.4764455,12.0152154 Z M0.955030738,6.60317693 L0.955030738,13.9352923 L2.75620547,13.9352923 L2.75620547,8.02563845 C2.75620547,7.86633076 2.883456,7.73717693 3.040416,7.73717693 L6.7541002,7.73717693 C6.9110602,7.73717693 7.03831073,7.86633076 7.03831073,8.02563845 L7.03831073,13.9352923 L17.057035,13.9352923 L17.057035,6.60317693 L0.955030738,6.60317693 Z M1.79485768,0 L0.15393979,3.72996155 L17.842483,3.72996155 L16.1687103,0 L1.79485768,0 Z M3.32465684,13.9352885 L6.46992,13.9352885 L6.46992,8.31413462 L3.32465684,8.31413462 L3.32465684,13.9352885 Z M0,4.30684615 L0,6.02626924 L0.670812631,6.02626924 L17.3412758,6.02626924 L18,6.02626924 L18,4.30684615 L0,4.30684615 Z"></path>
                    </g>
                </g>
            </g>
        </g>
    </g>
</svg>