<svg xmlns="http://www.w3.org/2000/svg" xmlns:xlink="http://www.w3.org/1999/xlink" width="24" height="23" version="1.1"><rect id="backgroundrect" width="100%" height="100%" x="0" y="0" fill="none" stroke="none"/>
    <!-- Generator: Sketch 60.1 (88133) - https://sketch.com -->
    <title>Shape</title>
    <desc>Created with Sketch.</desc>
    <defs>
        <path d="M188.067496,8 C186.365897,8 185.005329,9.3329138 184.159858,10.2154199 C183.296625,9.3402375 181.91119,8 180.213144,8 C177.726465,8 176,9.8052926 176,12.3942213 C176,18.0151628 183.143872,22.6474044 183.460036,22.8341588 C183.804759,23.0552804 184.241422,23.0552804 184.586146,22.8341588 C184.888099,22.6400807 192,17.985868 192,12.3978832 C191.975133,9.68445151 190.479574,8 188.067496,8 Z M183.982238,21.9150342 C183.982238,21.9150342 177.040853,17.4841944 177.040853,12.3942213 C177.040853,10.4278073 178.280639,9.09855533 180.188277,9.09855533 C182.095915,9.09855533 183.790409,11.6618511 184.145648,11.6618511 C184.500888,11.6618511 186.145648,9.09855533 188.053286,9.09855533 C189.960924,9.09855533 190.895204,10.4278073 190.895204,12.3942213 C190.909414,17.4365903 183.982238,21.9150342 183.982238,21.9150342 Z" id="path-1"/>
        <filter x="-43.8%" y="-33.3%" width="187.5%" height="193.3%" filterUnits="objectBoundingBox" id="filter-2">
            <feOffset dx="0" dy="2" in="SourceAlpha" result="shadowOffsetOuter1"/>
            <feGaussianBlur stdDeviation="2" in="shadowOffsetOuter1" result="shadowBlurOuter1"/>
            <feColorMatrix values="0 0 0 0 0   0 0 0 0 0   0 0 0 0 0  0 0 0 0.2 0" type="matrix" in="shadowBlurOuter1"/>
        </filter>
    </defs>
    
<g class="currentLayer" style=""><title>Layer 1</title><g id="Desktop" stroke="none" stroke-width="1" fill="none" fill-rule="evenodd" class="selected">
        <g id="1.1-Home-Page-2.0---Full-Length---Desktop">
            <g id="Group-11">
                <g id="Shape">
                    <use fill="black" fill-opacity="1" filter="url(#filter-2)" xlink:href="#path-1" y="-7.250000011853198" x="-174.7259259322448" id="svg_1" transform="matrix(1.446428690212116,0,0,1.4666666683696548,-1.1285727517947919,-0.6714286379870877) "/>
                    <use fill="#FFFFFF" fill-rule="evenodd" xlink:href="#path-1" y="-7.250000011853198" x="-174.7259259322448" id="svg_2" transform="matrix(1.446428690212116,0,0,1.4666666683696548,-1.1285727517947919,-0.6714286379870877) "/>
                </g>
            </g>
        </g>
    </g></g></svg>