<?xml version="1.0" encoding="UTF-8"?>
<svg width="13px" height="16px" viewBox="0 0 13 16" version="1.1" xmlns="http://www.w3.org/2000/svg" xmlns:xlink="http://www.w3.org/1999/xlink">
    <!-- Generator: Sketch 62 (91390) - https://sketch.com -->
    <title>Group 35</title>
    <desc>Created with Sketch.</desc>
    <g id="Event-Listing" stroke="none" stroke-width="1" fill="none" fill-rule="evenodd">
        <g id="Event-Listing---Desktop" transform="translate(-553.000000, -85.000000)">
            <g id="Group-35" transform="translate(547.000000, 81.000000)">
                <rect id="Rectangle-30" opacity="0.5" x="0" y="0" width="24" height="24" rx="2"></rect>
                <g id="Bookmark" transform="translate(6.000000, 4.000000)" fill="#D88350">
                    <path d="M11.5142857,1.11627907 L11.5142857,14.5116279 L6.31428571,9.30232558 L1.11428571,14.5116279 L1.11428571,1.11627907 L11.5142857,1.11627907 L11.5142857,1.11627907 Z M11.5142857,0 L1.11428571,0 C0.498882707,0 0,0.499775163 0,1.11627907 L0,14.5116279 C0.00039614207,14.9628155 0.271878362,15.3694002 0.687999351,15.5420085 C1.10412034,15.7146168 1.58304815,15.6193046 1.90171429,15.3004651 L6.31428571,10.7906977 L10.7268571,15.3004651 C11.0455233,15.6193046 11.5244511,15.7146168 11.9405721,15.5420085 C12.3566931,15.3694002 12.6281753,14.9628155 12.6285714,14.5116279 L12.6285714,1.11627907 C12.6285714,0.499775163 12.1296887,0 11.5142857,0 Z" id="Shape"></path>
                </g>
            </g>
        </g>
    </g>
</svg>