<?xml version="1.0" encoding="UTF-8"?>
<svg width="6px" height="6px" viewBox="0 0 6 6" version="1.1" xmlns="http://www.w3.org/2000/svg" xmlns:xlink="http://www.w3.org/1999/xlink">
    <!-- Generator: Sketch 62 (91390) - https://sketch.com -->
    <title>Shape</title>
    <desc>Created with Sketch.</desc>
    <g id="01-My-Orders" stroke="none" stroke-width="1" fill="none" fill-rule="evenodd">
        <g id="1.1-My-Order---Full-Length---Mobile" transform="translate(-53.000000, -5174.000000)" fill="#FFFFFF">
            <g id="Group-8" transform="translate(48.000000, 5169.000000)">
                <path d="M10.8322251,5.15449984 C10.6264372,4.94850005 10.2930605,4.94850005 10.0872726,5.15449984 L8,7.2465234 L5.91272738,5.15449984 C5.70504745,4.96054118 5.3814148,4.96626429 5.1806908,5.16744517 C4.9799668,5.36862604 4.97425668,5.69299533 5.16777487,5.90114798 L7.25504748,7.99317154 L5.16777487,10.0851951 C5.02675875,10.2168944 4.96871148,10.4152386 5.01640506,10.6024172 C5.06409863,10.7895958 5.20992634,10.9357555 5.39667987,10.9835576 C5.58343339,11.0313597 5.78132719,10.9731803 5.91272738,10.8318432 L8,8.73981968 L10.0872726,10.8318432 C10.2186728,10.9731803 10.4165666,11.0313597 10.6033201,10.9835576 C10.7900737,10.9357555 10.9359014,10.7895958 10.9835949,10.6024172 C11.0312885,10.4152386 10.9732413,10.2168944 10.8322251,10.0851951 L8.74495252,7.99317154 L10.8322251,5.90114798 C11.0377571,5.69489168 11.0377571,5.36075614 10.8322251,5.15449984 L10.8322251,5.15449984 Z" id="Shape"></path>
            </g>
        </g>
    </g>
</svg>