<?xml version="1.0" encoding="UTF-8"?>
<svg width="37px" height="28px" viewBox="0 0 37 28" version="1.1" xmlns="http://www.w3.org/2000/svg" xmlns:xlink="http://www.w3.org/1999/xlink">
    <!-- Generator: Sketch 63.1 (92452) - https://sketch.com -->
    <title>Group</title>
    <desc>Created with Sketch.</desc>
    <defs>
        <filter x="-41.4%" y="-60.0%" width="182.8%" height="220.0%" filterUnits="objectBoundingBox" id="filter-1">
            <feOffset dx="0" dy="2" in="SourceAlpha" result="shadowOffsetOuter1"></feOffset>
            <feGaussianBlur stdDeviation="2" in="shadowOffsetOuter1" result="shadowBlurOuter1"></feGaussianBlur>
            <feColorMatrix values="0 0 0 0 0   0 0 0 0 0   0 0 0 0 0  0 0 0 0.2 0" type="matrix" in="shadowBlurOuter1" result="shadowMatrixOuter1"></feColorMatrix>
            <feMerge>
                <feMergeNode in="shadowMatrixOuter1"></feMergeNode>
                <feMergeNode in="SourceGraphic"></feMergeNode>
            </feMerge>
        </filter>
    </defs>
    <g id="Desktop" stroke="none" stroke-width="1" fill="none" fill-rule="evenodd">
        <g id="1.15-Home-Page---2.0-Instagram-Widget---Hover--Desktop" transform="translate(-848.000000, -384.000000)" fill="#FFFFFF">
            <g id="Group" filter="url(#filter-1)" transform="translate(852.000000, 386.000000)">
                <path d="M23,6.52941176 L27.7082685,3.75984206 C28.1162969,3.51982537 28.6416412,3.65602575 28.8816579,4.06405413 C28.9591419,4.19577696 29,4.34582042 29,4.4986428 L29,16.3058346 C29,16.7792215 28.6162441,17.1629774 28.1428572,17.1629774 C27.9601754,17.1629774 27.7822717,17.1046116 27.6350939,16.9963926 L23,13.5882353 L23,13.5882353 L23,6.52941176 Z" id="Rectangle-2"></path>
                <path d="M16.5714287,0 C18.4649763,-7.91928273e-16 20,1.53502367 20,3.42857134 L20,16.5714287 C20,18.4649763 18.4649763,20 16.5714287,20 L3.42857134,20 C1.53502367,20 2.31892709e-16,18.4649763 0,16.5714287 L0,3.42857134 C-6.75981918e-16,1.53502367 1.53502367,3.47839063e-16 3.42857134,0 L16.5714287,0 Z M10,2.60869565 C5.91789533,2.60869565 2.60869565,5.91789533 2.60869565,10 C2.60869565,14.0821047 5.91789533,17.3913043 10,17.3913043 C14.0821047,17.3913043 17.3913043,14.0821047 17.3913043,10 C17.3913043,5.91789533 14.0821047,2.60869565 10,2.60869565 Z" id="Combined-Shape"></path>
                <circle id="Oval-3" cx="10" cy="10" r="5"></circle>
            </g>
        </g>
    </g>
</svg>