<?xml version="1.0" encoding="UTF-8"?>
<svg width="21px" height="18px" viewBox="0 0 21 18" version="1.1" xmlns="http://www.w3.org/2000/svg" xmlns:xlink="http://www.w3.org/1999/xlink">
    <!-- Generator: Sketch 62 (91390) - https://sketch.com -->
    <title>Group 29</title>
    <desc>Created with Sketch.</desc>
    <g id="01-My-Orders" stroke="none" stroke-width="1" fill="none" fill-rule="evenodd">
        <g id="1.1-My-Order---Full-Length---Mobile" transform="translate(-80.000000, -3302.000000)" fill-rule="nonzero">
            <g id="Group-19" transform="translate(32.000000, 3171.000000)">
                <g id="Group-2">
                    <g id="Group-29" transform="translate(46.000000, 128.000000)">
                        <rect id="Rectangle-12" x="0" y="0" width="24" height="24"></rect>
                        <path d="M2.3206525,9.50209205 C2.39771469,9.50209205 2.44908948,9.47698745 2.52615167,9.45188285 L4.34995682,8.39748954 L4.34995682,20.623431 C4.34995682,20.8242678 4.52976859,21 4.73526776,21 L7.76638054,21 L12.4671741,21 L17.1679676,21 L20.1990804,21 C20.4045796,21 20.5843914,20.8242678 20.5843914,20.623431 L20.5843914,8.42259414 L22.4081965,9.47698745 C22.4595713,9.50209205 22.5366335,9.52719665 22.6136957,9.52719665 C22.7421327,9.52719665 22.8705696,9.45188285 22.9476318,9.35146444 C23.0503814,9.17573222 22.9990066,8.94979079 22.8191948,8.82426778 L12.6726733,3.05020921 C12.6726733,3.05020921 12.6726733,3.05020921 12.6469859,3.05020921 C12.6469859,3.05020921 12.6212985,3.05020921 12.6212985,3.0251046 C12.6212985,3.0251046 12.5956111,3.0251046 12.5956111,3 C12.5956111,3 12.5699237,3 12.5699237,3 C12.5442363,3 12.5442363,3 12.5185489,3 C12.5185489,3 12.4928615,3 12.4928615,3 C12.4928615,3 12.4671741,3 12.4671741,3 C12.4414867,3 12.4414867,3 12.4414867,3 C12.4414867,3 12.4157993,3 12.4157993,3 C12.4157993,3 12.3901119,3 12.3901119,3.0251046 C12.3901119,3.0251046 12.3644245,3.0251046 12.3644245,3.05020921 C12.3644245,3.05020921 12.3644245,3.05020921 12.3387371,3.05020921 L2.19221552,8.82426778 C2.01240374,8.92468619 1.93534155,9.15062762 2.06377854,9.35146444 C2.06377854,9.45188285 2.19221552,9.50209205 2.3206525,9.50209205 Z M16.7826567,20.2468619 L12.852485,20.2468619 L12.852485,17.5857741 L14.8304146,17.5857741 L16.8083441,17.5857741 L16.8083441,20.2468619 L16.7826567,20.2468619 Z M10.4892446,14.1715481 L14.4194162,14.1715481 L14.4194162,16.832636 L12.4671741,16.832636 L10.4892446,16.832636 L10.4892446,14.1715481 Z M8.15169149,17.5857741 L10.129621,17.5857741 L12.1075505,17.5857741 L12.1075505,20.2468619 L8.15169149,20.2468619 L8.15169149,17.5857741 Z M19.8137695,8.19665272 L19.8137695,20.2468619 L17.5532786,20.2468619 L17.5532786,17.209205 L17.5532786,10.1046025 C17.5532786,9.90376569 17.3734668,9.72803347 17.1679676,9.72803347 L7.76638054,9.72803347 C7.56088137,9.72803347 7.38106959,9.90376569 7.38106959,10.1046025 L7.38106959,17.209205 L7.38106959,20.2468619 L5.12057871,20.2468619 L5.12057871,8.07112971 C5.12057871,8.0460251 5.12057871,7.9958159 5.09489131,7.9707113 L12.4671741,3.80334728 L19.8651443,8.0209205 C19.8394569,8.07112971 19.8137695,8.12133891 19.8137695,8.19665272 Z" id="Shape" fill="#000000"></path>
                    </g>
                </g>
            </g>
        </g>
    </g>
</svg>