<?xml version="1.0" encoding="UTF-8"?>
<svg width="18px" height="18px" viewBox="0 0 18 18" version="1.1" xmlns="http://www.w3.org/2000/svg" xmlns:xlink="http://www.w3.org/1999/xlink">
    <!-- Generator: Sketch 62 (91390) - https://sketch.com -->
    <title>Group 18</title>
    <desc>Created with Sketch.</desc>
    <g id="01-My-Orders" stroke="none" stroke-width="1" fill="none" fill-rule="evenodd">
        <g id="1.1-My-Order---Full-Length---Mobile" transform="translate(-81.000000, -3344.000000)">
            <g id="Group-19" transform="translate(32.000000, 3171.000000)">
                <g id="Group-2">
                    <g id="Group-18" transform="translate(46.000000, 170.000000)">
                        <path d="M12,3 C9.514875,3 7.276125,4.018125 5.647125,5.647125 L3,3 L3,9.75 L9.75,9.75 L7.233375,7.233375 C8.454,6.009375 10.138125,5.25 12,5.25 C15.722625,5.25 18.75,8.277375 18.75,12 C18.75,15.722625 15.722625,18.75 12,18.75 C8.277375,18.75 5.25,15.722625 5.25,12 L3,12 C3,16.97025 7.02975,21 12,21 C16.97025,21 21,16.97025 21,12 C21,7.02975 16.97025,3 12,3 Z" id="Shape" fill="#000000" fill-rule="nonzero"></path>
                        <rect id="Rectangle-2" x="0" y="0" width="24" height="24"></rect>
                        <path d="M15.0355788,9.17301502 L11.2353706,13.4448343 L8.96442125,10.892057 C8.7384658,10.6553803 8.38635398,10.6623639 8.16796659,10.9078534 C7.94957919,11.153343 7.94336659,11.5491524 8.15391407,11.8031492 L10.830117,14.8114726 C11.0540139,15.0628425 11.4167273,15.0628425 11.6406242,14.8114726 L15.8460859,10.0841073 C16.0566334,9.83011043 16.0504208,9.43430104 15.8320334,9.18881147 C15.613646,8.9433219 15.2615342,8.93633831 15.0355788,9.17301502 L15.0355788,9.17301502 Z" id="Shape" fill="#000000"></path>
                    </g>
                </g>
            </g>
        </g>
    </g>
</svg>