<?xml version="1.0" encoding="UTF-8"?>
<svg width="24px" height="24px" viewBox="0 0 24 24" version="1.1" xmlns="http://www.w3.org/2000/svg" xmlns:xlink="http://www.w3.org/1999/xlink">
    <!-- Generator: Sketch 62 (91390) - https://sketch.com -->
    <title>Add-2</title>
    <desc>Created with Sketch.</desc>
    <g id="Desktop" stroke="none" stroke-width="1" fill="none" fill-rule="evenodd">
        <g id="2.9-Shipping-&amp;-Payment---EMI-bank-Selected---Desktop-Copy" transform="translate(-104.000000, -779.000000)" fill="#03A9F4">
            <g id="Add-2" transform="translate(104.000000, 779.000000)">
                <path d="M12.1173333,0.213333333 C5.63719227,0.213333333 0.384,5.4665256 0.384,11.9466667 C0.384,18.4268077 5.63719227,23.68 12.1173333,23.68 C18.5974744,23.68 23.8506667,18.4268077 23.8506667,11.9466667 C23.8506667,5.4665256 18.5974744,0.213333333 12.1173333,0.213333333 L12.1173333,0.213333333 Z M12.1173333,22.08 C6.52084787,22.08 1.984,17.5431521 1.984,11.9466667 C1.984,6.3501812 6.52084787,1.81333333 12.1173333,1.81333333 C17.7138188,1.81333333 22.2506667,6.3501812 22.2506667,11.9466667 C22.2506667,14.6341938 21.1830507,17.2116467 19.282682,19.1120154 C17.3823134,21.012384 14.8048604,22.08 12.1173333,22.08 Z" id="Shape"></path>
                <path d="M16.384,11.4133333 L13.184,11.4133333 L13.184,8.21333333 C13.184,7.77150553 12.8258278,7.41333333 12.384,7.41333333 C11.9421722,7.41333333 11.584,7.77150553 11.584,8.21333333 L11.584,11.4133333 L8.384,11.4133333 C7.9421722,11.4133333 7.584,11.7715055 7.584,12.2133333 C7.584,12.6551611 7.9421722,13.0133333 8.384,13.0133333 L11.584,13.0133333 L11.584,16.2133333 C11.584,16.6551611 11.9421722,17.0133333 12.384,17.0133333 C12.8258278,17.0133333 13.184,16.6551611 13.184,16.2133333 L13.184,13.0133333 L16.384,13.0133333 C16.8258278,13.0133333 17.184,12.6551611 17.184,12.2133333 C17.184,11.7715055 16.8258278,11.4133333 16.384,11.4133333 L16.384,11.4133333 Z" id="Shape"></path>
            </g>
        </g>
    </g>
</svg>