<?xml version="1.0" encoding="UTF-8"?>
<svg width="17px" height="16px" viewBox="0 0 17 16" version="1.1" xmlns="http://www.w3.org/2000/svg" xmlns:xlink="http://www.w3.org/1999/xlink">
    <!-- Generator: Sketch 60.1 (88133) - https://sketch.com -->
    <title>Filter-2</title>
    <desc>Created with Sketch.</desc>
    <g id="Category-Listing" stroke="none" stroke-width="1" fill="none" fill-rule="evenodd">
        <g id="1-A----Category-Listing----Simple---Full-Length" transform="translate(-96.000000, -174.000000)" fill="#BB4225">
            <g id="Group-19" transform="translate(80.000000, 160.000000)">
                <g id="Filter-2" transform="translate(16.000000, 14.000000)">
                    <path d="M0.877674419,2.96 L1.94906977,2.96 C2.2123193,3.90712339 3.06606724,4.56150862 4.03848837,4.56150862 C5.0109095,4.56150862 5.86465744,3.90712339 6.12790698,2.96 L16.2962791,2.96 C16.6237968,2.96 16.8893023,2.69137085 16.8893023,2.36 C16.8893023,2.02862915 16.6237968,1.76 16.2962791,1.76 L6.13186047,1.76 C5.86861093,0.812876612 5.01486299,0.158491379 4.04244186,0.158491379 C3.07002073,0.158491379 2.21627279,0.812876612 1.95302326,1.76 L0.877674419,1.76 C0.550156718,1.76 0.284651163,2.02862915 0.284651163,2.36 C0.284651163,2.69137085 0.550156718,2.96 0.877674419,2.96 Z M4.04046512,1.36 C4.58632795,1.36 5.02883721,1.80771525 5.02883721,2.36 C5.02883721,2.91228475 4.58632795,3.36 4.04046512,3.36 C3.49460228,3.36 3.05209302,2.91228475 3.05209302,2.36 C3.05209302,1.80771525 3.49460228,1.36 4.04046512,1.36 Z" id="Shape"></path>
                    <path d="M16.2962791,7.36 L10.6111628,7.36 C10.2876364,6.51413569 9.48342156,5.95653517 8.58697674,5.95653517 C7.69053193,5.95653517 6.88631713,6.51413569 6.5627907,7.36 L0.877674419,7.36 C0.550156718,7.36 0.284651163,7.62862915 0.284651163,7.96 C0.284651163,8.29137085 0.550156718,8.56 0.877674419,8.56 L6.45209302,8.56 C6.64561373,9.59974786 7.54323328,10.3528686 8.58895349,10.3528686 C9.63467369,10.3528686 10.5322932,9.59974786 10.725814,8.56 L16.2962791,8.56 C16.6237968,8.56 16.8893023,8.29137085 16.8893023,7.96 C16.8893023,7.62862915 16.6237968,7.36 16.2962791,7.36 Z M8.58697674,9.16 C8.04111391,9.16 7.59860465,8.71228475 7.59860465,8.16 C7.59860465,7.60771525 8.04111391,7.16 8.58697674,7.16 C9.13283958,7.16 9.57534884,7.60771525 9.57534884,8.16 C9.57534884,8.71228475 9.13283958,9.16 8.58697674,9.16 Z" id="Shape"></path>
                    <path d="M16.2962791,12.96 L15.2248837,12.96 C14.9616342,12.0128766 14.1078862,11.3584914 13.1354651,11.3584914 C12.163044,11.3584914 11.309296,12.0128766 11.0460465,12.96 L0.877674419,12.96 C0.550156718,12.96 0.284651163,13.2286292 0.284651163,13.56 C0.284651163,13.8913708 0.550156718,14.16 0.877674419,14.16 L11.042093,14.16 C11.3053426,15.1071234 12.1590905,15.7615086 13.1315116,15.7615086 C14.1039328,15.7615086 14.9576807,15.1071234 15.2209302,14.16 L16.2962791,14.16 C16.6237968,14.16 16.8893023,13.8913708 16.8893023,13.56 C16.8893023,13.2286292 16.6237968,12.96 16.2962791,12.96 Z M13.1334884,14.56 C12.5876255,14.56 12.1451163,14.1122847 12.1451163,13.56 C12.1451163,13.0077153 12.5876255,12.56 13.1334884,12.56 C13.6793512,12.56 14.1218605,13.0077153 14.1218605,13.56 C14.1218605,14.1122847 13.6793512,14.56 13.1334884,14.56 Z" id="Shape"></path>
                </g>
            </g>
        </g>
    </g>
</svg>