<svg xmlns="http://www.w3.org/2000/svg" xmlns:xlink="http://www.w3.org/1999/xlink" width="52" height="50" version="1.1" style=""><rect id="backgroundrect" width="100%" height="100%" x="0" y="0" fill="none" stroke="none"/>
    <!-- Generator: Sketch 60.1 (88133) - https://sketch.com -->
    <title>Group 6</title>
    <desc>Created with Sketch.</desc>
    <defs>
        <filter x="-55.6%" y="-55.6%" width="211.1%" height="211.1%" filterUnits="objectBoundingBox" id="filter-1">
            <feOffset dx="0" dy="2" in="SourceAlpha" result="shadowOffsetOuter1"/>
            <feGaussianBlur stdDeviation="4" in="shadowOffsetOuter1" result="shadowBlurOuter1"/>
            <feColorMatrix values="0 0 0 0 0   0 0 0 0 0   0 0 0 0 0  0 0 0 0.2 0" type="matrix" in="shadowBlurOuter1" result="shadowMatrixOuter1"/>
            <feMerge>
                <feMergeNode in="shadowMatrixOuter1"/>
                <feMergeNode in="SourceGraphic"/>
            </feMerge>
        </filter>
    </defs>
    
<g class="currentLayer" style=""><title>Layer 1</title><g id="Category-Listing" stroke="none" stroke-width="1" fill="none" fill-rule="evenodd" class="selected">
        <g id="1-A----Category-Listing----Simple---Full-Length">
            <g id="Group-6" filter="url(#filter-1)">
                <circle id="Oval" fill="#FFFFFF" cx="24.724282169532987" cy="25.02880632254658" r="24.584362030029297"/>
                <path d="M24.512215869759277,12.306501981120933 C23.303306450013103,15.878028917399023 22.09198391972234,19.449555768604913 20.88066152623693,23.018588441959235 C20.243631397273038,24.89413886732327 19.589710315328986,26.762207042707136 18.962332081322156,28.640251645922664 C18.716206844642247,29.37351200218432 18.322888978619016,29.94216285888399 17.548318252074292,30.10178428631739 C16.764095493767073,30.261405571963607 16.21152012970429,29.790023823217947 15.876114180644784,29.178973502701954 C15.021914636677526,27.617677576501745 14.12669426553214,26.05388747245005 13.484838093325974,24.39033408259294 C13.192865945183925,23.632132940326628 12.801961093941589,23.023576655875022 12.319362501858288,22.527254121124784 L21.479083801761856,13.745587814860478 C21.606972367580266,13.62337780747217 21.61421142560352,13.418863007766683 21.49597475474202,13.28667660090425 C21.377738083880594,13.154490208220547 21.17987259559664,13.147007958240453 21.051984029778232,13.269218022343587 L11.84400288571493,22.095777800130993 C11.380708234031662,21.72166530112651 10.849849784108073,21.419881265858567 10.253840537044521,21.165484766535545 C8.987019227695654,20.621774695840383 7.76121881392768,19.965830875443935 6.537831387579497,19.31986334109187 C5.7318917288136255,18.893375234013867 5.000754871588964,18.367123699343267 5.024884800509146,17.142528880459967 C5.005580860109111,16.384327738193733 5.550917261912586,15.952851275412746 6.250685214277126,15.690972667896743 C8.058016936909317,15.012582097560017 9.87258764916193,14.351650063247776 11.689571335153866,13.698200278915627 C15.147390228756766,12.45614696654395 18.612448153021738,11.234046297154686 22.06544107178512,9.977028456465447 C22.825533819088935,9.700185235559532 23.566322639673253,9.513129014414705 24.22506966909579,10.111708941928363 C24.90070778830401,10.730241526603088 24.777645169964106,11.528348082442543 24.512215869759277,12.306501981120933 z" id="Shape" fill="#8BC34A" fill-rule="nonzero"/>
                <path d="M17.38275689776234,30.13314391863623 L16.043158368745168,30.13314391863623 L14.59520995870453,27.591183795783596 L13.442761224182396,27.591183795783596 L13.442761224182396,30.13314391863623 L12.290312489660264,30.13314391863623 L12.290312489660264,23.323957565452627 L15.176359320557578,23.323957565452627 C16.47655789283897,23.323957565452627 17.33350695184259,24.191694956787895 17.33350695184259,25.457570680618076 C17.33350695184259,26.662194353295234 16.565207795494505,27.32575824078691 15.767358671594593,27.458471018285216 L17.38275689776234,30.13314391863623 zM15.028609482798327,26.539690250989132 C15.678708768938982,26.539690250989132 16.151508249768643,26.110925892917553 16.151508249768643,25.447362005425962 C16.151508249768643,24.794006793126478 15.678708768938982,24.375451110247102 15.028609482798327,24.375451110247102 L13.442761224182396,24.375451110247102 L13.442761224182396,26.539690250989132 L15.028609482798327,26.539690250989132 zM22.98740074342979,30.13314391863623 L22.98740074342979,29.081650373841757 L19.638404420886857,29.081650373841757 L19.638404420886857,27.182836788096413 L22.918450819142187,27.182836788096413 L22.918450819142187,26.13134324330194 L19.638404420886857,26.13134324330194 L19.638404420886857,24.375451110247102 L22.98740074342979,24.375451110247102 L22.98740074342979,23.323957565452627 L18.485955686364726,23.323957565452627 L18.485955686364726,30.13314391863623 L22.98740074342979,30.13314391863623 zM30.089242945057713,30.13314391863623 L28.77919438359236,30.13314391863623 L28.296544913578803,28.816224818845075 L25.282448223290164,28.816224818845075 L24.799798753276622,30.13314391863623 L23.489750191811268,30.13314391863623 L26.070447358006106,23.323957565452627 L27.508545778862782,23.323957565452627 L30.089242945057713,30.13314391863623 zM27.971495270508477,27.7647312740506 L26.789496568434448,24.518372562937593 L25.607497866360497,27.7647312740506 L27.971495270508477,27.7647312740506 zM33.2510894731056,30.13314391863623 L30.798442166302078,30.13314391863623 L30.798442166302078,23.323957565452627 L33.241239483921625,23.323957565452627 C35.29988722336714,23.323957565452627 36.67888570912017,24.732754741973384 36.67888570912017,26.72344640444833 C36.67888570912017,28.734555417307668 35.29988722336714,30.13314391863623 33.2510894731056,30.13314391863623 zM33.241239483921625,29.081650373841757 C34.66948791559442,29.081650373841757 35.49688700704615,28.0199481538551 35.49688700704615,26.72344640444833 C35.49688700704615,25.41673597984937 34.70888787233021,24.375451110247102 33.2510894731056,24.375451110247102 L31.950890900824206,24.375451110247102 L31.950890900824206,29.081650373841757 L33.241239483921625,29.081650373841757 zM40.815881166379135,30.13314391863623 L40.815881166379135,27.30534089040252 L43.35717837583818,23.323957565452627 L42.03727982518887,23.323957565452627 L40.234731804526085,26.233429995223737 L38.432183783863216,23.323957565452627 L37.11228523321397,23.323957565452627 L39.66343243185699,27.30534089040252 L39.66343243185699,30.13314391863623 L40.815881166379135,30.13314391863623 z" id="READY" fill="#212121"/>
                <path d="M25.216781628730498,37.912154415076806 C26.979929692657496,37.912154415076806 27.75807883818956,36.93212159662755 27.75807883818956,35.79895865029568 C27.75807883818956,33.26720720263525 23.936283034816974,34.05327519243303 23.936283034816974,32.777190793410654 C23.936283034816974,32.27696570899387 24.369682558910757,31.929870752459777 25.039481823419347,31.929870752459777 C25.72898106629587,31.929870752459777 26.428330298356343,32.17487895707207 26.950379725105684,32.71593874225755 L27.60047901124634,31.827784000537978 C26.999629671025435,31.2152634890072 26.162380590389663,30.868168532473113 25.14783170444282,30.868168532473113 C23.699883294402174,30.868168532473113 22.754284332743012,31.7359059238083 22.754284332743012,32.869068870140254 C22.754284332743012,35.370194292224184 26.576080136115603,34.482039550504524 26.576080136115603,35.911254077409666 C26.576080136115603,36.370644461057665 26.21163053630941,36.85045219509015 25.266031574650246,36.85045219509015 C24.349982580542914,36.85045219509015 23.630933370114573,36.40127048663425 23.18768385683681,35.90104540221747 L22.537584570696076,36.83003484470575 C23.128583921733092,37.462972706620924 24.005232959104653,37.912154415076806 25.216781628730498,37.912154415076806 zM34.53487139674707,37.789650312770625 L34.53487139674707,30.980463959587105 L33.38242266222493,30.980463959587105 L33.38242266222493,33.75722361185983 L29.96447641539432,33.75722361185983 L29.96447641539432,30.980463959587105 L28.81202768087219,30.980463959587105 L28.81202768087219,37.789650312770625 L29.96447641539432,37.789650312770625 L29.96447641539432,34.808717156654296 L33.38242266222493,34.808717156654296 L33.38242266222493,37.789650312770625 L34.53487139674707,37.789650312770625 zM37.08601859539009,37.789650312770625 L37.08601859539009,30.980463959587105 L35.93356986086795,30.980463959587105 L35.93356986086795,37.789650312770625 L37.08601859539009,37.789650312770625 zM39.637165794033116,37.789650312770625 L38.484717059510984,37.789650312770625 L38.484717059510984,30.980463959587105 L41.38061387959226,30.980463959587105 C42.75961236534523,30.980463959587105 43.51806153250935,31.950288102844087 43.51806153250935,33.114077074752544 C43.51806153250935,34.26765737146882 42.74976237616125,35.237481514725786 41.38061387959226,35.237481514725786 L39.637165794033116,35.237481514725786 L39.637165794033116,37.789650312770625 zM41.22301405264904,34.18598796993133 C41.87311333878969,34.18598796993133 42.33606283043539,33.75722361185983 42.33606283043539,33.114077074752544 C42.33606283043539,32.46072186245307 41.87311333878969,32.03195750438157 41.22301405264904,32.03195750438157 L39.637165794033116,32.03195750438157 L39.637165794033116,34.18598796993133 L41.22301405264904,34.18598796993133 z" id="SHIP" fill="#212121"/>
                <path d="M13.235911451319424,37.912154415076806 C13.51171114847,37.912154415076806 13.75796087806876,37.82027633834713 13.935260683379907,37.67735488565663 L13.856460769908262,37.06483437412593 C13.75796087806876,37.146503775663334 13.580661072757684,37.22817317720074 13.403361267446613,37.22817317720074 C13.088161613560167,37.22817317720074 12.93056178661703,37.06483437412593 12.93056178661703,36.76878279355265 C12.93056178661703,36.697322067207445 12.93056178661703,36.62586134086215 12.94041177580092,36.574817964901264 L13.600361051125617,33.53263275763185 L14.565659991152708,33.53263275763185 L14.713409828911885,32.85886019494804 L13.738260899700904,32.85886019494804 L14.023910586035448,31.51131506958039 L13.295011386423145,31.51131506958039 L13.0093617000886,32.85886019494804 L12.221362565372583,32.85886019494804 L12.073612727613328,33.53263275763185 L12.861611862329346,33.53263275763185 L12.172112619452827,36.72794809278396 C12.152412641084974,36.840243519897946 12.142562651901008,36.962747622204134 12.142562651901008,37.013790998165035 C12.142562651901008,37.63652018488793 12.566112186810837,37.912154415076806 13.235911451319424,37.912154415076806 zM17.057707254692012,37.912154415076806 C15.69840874730691,37.912154415076806 14.880859645039072,37.023999673357146 14.880859645039072,35.717289248758284 C14.880859645039072,34.16557061954702 16.003758412009386,32.73635609264187 17.530506735521598,32.73635609264187 C18.8898052429067,32.73635609264187 19.707354345174544,33.62451083436153 19.707354345174544,34.92101258376829 C19.707354345174544,36.48293988817166 18.584455578204228,37.912154415076806 17.057707254692012,37.912154415076806 zM17.07740723305987,37.22817317720074 C18.1609060432944,37.22817317720074 18.92920519964249,36.11542758125326 18.92920519964249,34.95163860934479 C18.92920519964249,34.022649166856525 18.407155772893155,33.42033733051794 17.510806757153667,33.42033733051794 C16.43715793610318,33.42033733051794 15.659008790571125,34.53308292646541 15.659008790571125,35.696871898373885 C15.659008790571125,36.62586134086215 16.18105821732046,37.22817317720074 17.07740723305987,37.22817317720074 z" id="to" fill="#212121"/>
            </g>
        </g>
    </g></g></svg>