<svg xmlns="http://www.w3.org/2000/svg" xmlns:xlink="http://www.w3.org/1999/xlink" width="24" height="29" version="1.1" style=""><rect id="backgroundrect" width="100%" height="100%" x="0" y="0" fill="none" stroke="none"/>
    <!-- Generator: Sketch 60.1 (88133) - https://sketch.com -->
    <title>Group</title>
    <desc>Created with Sketch.</desc>
    <defs>
        <filter x="-75.0%" y="-57.1%" width="250.0%" height="214.3%" filterUnits="objectBoundingBox" id="filter-1">
            <feOffset dx="0" dy="2" in="SourceAlpha" result="shadowOffsetOuter1"/>
            <feGaussianBlur stdDeviation="2" in="shadowOffsetOuter1" result="shadowBlurOuter1"/>
            <feColorMatrix values="0 0 0 0 0   0 0 0 0 0   0 0 0 0 0  0 0 0 0.2 0" type="matrix" in="shadowBlurOuter1" result="shadowMatrixOuter1"/>
            <feMerge>
                <feMergeNode in="shadowMatrixOuter1"/>
                <feMergeNode in="SourceGraphic"/>
            </feMerge>
        </filter>
    </defs>
    
<g class="currentLayer" style=""><title>Layer 1</title><g id="Category-Listing" stroke="none" stroke-width="1" fill="none" fill-rule="evenodd" class="selected">
        <g id="1-A----Category-Listing----Simple---Full-Length" fill="#FFFFFF" fill-rule="nonzero">
            <g id="Group" filter="url(#filter-1)">
                <path d="M9.152985868340608,28.428570129546614 L5.277612127098257,28.428570129546614 C2.7844550247064177,28.428570129546614 0.7563427781869803,26.599236883308123 0.7563427781869803,24.34523699062145 L0.7563427781869803,4.511904601556386 C0.7563427781869803,2.260238042091904 2.7844550247064177,0.42857146263122564 5.277612127098257,0.42857146263122564 L9.152985868340608,0.42857146263122564 C11.646142956603468,0.42857146263122564 13.674255828894907,2.260238042091904 13.674255828894907,4.511904601556386 L13.674255828894907,24.34523699062145 C13.675547004519304,26.599236883308123 11.646142956603468,28.428570129546614 9.152985868340608,28.428570129546614 zM5.277612127098257,1.5952380737527 C3.4962320020128175,1.5952380737527 2.0481340216412716,2.904238011430964 2.0481340216412716,4.511904601556386 L2.0481340216412716,24.34523699062145 C2.0481340216412716,25.952903580746877 3.4962320020128175,27.26190351842514 5.277612127098257,27.26190351842514 L9.152985868340608,27.26190351842514 C10.934365993426047,27.26190351842514 12.382463969558787,25.952903580746877 12.382463969558787,24.34523699062145 L12.382463969558787,4.511904601556386 C12.382463969558787,2.904238011430964 10.934365993426047,1.5952380737527 9.152985868340608,1.5952380737527 L5.277612127098257,1.5952380737527 z" id="Shape"/>
                <path d="M10.110203173879516,28.316570134878948 C9.807924018812821,28.316570134878948 9.53664785763229,28.12057014421055 9.477225464458172,27.844070157374745 C9.410052315748182,27.527903505760836 9.639991161166586,27.22223685364704 9.98877479293323,27.161570189868716 L14.57850909195105,26.36590356108381 C16.30434218750125,26.02873691046976 17.416574448341517,24.47240365123368 17.04066325697264,22.90207039266417 L12.39796546650187,4.018404625052039 C12.317874415446688,3.703404640049186 12.53747892486015,3.391904654879804 12.887554353925735,3.3219046582125036 C13.237629768862504,3.2484046617118074 13.578662659222095,3.451404652046995 13.660045507576221,3.76523797043864 L18.30274324153108,22.65240373788417 C18.82979410933599,24.856236966292624 17.273185640473177,27.03440352925649 14.835575482842717,27.508070173371745 L10.231631554825643,28.306070135378835 C10.192877819532587,28.311903468434497 10.150248706471517,28.316570134878948 10.110203173879516,28.316570134878948 L10.110203173879516,28.316570134878948 z" id="Shape"/>
                <path d="M15.936181723410442,27.067070194367872 C15.686865932636213,27.067070194367872 15.446592821857598,26.936403533922253 15.34324946180755,26.71240354458692 C15.202444276795214,26.418403558584288 15.353583811941467,26.074236908303444 15.681698828214142,25.94707024769122 L20.139670410280576,24.218070330009226 C21.72469830668962,23.534403695892067 22.40547219120717,21.789070445654303 21.638148212623644,20.337737181419175 L12.127981102620284,3.3790713221574302 C11.966507189081996,3.090904669210457 12.095686311435337,2.740904685873954 12.413466963444792,2.5950713594837698 C12.732539398624537,2.450404699704717 13.122660360282282,2.5647380275946463 13.281550679222521,2.851738013930564 L22.79817678984974,19.82090387269234 C23.87811418886001,21.862570442154922 22.924772331734008,24.30557032584335 20.67188838250772,25.276236946296432 L16.188080995751058,27.016903530089664 C16.107989958824856,27.051903528423235 16.021439864758875,27.067070194367872 15.936181723410442,27.067070194367872 L15.936181723410442,27.067070194367872 z" id="Shape"/>
                <path d="M10.44477710600202,24.92857029618219 L3.985820889436684,24.92857029618219 C3.630578299432955,24.92857029618219 3.3399252635414887,24.66607030867989 3.3399252635414887,24.34523699062145 L3.3399252635414887,20.84523715725703 C3.3399252635414887,20.524403839198595 3.630578299432955,20.261903851696292 3.985820889436684,20.261903851696292 L10.44477710600202,20.261903851696292 C10.80001969600575,20.261903851696292 11.090672731897376,20.524403839198595 11.090672731897376,20.84523715725703 L11.090672731897376,24.34523699062145 C11.090672731897376,24.66607030867989 10.801311493304691,24.92857029618219 10.44477710600202,24.92857029618219 zM4.6317165153318784,23.761903685060716 L9.798881480106825,23.761903685060716 L9.798881480106825,21.428570462817767 L4.6317165153318784,21.428570462817767 L4.6317165153318784,23.761903685060716 L4.6317165153318784,23.761903685060716 z" id="Shape"/>
                <path d="M10.44477710600202,17.928570629453343 L3.985820889436684,17.928570629453343 C3.630578299432955,17.928570629453343 3.3399252635414887,17.66607064195104 3.3399252635414887,17.345237323892604 L3.3399252635414887,13.845237490528183 C3.3399252635414887,13.523237505858692 3.630578299432955,13.261904184967445 3.985820889436684,13.261904184967445 L10.44477710600202,13.261904184967445 C10.80001969600575,13.261904184967445 11.090672731897376,13.523237505858692 11.090672731897376,13.845237490528183 L11.090672731897376,17.345237323892604 C11.090672731897376,17.66607064195104 10.801311493304691,17.928570629453343 10.44477710600202,17.928570629453343 zM4.6317165153318784,16.76190401833187 L9.798881480106825,16.76190401833187 L9.798881480106825,14.42857079608892 L4.6317165153318784,14.42857079608892 L4.6317165153318784,16.76190401833187 L4.6317165153318784,16.76190401833187 z" id="Shape"/>
                <path d="M10.44477710600202,10.928570962724496 L3.985820889436684,10.928570962724496 C3.630578299432955,10.928570962724496 3.3399252635414887,10.66723764183325 3.3399252635414887,10.345237657163759 L3.3399252635414887,6.845237823799335 C3.3399252635414887,6.523237839129844 3.630578299432955,6.261904518238599 3.985820889436684,6.261904518238599 L10.44477710600202,6.261904518238599 C10.80001969600575,6.261904518238599 11.090672731897376,6.523237839129844 11.090672731897376,6.845237823799335 L11.090672731897376,10.345237657163759 C11.090672731897376,10.66723764183325 10.801311493304691,10.928570962724496 10.44477710600202,10.928570962724496 zM4.6317165153318784,9.761904351603022 L9.798881480106825,9.761904351603022 L9.798881480106825,7.428571129360073 L4.6317165153318784,7.428571129360073 L4.6317165153318784,9.761904351603022 L4.6317165153318784,9.761904351603022 z" id="Shape"/>
                <path d="M7.215298990654864,5.642404547733079 C6.146987640174768,5.642404547733079 5.277612127098257,4.857237918448363 5.277612127098257,3.892404631050867 C5.277612127098257,2.927571343653448 6.146987640174768,2.1424047143686553 7.215298990654864,2.1424047143686553 C8.283610355263935,2.1424047143686553 9.152985868340608,2.927571343653448 9.152985868340608,3.892404631050867 C9.152985868340608,4.857237918448363 8.28490215256288,5.642404547733079 7.215298990654864,5.642404547733079 zM7.215298990654864,3.30907132549013 C6.860056400651295,3.30907132549013 6.569403378888645,3.571571312992507 6.569403378888645,3.892404631050867 C6.569403378888645,4.213237949109303 6.860056400651295,4.475737936611605 7.215298990654864,4.475737936611605 C7.570541594787568,4.475737936611605 7.861194616550218,4.213237949109303 7.861194616550218,3.892404631050867 C7.861194616550218,3.571571312992507 7.571833377957535,3.30907132549013 7.215298990654864,3.30907132549013 z" id="Shape" transform=""/>
            </g>
        </g>
    </g></g></svg>