<svg xmlns="http://www.w3.org/2000/svg" xmlns:xlink="http://www.w3.org/1999/xlink" width="86" height="86" version="1.1"><rect id="backgroundrect" width="100%" height="100%" x="0" y="0" fill="none" stroke="none"/>
    <!-- Generator: Sketch 60.1 (88133) - https://sketch.com -->
    <title>Pinterest</title>
    <desc>Created with Sketch.</desc>
    <defs>
        <filter x="-14.1%" y="-9.0%" width="128.3%" height="118.1%" filterUnits="objectBoundingBox" id="filter-1">
            <feOffset dx="0" dy="4" in="SourceAlpha" result="shadowOffsetOuter1"/>
            <feGaussianBlur stdDeviation="16" in="shadowOffsetOuter1" result="shadowBlurOuter1"/>
            <feColorMatrix values="0 0 0 0 0.91372549   0 0 0 0 0.752941176   0 0 0 0 0.658823529  0 0 0 0.3 0" type="matrix" in="shadowBlurOuter1" result="shadowMatrixOuter1"/>
            <feMerge>
                <feMergeNode in="shadowMatrixOuter1"/>
                <feMergeNode in="SourceGraphic"/>
            </feMerge>
        </filter>
    </defs>
    
<g class="currentLayer" style=""><title>Layer 1</title><g id="Desktop" stroke="none" stroke-width="1" fill="none" fill-rule="evenodd" class="selected">
        <g id="1.1-Home-Page-2.0---Full-Length---Desktop">
            <g id="Group-30" filter="url(#filter-1)">
                <g id="Group-28">
                    <g id="Group-40">
                        <g id="svg_1">
                            <g id="Pinterest">
                                <path d="M65.41059644644,0.49547695658878876 C77.86676950418503,0.49547695658878876 85.94644932542505,8.202207102624858 85.94644932542505,20.083416077763797 L85.94644932542505,63.11265939313185 C85.94644932542505,74.9938683682708 77.86676950418503,82.70059851430686 65.41059644644,82.70059851430686 L20.29905077784982,82.70059851430686 C7.8428777201047755,82.70059851430686 -0.2368021011352539,74.9938683682708 -0.2368021011352539,63.11265939313185 L-0.2368021011352539,20.083416077763797 C-0.2368021011352539,8.202207102624858 7.8428777201047755,0.49547695658878876 20.29905077784982,0.49547695658878876 L65.41059644644,0.49547695658878876 z" id="App-Icon-Shape" fill="#FFFFFF"/>
                                <g id="Icon">
                                    <circle id="Oval" fill="#BD081C" cx="42.8548238784134" cy="41.598037018768935" r="31.038175582885742"/>
                                    <path d="M30.340524511843174,61.492070024390145 L33.888399971904526,47.31346800917544 C33.888399971904526,47.31346800917544 34.24749685284862,45.60086131005631 33.33036514258278,44.07211972363372 C33.33036514258278,44.07211972363372 31.287822083773264,39.20215138252185 35.32407102558391,35.073399152282946 C35.32407102558391,35.073399152282946 38.63063510531623,31.501586620602644 42.8615146643274,34.192434266256036 C42.8615146643274,34.192434266256036 45.27464390878701,36.00341333393892 44.30220955519062,39.43547715897505 L41.42943447172865,47.99851068881934 C41.42943447172865,47.99851068881934 39.674889266017544,54.506416145477004 46.168078744059734,55.065684646619694 C46.168078744059734,55.065684646619694 53.02539278256662,55.9466495326466 56.331956862298945,47.08699255676167 C59.63852094203124,38.22802069206133 55.79330974539841,32.58505036249854 55.79330974539841,32.58505036249854 C55.79330974539841,32.58505036249854 50.84783109200637,24.303431954425793 39.674888835101356,26.04659176256858 C28.50194675774451,27.78975160496624 27.08926135177623,37.95674379092042 27.08926135177623,37.95674379092042 C27.08926135177623,37.95674379092042 26.25041103789097,44.218033814394765 29.754478402142304,48.7838432742482 L28.076777774372157,54.24500351639909 C28.076777774372157,54.24500351639909 19.52452494960279,49.026074708294566 19.883623338753733,39.65153938037007 C19.883623338753733,39.65153938037007 20.24271871149094,24.022016524378966 37.00248981120647,20.254281889074072 C37.00248981120647,20.254281889074072 52.183148644059656,16.607831628298374 61.16876454028905,28.239705276803015 C66.1961180007301,34.747610973226195 65.83702291527023,41.83312520190964 64.75973334972905,47.086992214237725 C63.68244378418748,52.34085956909598 59.61338416036534,55.70414442404679 59.61338416036534,55.70414442404679 C59.61338416036534,55.70414442404679 48.61137212651838,66.83718163896307 39.04072374335422,57.01189089949766 L37.00248984711618,64.50146251608231 C37.00248984711618,64.50146251608231 34.61090289636417,72.61620168447169 31.374721805296765,74.71517245490857 L29.886626054330005,74.3516912067352 C29.886626054330005,74.3516912067352 29.14616828582318,65.31255304878712 30.340524511843174,61.492070024390145 z" fill="#FFFFFF" id="svg_2"/>
                                </g>
                            </g>
                        </g>
                    </g>
                </g>
            </g>
        </g>
    </g></g></svg>