<?xml version="1.0" encoding="UTF-8"?>
<svg width="34px" height="34px" viewBox="0 0 34 34" version="1.1" xmlns="http://www.w3.org/2000/svg" xmlns:xlink="http://www.w3.org/1999/xlink">
    <!-- Generator: Sketch 60.1 (88133) - https://sketch.com -->
    <title>Group 11</title>
    <desc>Created with Sketch.</desc>
    <g id="Desktop" stroke="none" stroke-width="1" fill="none" fill-rule="evenodd">
        <g id="6.4-Shipping-&amp;-Payment---Delete-Address-Confirmation---Desktop" transform="translate(-703.000000, -199.000000)" fill-rule="nonzero">
            <g id="Group-9" transform="translate(556.000000, 176.000000)">
                <g id="Group-11" transform="translate(148.000000, 24.000000)">
                    <circle id="Oval" stroke="#E9C0A8" fill="#FFFFFF" cx="16" cy="16" r="16"></circle>
                    <g id="Group-12" transform="translate(4.000000, 4.000000)">
                        <rect id="Rectangle-4" x="0" y="0" width="24" height="24"></rect>
                        <g id="Group" transform="translate(5.000000, 4.000000)" fill="#EB3840">
                            <path d="M0,5.33333333 C0,6.069713 0.610520796,6.66666667 1.36363636,6.66666667 L1.36363636,13.3333333 C1.36363636,14.8060927 2.58467796,16 4.09090909,16 L10.9090909,16 C12.415322,16 13.6363636,14.8060927 13.6363636,13.3333333 L13.6363636,6.66666667 C14.3894792,6.66666667 15,6.069713 15,5.33333333 L15,4 C15,3.26362033 14.3894792,2.66666667 13.6363636,2.66666667 L10.9090909,2.66666667 L10.9090909,1.33333333 C10.9090909,0.596953667 10.2985701,0 9.54545455,0 L5.45454545,0 C4.70142989,0 4.09090909,0.596953667 4.09090909,1.33333333 L4.09090909,2.66666667 L1.36363636,2.66666667 C0.610520796,2.66666667 0,3.26362033 0,4 L0,5.33333333 Z M12.2727273,13.3333333 C12.2727273,14.069713 11.6622065,14.6666667 10.9090909,14.6666667 L4.09090909,14.6666667 C3.33779352,14.6666667 2.72727273,14.069713 2.72727273,13.3333333 L2.72727273,6.66666667 L12.2727273,6.66666667 L12.2727273,13.3333333 Z M5.45454545,1.33333333 L9.54545455,1.33333333 L9.54545455,2.66666667 L5.45454545,2.66666667 L5.45454545,1.33333333 Z M1.36363636,4 L13.6363636,4 L13.6363636,5.33333333 L1.36363636,5.33333333 L1.36363636,4 Z" id="Shape"></path>
                            <path d="M4.77272727,13.3333333 C5.14928506,13.3333333 5.45454545,13.0348565 5.45454545,12.6666667 L5.45454545,8.66666667 C5.45454545,8.29847683 5.14928506,8 4.77272727,8 C4.39616949,8 4.09090909,8.29847683 4.09090909,8.66666667 L4.09090909,12.6666667 C4.09090909,13.0348565 4.39616949,13.3333333 4.77272727,13.3333333 Z" id="Shape"></path>
                            <path d="M7.5,13.3333333 C7.87655778,13.3333333 8.18181818,13.0348565 8.18181818,12.6666667 L8.18181818,8.66666667 C8.18181818,8.29847683 7.87655778,8 7.5,8 C7.12344222,8 6.81818182,8.29847683 6.81818182,8.66666667 L6.81818182,12.6666667 C6.81818182,13.0348565 7.12344222,13.3333333 7.5,13.3333333 Z" id="Shape"></path>
                            <path d="M10.2272727,13.3333333 C10.6038305,13.3333333 10.9090909,13.0348565 10.9090909,12.6666667 L10.9090909,8.66666667 C10.9090909,8.29847683 10.6038305,8 10.2272727,8 C9.85071494,8 9.54545455,8.29847683 9.54545455,8.66666667 L9.54545455,12.6666667 C9.54545455,13.0348565 9.85071494,13.3333333 10.2272727,13.3333333 Z" id="Shape"></path>
                        </g>
                    </g>
                </g>
            </g>
        </g>
    </g>
</svg>