<?xml version="1.0" encoding="UTF-8"?>
<svg width="24px" height="24px" viewBox="0 0 24 24" version="1.1" xmlns="http://www.w3.org/2000/svg" xmlns:xlink="http://www.w3.org/1999/xlink">
    <!-- Generator: Sketch 60.1 (88133) - https://sketch.com -->
    <title>Group 16</title>
    <desc>Created with Sketch.</desc>
    <defs>
        <linearGradient x1="100%" y1="60.3841126%" x2="0%" y2="60.3841146%" id="linearGradient-1">
            <stop stop-color="#F01E6C" offset="0%"></stop>
            <stop stop-color="#FC5D1F" offset="100%"></stop>
        </linearGradient>
    </defs>
    <g id="Desktop" stroke="none" stroke-width="1" fill="none" fill-rule="evenodd">
        <g id="1.1-Navigation-Drawer---Full-Length---Desktop" transform="translate(-1156.000000, -573.000000)">
            <g id="Group-23" transform="translate(1140.000000, 561.000000)">
                <g id="Group-7">
                    <g id="Group-16" transform="translate(16.000000, 12.000000)">
                        <rect id="Rectangle-2" fill="#FFFFFF" x="0" y="0" width="24" height="24"></rect>
                        <g id="Gift" transform="translate(4.000000, 4.000000)" fill="url(#linearGradient-1)">
                            <path d="M14.0423077,3.60380952 C14.1567912,3.39155218 14.2175062,3.15492712 14.2192308,2.91428571 C14.2192308,2.04190476 13.6,0.914285714 11.8153846,0.914285714 C11.12948,0.977664816 10.4595686,1.15675384 9.83461538,1.44380952 L9.97692308,1.24571429 C10.1080251,1.08018225 10.1366893,0.856685724 10.051537,0.663944128 C9.96638478,0.471202532 9.78119137,0.340396132 9.56947138,0.323449976 C9.35775139,0.306503819 9.15375527,0.406159328 9.03846154,0.582857143 L7.63846154,2.52190476 L6.54615385,0.617142857 C6.38790302,0.342578439 6.03489677,0.247065852 5.75769231,0.403809524 C5.48048785,0.560553196 5.38405687,0.910197486 5.54230769,1.1847619 L5.80384615,1.63809524 C5.0502416,1.21772067 4.21249261,0.966708612 3.35,0.902857143 C2.60769231,0.902857143 2.16153846,1.26095238 1.7,1.5847619 C1.23851554,1.87034828 0.950288307,2.36423251 0.930769231,2.90285714 C0.932493772,3.14349855 0.993208766,3.38012361 1.10769231,3.59238095 C0.607761236,3.72754024 0.260132052,4.1762448 0.257692308,4.68952381 L0.257692308,6.62857143 C0.257692308,7.259754 0.774286827,7.77142857 1.41153846,7.77142857 L1.41153846,14.6285714 C1.41153846,15.259754 1.92813298,15.7714286 2.56538462,15.7714286 L12.5653846,15.7714286 C13.2026362,15.7714286 13.7192308,15.259754 13.7192308,14.6285714 L13.7192308,7.77142857 C14.3564824,7.77142857 14.8730769,7.259754 14.8730769,6.62857143 L14.8730769,4.70095238 C14.8730769,4.19301587 14.5346154,3.74603175 14.0423077,3.60380952 L14.0423077,3.60380952 Z M13.0653846,2.91428571 C13.0439871,3.07405779 12.9487379,3.21486675 12.8076923,3.2952381 C12.5767076,3.46485082 12.298934,3.56054755 12.0115385,3.56952381 L8.65,3.56952381 C9.44160476,2.6430019 10.5907671,2.08979753 11.8153846,2.04571429 C12.8115385,2.05714286 13.0653846,2.63619048 13.0653846,2.91428571 Z M1.43076923,4.72380952 L6.81538462,4.72380952 L6.81538462,6.62857143 L1.43076923,6.62857143 L1.43076923,4.72380952 Z M3.35384615,2.05714286 C4.57846362,2.1012261 5.72762601,2.65443047 6.51923077,3.58095238 L3.16153846,3.58095238 C2.43846154,3.58095238 2.10769231,3.16952381 2.10769231,2.93333333 C2.10769231,2.69714286 2.35769231,2.05714286 3.35384615,2.05714286 Z M2.58461538,7.77142857 L6.81538462,7.77142857 L6.81538462,14.6285714 L2.58461538,14.6285714 L2.58461538,7.77142857 Z M12.5846154,14.6285714 L7.96923077,14.6285714 L7.96923077,7.77142857 L12.5846154,7.77142857 L12.5846154,14.6285714 Z M13.7384615,6.62857143 L7.96923077,6.62857143 L7.96923077,4.72380952 L13.7384615,4.72380952 L13.7384615,6.62857143 Z" id="Shape"></path>
                        </g>
                    </g>
                </g>
            </g>
        </g>
    </g>
</svg>