<?xml version="1.0" encoding="UTF-8"?>
<svg width="15px" height="16px" viewBox="0 0 15 16" version="1.1" xmlns="http://www.w3.org/2000/svg" xmlns:xlink="http://www.w3.org/1999/xlink">
    <!-- Generator: Sketch 60.1 (88133) - https://sketch.com -->
    <title>Group 26</title>
    <desc>Created with Sketch.</desc>
    <g id="Desktop" stroke="none" stroke-width="1" fill="none" fill-rule="evenodd">
        <g id="1.1-Navigation-Drawer---Full-Length---Desktop" transform="translate(-1160.000000, -741.000000)">
            <g id="Group-27" transform="translate(1140.000000, 724.000000)">
                <g id="Group-26" transform="translate(16.000000, 13.000000)">
                    <rect id="Rectangle-2" x="0" y="0" width="24" height="24"></rect>
                    <g id="Take_off" transform="translate(4.000000, 4.000000)" fill="#424242">
                        <path d="M10.2769231,1.46341463 L10.2769231,2.74341463 C12.8545094,4.0158495 14.2248719,6.92547474 13.5814089,9.75967127 C12.9379458,12.5938678 10.4510895,14.6019491 7.58461538,14.6019491 C4.71814123,14.6019491 2.23128499,12.5938678 1.58782191,9.75967127 C0.944358825,6.92547474 2.31472136,4.0158495 4.89230769,2.74341463 L4.89230769,1.46341463 C1.63155706,2.77455082 -0.251202764,6.2513658 0.406580838,9.74702153 C1.06436444,13.2426773 4.07714599,15.7711304 7.58461538,15.7711304 C11.0920848,15.7711304 14.1048663,13.2426773 14.7626499,9.74702153 C15.4204335,6.2513658 13.5376737,2.77455082 10.2769231,1.46341463 L10.2769231,1.46341463 Z" id="Shape"></path>
                        <path d="M7.2,1.08487805 L7.2,7.42634146 C7.2,7.81658537 7.37692308,8.16 7.77692308,8.16 C8.17692308,8.16 8.35384615,7.83219512 8.35384615,7.4302439 L8.35384615,1.08487805 C8.35384615,0.694634146 8.17692308,0.355121951 7.77692308,0.355121951 C7.37692308,0.355121951 7.2,0.67902439 7.2,1.08487805 Z" id="Shape"></path>
                    </g>
                </g>
            </g>
        </g>
    </g>
</svg>