<?xml version="1.0" encoding="UTF-8"?>
<svg width="18px" height="16px" viewBox="0 0 18 16" version="1.1" xmlns="http://www.w3.org/2000/svg" xmlns:xlink="http://www.w3.org/1999/xlink">
    <!-- Generator: Sketch 60.1 (88133) - https://sketch.com -->
    <title>Group 5</title>
    <desc>Created with Sketch.</desc>
    <defs>
        <linearGradient x1="100%" y1="60.3841126%" x2="0%" y2="60.3841146%" id="linearGradient-1">
            <stop stop-color="#F01E6C" offset="0%"></stop>
            <stop stop-color="#FC5D1F" offset="100%"></stop>
        </linearGradient>
    </defs>
    <g id="Desktop" stroke="none" stroke-width="1" fill="none" fill-rule="evenodd">
        <g id="1.1-Navigation-Drawer---Full-Length---Desktop" transform="translate(-1159.000000, -218.000000)">
            <g id="Group-21" transform="translate(1140.000000, 201.000000)">
                <g id="Group-5" transform="translate(16.000000, 13.000000)">
                    <rect id="Rectangle-2" x="0" y="0" width="24" height="24"></rect>
                    <g id="Cart" transform="translate(3.000000, 4.000000)" fill="url(#linearGradient-1)">
                        <path d="M6.5426087,10.16 L14.3686957,10.16 C14.8388234,10.1602903 15.2637788,9.87383886 15.4486957,9.432 L17.7965217,3.832 C17.9517295,3.46114823 17.9142864,3.03539638 17.6968605,2.69878889 C17.4794346,2.36218141 17.1111175,2.15975631 16.7165217,2.16 L3.80347826,2.16 C3.57775744,2.16297586 3.35766277,2.23241588 3.16956522,2.36 L2.38695652,0.52 C2.29387374,0.301977723 2.08357829,0.160757418 1.85086957,0.16 L0.676956522,0.16 C0.352789386,0.16 0.09,0.42862915 0.09,0.76 C0.09,1.09137085 0.352789386,1.36 0.676956522,1.36 L1.45956522,1.36 L5.03217391,9.704 C5.4746044,11.0572299 5.3114192,12.5409746 4.58608696,13.76 C4.58514985,14.5740904 5.06702431,15.3075241 5.80458601,15.6146081 C6.54214771,15.9216921 7.38819543,15.7411392 7.94395725,15.1580501 C8.49971907,14.5749611 8.65427706,13.7057079 8.33478261,12.96 L12.5804348,12.96 C12.2352454,13.7686624 12.4492164,14.7130127 13.1070517,15.2841967 C13.7648869,15.8553806 14.7111549,15.9184407 15.4359682,15.4393974 C16.1607814,14.9603542 16.4928832,14.0523945 16.2533236,13.2047641 C16.013764,12.3571336 15.2591454,11.7701078 14.396087,11.76 L6.63652174,11.76 L6.63652174,11.76 L6.55826087,11.76 C6.12603802,11.76 5.77565217,11.4018278 5.77565217,10.96 C5.77565217,10.5181722 6.12603802,10.16 6.55826087,10.16 L6.5426087,10.16 Z M16.7165217,3.36 L14.3686957,8.96 L6.15130435,8.96 L3.80347826,3.36 L16.7165217,3.36 Z M7.32521739,13.76 C7.32521739,14.2018278 6.97483154,14.56 6.5426087,14.56 C6.11038585,14.56 5.76,14.2018278 5.76,13.76 C5.76,13.3181722 6.11038585,12.96 6.5426087,12.96 C6.97483154,12.96 7.32521739,13.3181722 7.32521739,13.76 Z M15.1513043,13.76 C15.1513043,14.2018278 14.8009185,14.56 14.3686957,14.56 C13.9364728,14.56 13.586087,14.2018278 13.586087,13.76 C13.586087,13.3181722 13.9364728,12.96 14.3686957,12.96 C14.8009185,12.96 15.1513043,13.3181722 15.1513043,13.76 Z" id="Shape"></path>
                    </g>
                </g>
            </g>
        </g>
    </g>
</svg>