<?xml version="1.0" encoding="UTF-8"?>
<svg width="16px" height="12px" viewBox="0 0 16 12" version="1.1" xmlns="http://www.w3.org/2000/svg" xmlns:xlink="http://www.w3.org/1999/xlink">
    <!-- Generator: Sketch 60.1 (88133) - https://sketch.com -->
    <title>Group 14</title>
    <desc>Created with Sketch.</desc>
    <defs>
        <linearGradient x1="100%" y1="60.3841126%" x2="0%" y2="60.3841146%" id="linearGradient-1">
            <stop stop-color="#F01E6C" offset="0%"></stop>
            <stop stop-color="#FC5D1F" offset="100%"></stop>
        </linearGradient>
        <linearGradient x1="100%" y1="60.3841126%" x2="0%" y2="60.3841146%" id="linearGradient-2">
            <stop stop-color="#F01E6C" offset="0%"></stop>
            <stop stop-color="#FC5D1F" offset="100%"></stop>
        </linearGradient>
    </defs>
    <g id="Desktop" stroke="none" stroke-width="1" fill="none" fill-rule="evenodd">
        <g id="1.1-Navigation-Drawer---Full-Length---Desktop" transform="translate(-1160.000000, -376.000000)">
            <g id="Group-22" transform="translate(1140.000000, 357.000000)">
                <g id="Group-10">
                    <g id="Group-14" transform="translate(16.000000, 13.000000)">
                        <rect id="Rectangle-2" x="0" y="0" width="24" height="24"></rect>
                        <g id="View-3" transform="translate(4.000000, 6.000000)">
                            <path d="M15.7404444,5.39272727 C15.6124444,5.17818182 12.5404444,0.145454545 8.07822222,0.145454545 C3.616,0.145454545 0.544,5.17818182 0.416,5.39272727 C0.204234278,5.74383301 0.204234278,6.18707608 0.416,6.53818182 C0.544,6.75272727 3.616,11.7672727 8.07466667,11.7818182 L8.096,11.7818182 C12.544,11.7818182 15.616,6.74909091 15.744,6.53454545 C15.9532175,6.18364195 15.951843,5.74226079 15.7404444,5.39272727 L15.7404444,5.39272727 Z M8.096,10.6909091 L8.096,10.6909091 C4.18488889,10.6909091 1.34044444,5.96363636 1.34044444,5.96363636 C1.34044444,5.96363636 4.18488889,1.23636364 8.096,1.23636364 C12.0071111,1.23636364 14.8515556,5.96363636 14.8515556,5.96363636 C14.8515556,5.96363636 11.9964444,10.6909091 8.096,10.6909091 Z" id="Shape" fill="url(#linearGradient-1)"></path>
                            <path d="M8.07822222,3.05454545 C6.50727893,3.05454545 5.23377778,4.35698982 5.23377778,5.96363636 C5.23377778,7.57028291 6.50727893,8.87272727 8.07822222,8.87272727 C9.64916551,8.87272727 10.9226667,7.57028291 10.9226667,5.96363636 C10.9226667,4.35698982 9.64916551,3.05454545 8.07822222,3.05454545 Z M8.07822222,7.78181818 C7.09638267,7.78181818 6.30044444,6.96779045 6.30044444,5.96363636 C6.30044444,4.95948227 7.09638267,4.14545455 8.07822222,4.14545455 C9.06006178,4.14545455 9.856,4.95948227 9.856,5.96363636 C9.856,6.96779045 9.06006178,7.78181818 8.07822222,7.78181818 L8.07822222,7.78181818 Z" id="Shape" fill="url(#linearGradient-2)"></path>
                        </g>
                    </g>
                </g>
            </g>
        </g>
    </g>
</svg>