<?xml version="1.0" encoding="UTF-8"?>
<svg width="14px" height="16px" viewBox="0 0 14 16" version="1.1" xmlns="http://www.w3.org/2000/svg" xmlns:xlink="http://www.w3.org/1999/xlink">
    <!-- Generator: Sketch 60.1 (88133) - https://sketch.com -->
    <title>Group 17</title>
    <desc>Created with Sketch.</desc>
    <defs>
        <linearGradient x1="100%" y1="60.3841126%" x2="0%" y2="60.3841146%" id="linearGradient-1">
            <stop stop-color="#F01E6C" offset="0%"></stop>
            <stop stop-color="#FC5D1F" offset="100%"></stop>
        </linearGradient>
        <linearGradient x1="100%" y1="60.3841126%" x2="0%" y2="60.3841146%" id="linearGradient-2">
            <stop stop-color="#F01E6C" offset="0%"></stop>
            <stop stop-color="#FC5D1F" offset="100%"></stop>
        </linearGradient>
    </defs>
    <g id="Desktop" stroke="none" stroke-width="1" fill="none" fill-rule="evenodd">
        <g id="1.1-Navigation-Drawer---Full-Length---Desktop" transform="translate(-1161.000000, -480.000000)">
            <g id="Group-24" transform="translate(1140.000000, 463.000000)">
                <g id="Group-7">
                    <g id="Group-17" transform="translate(16.000000, 13.000000)">
                        <rect id="Rectangle-2" x="0" y="0" width="24" height="24"></rect>
                        <g id="Dollar_bag" transform="translate(5.000000, 4.000000)">
                            <path d="M6.95947368,9.67466667 C6.69757143,9.67481038 6.46129415,9.52288644 6.3605625,9.28957275 C6.25983085,9.05625906 6.31442526,8.78737085 6.49894737,8.608 C6.75616391,8.37276527 7.15909925,8.37276527 7.41631579,8.608 C7.53937322,8.72534399 7.60840514,8.8854913 7.60789474,9.05244444 C7.60789474,9.34699631 7.85531632,9.58577778 8.16052632,9.58577778 C8.46573631,9.58577778 8.71315789,9.34699631 8.71315789,9.05244444 C8.71372135,8.26233529 8.14545182,7.57791246 7.34631579,7.40622222 L7.32789474,7.07555556 C7.32789474,6.78100369 7.08047315,6.54222222 6.77526316,6.54222222 C6.47005316,6.54222222 6.22263158,6.78100369 6.22263158,7.07555556 L6.22263158,7.52355556 C5.47249945,7.85447005 5.0636098,8.64594519 5.24121423,9.42325495 C5.41881866,10.2005647 6.13470016,10.7526808 6.95947368,10.7484444 C7.35415186,10.7503649 7.6853246,11.0361419 7.73127664,11.4144521 C7.77722868,11.7927622 7.52351793,12.1447079 7.14,12.2346667 L6.79,12.2346667 C6.4014699,12.1549269 6.13772926,11.8053306 6.17842105,11.424 C6.20842304,11.1315628 5.98765534,10.8708048 5.68473684,10.8408889 C5.53879538,10.8250123 5.39238841,10.8666242 5.27865882,10.9563045 C5.16492924,11.0459849 5.09349474,11.1761499 5.08052632,11.3173333 C4.99550848,12.1132634 5.46109899,12.8688921 6.22631579,13.1768889 C6.2510144,13.4267761 6.4540393,13.6256329 6.71257463,13.6531647 C6.97110997,13.6806965 7.21417686,13.5293448 7.29473684,13.2906667 C8.25795367,13.1244195 8.92952797,12.2749646 8.84128473,11.3344829 C8.75304149,10.3940012 7.93428239,9.67478512 6.95578947,9.67822222 L6.95947368,9.67466667 Z" id="Shape" fill="url(#linearGradient-1)"></path>
                            <path d="M13.8857895,13.0986667 C13.7384211,11.5022222 13.02,6.37511111 9.83315789,4.448 L9.83315789,4.42666667 L10.9384211,1.58222222 C11.0652096,1.2547318 11.0176623,0.888068085 10.8111586,0.60083171 C10.604655,0.313595335 10.2654109,0.14225125 9.90315789,0.142222222 L4.00842105,0.142222222 C3.64616804,0.14225125 3.30692396,0.313595335 3.10042032,0.60083171 C2.89391668,0.888068085 2.84636934,1.2547318 2.97315789,1.58222222 L4.07842105,4.42666667 L4.07842105,4.448 C0.884210526,6.37511111 0.165789474,11.5022222 0.0257894737,13.0986667 C-0.03594893,13.7858954 0.203201978,14.4666897 0.685263158,14.976 C1.17480719,15.4934226 1.86766511,15.7877375 2.59368421,15.7866667 L11.3068421,15.7866667 C12.0328612,15.7877375 12.7257191,15.4934226 13.2152632,14.976 C13.7013261,14.4684573 13.9445599,13.7874536 13.8857895,13.0986667 Z M4.01210526,1.20888889 L9.90684211,1.20888889 L8.80157895,4.05333333 L5.11736842,4.05333333 L4.01210526,1.20888889 Z M11.3142105,14.72 L2.60473684,14.72 C2.19396577,14.7211166 1.80135269,14.5567241 1.52157379,14.2664646 C1.24179488,13.9762051 1.10024305,13.5864227 1.13105263,13.1911111 C1.40368421,10.2293333 2.52,6.26844444 5.11368421,5.12 L8.79789474,5.12 C11.3768421,6.272 12.5115789,10.2293333 12.7805263,13.1911111 C12.8112391,13.585189 12.6706657,13.9738313 12.3925102,14.2638567 C12.1143547,14.5538822 11.7237002,14.7191372 11.3142105,14.72 Z" id="Shape" fill="url(#linearGradient-2)"></path>
                        </g>
                    </g>
                </g>
            </g>
        </g>
    </g>
</svg>