<?xml version="1.0" encoding="UTF-8"?>
<svg width="27px" height="27px" viewBox="0 0 27 27" version="1.1" xmlns="http://www.w3.org/2000/svg" xmlns:xlink="http://www.w3.org/1999/xlink">
    <!-- Generator: Sketch 51.3 (57544) - http://www.bohemiancoding.com/sketch -->
    <title>Group 8</title>
    <desc>Created with Sketch.</desc>
    <defs>
        <linearGradient x1="100%" y1="60.3841126%" x2="0%" y2="60.3841146%" id="linearGradient-1">
            <stop stop-color="#F01E6C" offset="0%"></stop>
            <stop stop-color="#FC5D1F" offset="100%"></stop>
        </linearGradient>
    </defs>
    <g id="Desktop" stroke="none" stroke-width="1" fill="none" fill-rule="evenodd">
        <g id="2.1-Navigation-Drawer---Full-Length---Mobile" transform="translate(-16.000000, -561.000000)">
            <g id="Group-8" transform="translate(16.000000, 561.000000)">
                <circle id="Oval-2" fill="url(#linearGradient-1)" cx="13.5" cy="13.5" r="13.5"></circle>
                <path d="M13.9594737,15.6746667 C13.6975714,15.6748104 13.4612942,15.5228864 13.3605625,15.2895728 C13.2598309,15.0562591 13.3144253,14.7873708 13.4989474,14.608 C13.7561639,14.3727653 14.1590992,14.3727653 14.4163158,14.608 C14.5393732,14.725344 14.6084051,14.8854913 14.6078947,15.0524444 C14.6078947,15.3469963 14.8553163,15.5857778 15.1605263,15.5857778 C15.4657363,15.5857778 15.7131579,15.3469963 15.7131579,15.0524444 C15.7137214,14.2623353 15.1454518,13.5779125 14.3463158,13.4062222 L14.3278947,13.0755556 C14.3278947,12.7810037 14.0804732,12.5422222 13.7752632,12.5422222 C13.4700532,12.5422222 13.2226316,12.7810037 13.2226316,13.0755556 L13.2226316,13.5235556 C12.4724995,13.8544701 12.0636098,14.6459452 12.2412142,15.4232549 C12.4188187,16.2005647 13.1347002,16.7526808 13.9594737,16.7484444 C14.3541519,16.7503649 14.6853246,17.0361419 14.7312766,17.4144521 C14.7772287,17.7927622 14.5235179,18.1447079 14.14,18.2346667 L13.79,18.2346667 C13.4014699,18.1549269 13.1377293,17.8053306 13.1784211,17.424 C13.208423,17.1315628 12.9876553,16.8708048 12.6847368,16.8408889 C12.5387954,16.8250123 12.3923884,16.8666242 12.2786588,16.9563045 C12.1649292,17.0459849 12.0934947,17.1761499 12.0805263,17.3173333 C11.9955085,18.1132634 12.461099,18.8688921 13.2263158,19.1768889 C13.2510144,19.4267761 13.4540393,19.6256329 13.7125746,19.6531647 C13.97111,19.6806965 14.2141769,19.5293448 14.2947368,19.2906667 C15.2579537,19.1244195 15.929528,18.2749646 15.8412847,17.3344829 C15.7530415,16.3940012 14.9342824,15.6747851 13.9557895,15.6782222 L13.9594737,15.6746667 Z" id="Shape" fill="#FFFFFF"></path>
                <path d="M20.8857895,19.0986667 C20.7384211,17.5022222 20.02,12.3751111 16.8331579,10.448 L16.8331579,10.4266667 L17.9384211,7.58222222 C18.0652096,7.2547318 18.0176623,6.88806809 17.8111586,6.60083171 C17.604655,6.31359533 17.2654109,6.14225125 16.9031579,6.14222222 L11.0084211,6.14222222 C10.646168,6.14225125 10.306924,6.31359533 10.1004203,6.60083171 C9.89391668,6.88806809 9.84636934,7.2547318 9.97315789,7.58222222 L11.0784211,10.4266667 L11.0784211,10.448 C7.88421053,12.3751111 7.16578947,17.5022222 7.02578947,19.0986667 C6.96405107,19.7858954 7.20320198,20.4666897 7.68526316,20.976 C8.17480719,21.4934226 8.86766511,21.7877375 9.59368421,21.7866667 L18.3068421,21.7866667 C19.0328612,21.7877375 19.7257191,21.4934226 20.2152632,20.976 C20.7013261,20.4684573 20.9445599,19.7874536 20.8857895,19.0986667 Z M11.0121053,7.20888889 L16.9068421,7.20888889 L15.8015789,10.0533333 L12.1173684,10.0533333 L11.0121053,7.20888889 Z M18.3142105,20.72 L9.60473684,20.72 C9.19396577,20.7211166 8.80135269,20.5567241 8.52157379,20.2664646 C8.24179488,19.9762051 8.10024305,19.5864227 8.13105263,19.1911111 C8.40368421,16.2293333 9.52,12.2684444 12.1136842,11.12 L15.7978947,11.12 C18.3768421,12.272 19.5115789,16.2293333 19.7805263,19.1911111 C19.8112391,19.585189 19.6706657,19.9738313 19.3925102,20.2638567 C19.1143547,20.5538822 18.7237002,20.7191372 18.3142105,20.72 Z" id="Shape" fill="#FFFFFF"></path>
            </g>
        </g>
    </g>
</svg>