<?xml version="1.0" encoding="UTF-8"?>
<svg width="27px" height="27px" viewBox="0 0 27 27" version="1.1" xmlns="http://www.w3.org/2000/svg" xmlns:xlink="http://www.w3.org/1999/xlink">
    <!-- Generator: Sketch 60.1 (88133) - https://sketch.com -->
    <title>Group 8</title>
    <desc>Created with Sketch.</desc>
    <defs>
        <linearGradient x1="100%" y1="60.3841126%" x2="0%" y2="60.3841146%" id="linearGradient-1">
            <stop stop-color="#F01E6C" offset="0%"></stop>
            <stop stop-color="#FC5D1F" offset="100%"></stop>
        </linearGradient>
    </defs>
    <g id="Desktop" stroke="none" stroke-width="1" fill="none" fill-rule="evenodd">
        <g id="2.1-Navigation-Drawer---Full-Length---Mobile" transform="translate(-16.000000, -611.000000)">
            <g id="Group-8" transform="translate(16.000000, 611.000000)">
                <circle id="Oval-2" fill="url(#linearGradient-1)" cx="13.5" cy="13.5" r="13.5"></circle>
                <path d="M20.1473684,9.1866562 C20.2648647,8.98057899 20.3271774,8.75084356 20.3289474,8.51720873 C20.3289474,7.67022823 19.6934211,6.5754412 17.8618421,6.5754412 C17.1578873,6.63697494 16.4703467,6.81084956 15.8289474,7.08954727 L15.975,6.89721982 C16.1095521,6.73650745 16.1389706,6.5195183 16.0515775,6.33238862 C15.9641844,6.14525893 15.7741175,6.01826112 15.5568259,6.00180837 C15.3395343,5.98535562 15.1301699,6.08210954 15.0118421,6.25366258 L13.575,8.13625243 L12.4539474,6.28695002 C12.2915321,6.02037989 11.9292362,5.92764827 11.6447368,6.07982815 C11.3602375,6.23200804 11.2612689,6.571472 11.4236842,6.83804214 L11.6921053,7.27817611 C10.918669,6.87004127 10.058874,6.62633774 9.17368421,6.56434538 C8.41184211,6.56434538 7.95394737,6.91201424 7.48026316,7.22639565 C7.00663437,7.50366682 6.71082221,7.983171 6.69078947,8.50611291 C6.6925594,8.73974775 6.75487215,8.96948318 6.87236842,9.17556039 C6.35928127,9.30678434 6.00250395,9.74242431 6,10.2407586 L6,12.1233484 C6,12.7361533 6.53018911,13.2329299 7.18421053,13.2329299 L7.18421053,19.8904186 C7.18421053,20.5032235 7.71439964,21 8.36842105,21 L18.6315789,21 C19.2856004,21 19.8157895,20.5032235 19.8157895,19.8904186 L19.8157895,13.2329299 C20.4698109,13.2329299 21,12.7361533 21,12.1233484 L21,10.2518544 C21,9.75870708 20.6526316,9.32473745 20.1473684,9.1866562 L20.1473684,9.1866562 Z M19.1447368,8.51720873 C19.1227762,8.67232884 19.0250205,8.80903797 18.8802632,8.88706921 C18.6431999,9.05174346 18.3581165,9.14465386 18.0631579,9.15336876 L14.6131579,9.15336876 C15.4255944,8.25382367 16.6049979,7.71672653 17.8618421,7.67392683 C18.8842105,7.68502264 19.1447368,8.24721058 19.1447368,8.51720873 Z M7.20394737,10.274046 L12.7302632,10.274046 L12.7302632,12.1233484 L7.20394737,12.1233484 L7.20394737,10.274046 Z M9.17763158,7.68502264 C10.4344758,7.72782235 11.6138793,8.26491949 12.4263158,9.16446457 L8.98026316,9.16446457 C8.23815789,9.16446457 7.89868421,8.76501525 7.89868421,8.53570175 C7.89868421,8.30638825 8.15526316,7.68502264 9.17763158,7.68502264 Z M8.38815789,13.2329299 L12.7302632,13.2329299 L12.7302632,19.8904186 L8.38815789,19.8904186 L8.38815789,13.2329299 Z M18.6513158,19.8904186 L13.9144737,19.8904186 L13.9144737,13.2329299 L18.6513158,13.2329299 L18.6513158,19.8904186 Z M19.8355263,12.1233484 L13.9144737,12.1233484 L13.9144737,10.274046 L19.8355263,10.274046 L19.8355263,12.1233484 Z" id="Shape" fill="#FFFFFF"></path>
            </g>
        </g>
    </g>
</svg>