<?xml version="1.0" encoding="UTF-8"?>
<svg width="39px" height="40px" viewBox="0 0 39 40" version="1.1" xmlns="http://www.w3.org/2000/svg" xmlns:xlink="http://www.w3.org/1999/xlink">
    <!-- Generator: Sketch 60.1 (88133) - https://sketch.com -->
    <title>facebook-logo-button</title>
    <desc>Created with Sketch.</desc>
    <defs>
        <polygon id="path-1" points="0.0585 0.271219512 0.0585 39.0253659 38.729925 39.0253659 38.729925 0.271219512 19.3942125 0.271219512"></polygon>
    </defs>
    <g id="Page-1" stroke="none" stroke-width="1" fill="none" fill-rule="evenodd">
        <g id="1.1-PDP---Full-Length---Desktop" transform="translate(-833.000000, -942.000000)">
            <g id="Group-7" transform="translate(752.000000, 906.000000)">
                <g id="Group-17" transform="translate(81.000000, 36.000000)">
                    <g id="facebook-logo-button">
                        <mask id="mask-2" fill="white">
                            <use xlink:href="#path-1"></use>
                        </mask>
                        <g id="Clip-2"></g>
                        <path d="M19.362525,0.271219512 C8.68725,0.271219512 0,8.96487805 0,19.6468293 C0,30.3326829 8.68725,39.0253659 19.362525,39.0253659 C30.0417,39.0253659 38.729925,30.3326829 38.729925,19.6468293 C38.729925,8.96487805 30.0417,0.271219512 19.362525,0.271219512 L19.362525,0.271219512 Z M24.180975,20.3287805 L21.03075,20.3287805 L21.03075,31.5678049 L16.361475,31.5678049 L16.361475,20.3287805 L14.1414,20.3287805 L14.1414,16.3580488 L16.361475,16.3580488 L16.361475,13.7892683 C16.361475,11.9521951 17.2341,9.07512195 21.072675,9.07512195 L24.531,9.0897561 L24.531,12.9434146 L22.02135,12.9434146 C21.6099,12.9434146 21.03075,13.1492683 21.03075,14.0253659 L21.03075,16.3619512 L24.588525,16.3619512 L24.180975,20.3287805 Z" id="Fill-1" fill="#3B5999" mask="url(#mask-2)"></path>
                    </g>
                </g>
            </g>
        </g>
    </g>
</svg>