<?xml version="1.0" encoding="UTF-8"?>
<svg width="5px" height="7px" viewBox="0 0 5 7" version="1.1" xmlns="http://www.w3.org/2000/svg" xmlns:xlink="http://www.w3.org/1999/xlink">
    <!-- Generator: Sketch 60.1 (88133) - https://sketch.com -->
    <title>Shape</title>
    <desc>Created with Sketch.</desc>
    <g id="Page-1" stroke="none" stroke-width="1" fill="none" fill-rule="evenodd">
        <g id="1.2-PDP---Actual-View---Desktop" transform="translate(-1113.000000, -666.000000)" fill="#FFFFFF">
            <g id="Group-3" transform="translate(1037.000000, 656.000000)">
                <path d="M78.425571,16.9903646 C78.5746532,17.0211779 78.7294096,16.9770905 78.8396625,16.8723971 L80.8634183,14.9321423 C81.0455272,14.7503373 81.0455272,14.4558129 80.8634183,14.2740079 C80.6655229,14.0921497 80.3607828,14.0921497 80.1628874,14.2740079 L78.8894781,15.4567872 L78.8894781,10.4656611 C78.8894781,10.2084836 78.6803858,10 78.4224575,10 C78.1645292,10 77.955437,10.2084836 77.955437,10.4656611 L77.955437,15.5157709 L76.7816586,14.2057109 C76.701168,14.1154862 76.5872888,14.0618483 76.4662733,14.0571624 C76.3452578,14.0524764 76.2275496,14.0971468 76.1402837,14.1808756 C76.0474573,14.2699664 75.9965915,14.393943 76.0001776,14.5223605 C76.0028577,14.6380002 76.0483231,14.7485688 76.1278299,14.8328013 L77.9959121,16.8506662 C78.1051637,16.9683439 78.2677478,17.0212061 78.425571,16.9903646 Z" id="Shape"></path>
            </g>
        </g>
    </g>
</svg>