<?xml version="1.0" encoding="UTF-8"?>
<svg width="18px" height="18px" viewBox="0 0 18 18" version="1.1" xmlns="http://www.w3.org/2000/svg" xmlns:xlink="http://www.w3.org/1999/xlink">
    <!-- Generator: Sketch 62 (91390) - https://sketch.com -->
    <title>Group 7</title>
    <desc>Created with Sketch.</desc>
    <g id="02-Contact-Us" stroke="none" stroke-width="1" fill="none" fill-rule="evenodd">
        <g id="1.1-Contact-Us----Normal-State---Desktop" transform="translate(-329.000000, -357.000000)" fill-rule="nonzero">
            <g id="Group-7" transform="translate(326.000000, 354.000000)">
                <rect id="Rectangle-4" x="0" y="0" width="24" height="24"></rect>
                <g id="Group" transform="translate(3.000000, 3.000000)" fill="#D88350">
                    <path d="M17.578125,17.5060272 L0.421875,17.5060272 C0.188964844,17.5060272 0,17.3170624 0,17.0841522 C0,16.8512421 0.188964844,16.6622772 0.421875,16.6622772 L17.578125,16.6622772 C17.8110352,16.6622772 18,16.8512421 18,17.0841522 C18,17.3170624 17.8110352,17.5060272 17.578125,17.5060272 Z" id="Shape"></path>
                    <g transform="translate(4.500000, 0.000000)" id="Shape">
                        <path d="M4.5,4.73249818 C3.82791139,4.73249818 3.28134156,5.27934268 3.28134156,5.95143129 C3.28134156,6.62351991 3.82791139,7.17008974 4.5,7.17008974 C5.17208861,7.17008974 5.71865844,6.62351991 5.71865844,5.95143129 C5.71865844,5.27934268 5.17208861,4.73249818 4.5,4.73249818 Z"></path>
                        <path d="M8.53115844,16.6622772 L8.53115844,8.50602724 L8.53115844,5.23649599 L8.53115844,4.10105897 L4.5,0.493972762 L0.468841556,4.10105897 L0.468841556,5.23649599 L0.468841556,8.50602724 L0.468841556,16.6622772 L1.98880003,16.6622772 L1.98880003,12.3630524 C1.98880003,10.9785004 3.11544799,9.85185242 4.5,9.85185242 C5.88455201,9.85185242 7.01119997,10.9785004 7.01119997,12.3630524 L7.01119997,16.6622772 L8.53115844,16.6622772 Z M4.5,8.01383974 C3.36291502,8.01383974 2.43759156,7.08851627 2.43759156,5.95143129 C2.43759156,4.81407165 3.36291502,3.88874818 4.5,3.88874818 C5.63708497,3.88874818 6.56240844,4.81407165 6.56240844,5.95143129 C6.56240844,7.08851621 5.63708497,8.01383974 4.5,8.01383974 Z"></path>
                        <path d="M4.5,10.6956024 C3.58044435,10.6956024 2.83255003,11.4434967 2.83255003,12.3630524 L2.83255003,16.6622772 L6.16744991,16.6622772 L6.16744991,12.3630524 C6.16744991,11.4434967 5.41955565,10.6956024 4.5,10.6956024 Z"></path>
                    </g>
                    <polygon id="Shape" points="16.7991944 8.08415224 15.2168884 5.65837099 13.8749084 5.65837099 13.8749084 8.08415224"></polygon>
                    <polygon id="Shape" points="4.12509156 8.08415224 4.12509156 5.65837099 2.78311157 5.65837099 1.20080565 8.08415224"></polygon>
                    <rect id="Rectangle-path" x="1.44140479" y="8.92790224" width="2.68368694" height="7.734375"></rect>
                    <polygon id="Rectangle-path" points="13.8749084 8.92790224 16.5585919 8.92790224 16.5585919 16.6622772 13.8749084 16.6622772"></polygon>
                </g>
            </g>
        </g>
    </g>
</svg>