<?xml version="1.0" encoding="UTF-8"?>
<svg width="20px" height="19px" viewBox="0 0 20 19" version="1.1" xmlns="http://www.w3.org/2000/svg" xmlns:xlink="http://www.w3.org/1999/xlink">
    <!-- Generator: Sketch 60.1 (88133) - https://sketch.com -->
    <title>Group 14</title>
    <desc>Created with Sketch.</desc>
    <g id="01-My-Orders" stroke="none" stroke-width="1" fill="none" fill-rule="evenodd">
        <g id="1.1-My-Order---Landing---Desktop" transform="translate(-902.000000, -837.000000)">
            <g id="Group-5" transform="translate(889.000000, 826.000000)">
                <g id="Group-9" transform="translate(11.000000, 9.000000)">
                    <g id="Group-14">
                        <rect id="Rectangle-2" x="0" y="0" width="24" height="24"></rect>
                        <g id="Group" transform="translate(3.000000, 3.000000)" fill="#000000" fill-rule="nonzero" stroke="#000000" stroke-width="0.5">
                            <rect id="Rectangle-path" x="0" y="9.73770492" width="1.8" height="1"></rect>
                            <rect id="Rectangle-path" x="0" y="12.0983607" width="2.4" height="1"></rect>
                            <rect id="Rectangle-path" x="0" y="14.4590164" width="2.7" height="1"></rect>
                            <path d="M2.4117,8.64 L3.909,14.5307213 C3.94243773,14.6620124 4.06239618,14.7540948 4.2,14.7540984 L5.7,14.7540984 L5.7,15.5083279 C5.26372157,15.7551689 5.03121797,16.2442372 5.11835168,16.7318174 C5.2054854,17.2193977 5.59361235,17.6011619 6.08931894,17.6868672 C6.58502554,17.7725725 7.08224494,17.5438804 7.3332,17.1147541 L8.5668,17.1147541 C8.77846675,17.4797085 9.17283351,17.7050033 9.6,17.7050033 C10.0271665,17.7050033 10.4215332,17.4797085 10.6332,17.1147541 L15.9,17.1147541 C16.0656854,17.1147541 16.2,16.9826414 16.2,16.8196721 L16.2,6.78688525 L17.7,6.78688525 C17.8237398,6.78678783 17.9347237,6.71197212 17.9794639,6.59849496 C18.024204,6.4850178 17.9935201,6.35616365 17.9022,6.27403279 L15.3,3.93698361 L15.3,0.885245902 C15.3,0.722276631 15.1656854,0.590163934 15,0.590163934 L13.2,0.590163934 C13.0343146,0.590163934 12.9,0.722276631 12.9,0.885245902 L12.9,1.78140984 L11.0022,0.0773114754 C10.8876556,-0.0254827495 10.7123444,-0.0254827495 10.5978,0.0773114754 L3.6978,6.27403279 C3.60647993,6.35616365 3.57579602,6.4850178 3.62053614,6.59849496 C3.66527627,6.71197212 3.77626016,6.78678783 3.9,6.78688525 L5.7,6.78688525 L5.7,8.26229508 L2.9163,8.26229508 L2.3847,6.69363934 C2.34387842,6.57308574 2.22918222,6.49177268 2.1,6.49180328 L0,6.49180328 L0,7.08196721 L1.8837,7.08196721 L2.4117,8.64 Z M6.3,17.1147541 C6.01223912,17.1123854 5.76671094,16.909394 5.71484617,16.6309757 C5.6629814,16.3525574 5.8193874,16.0771269 6.0876,15.9745574 C6.0915,15.9745574 6.096,15.973082 6.0999,15.9716066 C6.13309618,15.9601006 6.16708181,15.9509299 6.2016,15.9441639 C6.234066,15.938221 6.2669811,15.9349637 6.3,15.9344262 C6.63137085,15.9344262 6.9,16.1986516 6.9,16.5245902 C6.89945355,16.5570678 6.89614197,16.5894433 6.8901,16.621377 C6.88322123,16.6553294 6.87389774,16.6887579 6.8622,16.7214098 C6.8622,16.7252459 6.8604,16.7296721 6.8592,16.7338033 C6.77105651,16.9624893 6.54864384,17.1140063 6.3,17.1147541 L6.3,17.1147541 Z M7.5,16.5245902 C7.5,15.8727131 6.9627417,15.3442623 6.3,15.3442623 L6.3,14.7540984 L9.3,14.7540984 L9.3,15.3861639 C8.77179446,15.5203062 8.40204445,15.9880097 8.4,16.5245902 L7.5,16.5245902 Z M9.6,17.1147541 C9.35135616,17.1140063 9.12894349,16.9624893 9.0408,16.7338033 C9.0408,16.7296721 9.0393,16.7252459 9.0378,16.7214098 C9.02610226,16.6887579 9.01677877,16.6553294 9.0099,16.621377 C9.00385803,16.5894433 9.00054645,16.5570678 9,16.5245902 C9,16.1986516 9.26862915,15.9344262 9.6,15.9344262 C9.93137085,15.9344262 10.2,16.1986516 10.2,16.5245902 C10.1994536,16.5570678 10.196142,16.5894433 10.1901,16.621377 C10.1832212,16.6553294 10.1738977,16.6887579 10.1622,16.7214098 C10.1607,16.7252459 10.1604,16.7296721 10.1592,16.7338033 C10.0710565,16.9624893 9.84864384,17.1140063 9.6,17.1147541 L9.6,17.1147541 Z M6,6.19672131 L4.6734,6.19672131 L10.8,0.694622951 L12.9978,2.66813115 C13.0857243,2.74703715 13.2127581,2.76735503 13.3215695,2.71991508 C13.4303808,2.67247514 13.5003896,2.56624998 13.5,2.44918033 L13.5,1.18032787 L14.7,1.18032787 L14.7,4.06711475 C14.7000616,4.14999304 14.7355548,4.22902529 14.7978,4.28488525 L16.9266,6.19672131 L15.9,6.19672131 C15.7343146,6.19672131 15.6,6.32883401 15.6,6.49180328 L15.6,16.5245902 L10.8,16.5245902 C10.7979556,15.9880097 10.4282055,15.5203062 9.9,15.3861639 L9.9,14.7540984 L11.4,14.7540984 C11.527448,14.7541446 11.6410147,14.6749808 11.6832,14.5566885 L13.7832,8.65504918 C13.8153994,8.56475858 13.8010902,8.46471632 13.7448133,8.38666906 C13.6885364,8.30862181 13.597279,8.26225975 13.5,8.26229508 L6.3,8.26229508 L6.3,6.49180328 C6.3,6.32883401 6.16568542,6.19672131 6,6.19672131 Z M6,8.85245902 L13.077,8.85245902 L11.187,14.1639344 L4.4343,14.1639344 L3.0843,8.85245902 L6,8.85245902 Z" id="Shape"></path>
                        </g>
                    </g>
                </g>
            </g>
        </g>
    </g>
</svg>