<?xml version="1.0" encoding="UTF-8"?>
<svg width="21px" height="18px" viewBox="0 0 21 18" version="1.1" xmlns="http://www.w3.org/2000/svg" xmlns:xlink="http://www.w3.org/1999/xlink">
    <!-- Generator: Sketch 60.1 (88133) - https://sketch.com -->
    <title>Group 28</title>
    <desc>Created with Sketch.</desc>
    <g id="01-My-Orders" stroke="none" stroke-width="1" fill="none" fill-rule="evenodd">
        <g id="1.1-My-Order---Landing---Desktop" transform="translate(-888.000000, -1488.000000)" fill-rule="nonzero">
            <g id="Group-5" transform="translate(875.000000, 1476.000000)">
                <g id="Group-28" transform="translate(11.000000, 9.000000)">
                    <rect id="Rectangle-12" x="0" y="0" width="24" height="24"></rect>
                    <path d="M4.7356875,9.45424211 C4.751875,9.42360921 4.74071875,9.38597451 4.7103125,9.36978283 L3.37353125,8.65166019 C3.34334375,8.63546852 3.3055,8.64684645 3.2893125,8.67682293 C3.27290625,8.70723702 3.28428125,8.74509053 3.31446875,8.76128221 L4.65146875,9.47940485 C4.660875,9.48443739 4.6709375,9.4868472 4.68078125,9.4868472 C4.70309375,9.48706307 4.72475,9.47502872 4.7356875,9.45424211 L4.7356875,9.45424211 Z M5.02159375,9.92117499 C5.0375625,9.8907609 5.0261875,9.8531262 4.996,9.83693452 L3.3733125,8.96783546 C3.34334375,8.9520814 3.30528125,8.96324052 3.28909375,8.993217 C3.27290625,9.02363109 3.28428125,9.0614846 3.3146875,9.07745747 L4.937375,9.94677534 C4.9465625,9.95158908 4.956625,9.95399888 4.96646875,9.95399888 C4.989,9.95421476 5.01021875,9.94218041 5.02159375,9.92117499 L5.02159375,9.92117499 Z M3.988875,14.2804551 C3.94884375,14.3561621 3.9779375,14.4500301 4.05384375,14.4898529 L6.17659375,15.6070784 C6.19978125,15.6195504 6.2245,15.6250205 6.24878125,15.6250205 C6.3045625,15.6250205 6.358375,15.5948252 6.38615625,15.5420929 C6.42596875,15.4661671 6.396875,15.3727367 6.3211875,15.3324763 L4.19821875,14.2152508 C4.12275,14.1752092 4.0286875,14.2045293 3.988875,14.2804551 L3.988875,14.2804551 Z M3.988875,13.5047864 C3.94884375,13.5807122 3.9779375,13.6745802 4.05384375,13.7144029 L6.71034375,15.1125759 C6.7333125,15.1250479 6.75803125,15.1307368 6.7823125,15.1307368 C6.83809375,15.1307368 6.89190625,15.1003227 6.9196875,15.0475904 C6.95971875,14.9718834 6.93040625,14.8782342 6.85471875,14.8381927 L4.19821875,13.4398009 C4.12275,13.3997593 4.0286875,13.4290794 3.988875,13.5047864 L3.988875,13.5047864 Z M3.988875,12.7291177 C3.94884375,12.8050435 3.9779375,12.8986926 4.05384375,12.9387342 L7.95525,14.99267 C7.97821875,15.0047043 8.0029375,15.0106121 8.02721875,15.0106121 C8.083,15.0106121 8.1368125,14.980198 8.16459375,14.9274657 C8.204625,14.8517587 8.1753125,14.7578907 8.099625,14.7180679 L4.19821875,12.6641322 C4.12275,12.6243094 4.0286875,12.6531918 3.988875,12.7291177 L3.988875,12.7291177 Z M3.988875,11.9536677 C3.94884375,12.0293748 3.9779375,12.1230239 4.05384375,12.1630655 L7.254375,13.8480936 C7.27734375,13.860128 7.3020625,13.8660358 7.32634375,13.8660358 C7.382125,13.8660358 7.4359375,13.8354029 7.46371875,13.7826705 C7.50375,13.7069635 7.4744375,13.6133144 7.39875,13.5732728 L4.19821875,11.8886822 C4.12275,11.8488595 4.0286875,11.8779607 3.988875,11.9536677 L3.988875,11.9536677 Z M3.28953125,9.62622395 C3.273125,9.65663804 3.28428125,9.69449155 3.31446875,9.71068322 L4.2115625,10.1975275 C4.22096875,10.2027788 4.23125,10.2051857 4.24109375,10.2051857 C4.26340625,10.2051857 4.284625,10.1933702 4.296,10.1725836 C4.31240625,10.1423883 4.30103125,10.1045348 4.27084375,10.0881243 L3.37375,9.60128002 C3.344,9.58465073 3.30571875,9.59602866 3.28953125,9.62622395 L3.28953125,9.62622395 Z M3.28953125,9.30982988 C3.273125,9.34002516 3.28428125,9.37765987 3.3146875,9.39407035 L4.4294375,9.99556917 C4.43884375,10.0006017 4.44890625,10.0032274 4.45896875,10.0032274 C4.4810625,10.0032274 4.5025,9.99097424 4.513875,9.97040643 C4.5300625,9.94021115 4.51890625,9.90235764 4.4885,9.88616596 L3.37375,9.28444833 C3.3435625,9.26847547 3.30571875,9.27941579 3.28953125,9.30982988 L3.28953125,9.30982988 Z M16.3154375,7.32109841 L13.2945,8.9113834 L6.636625,5.40632351 L9.65734375,3.8158197 L16.3154375,7.32109841 Z M6.22559375,5.62272305 L12.8836875,9.12800175 L9.65734375,10.8265959 L2.99925,7.32109841 L6.22559375,5.62272305 Z M9.4659375,20.0834199 L2.765625,16.5560418 L2.765625,7.63092829 L9.4659375,11.1583064 L9.4659375,20.0834199 L9.4659375,20.0834199 Z M16.5495,7.63092829 L16.5495,11.6219572 L13.1601875,11.6219572 L13.1601875,15.1071057 L16.5495,15.1071057 L16.5495,16.5562606 L9.8491875,20.0834199 L9.8491875,11.1583064 L10.0913438,11.0307423 L16.5495,7.63092829 Z M19.55425,9.91767409 L19.55425,11.6219572 L17.315125,11.6219572 L17.315125,7.21300804 C17.315125,7.07078387 17.236375,6.94015645 17.110375,6.87407691 L9.83584375,3.0443083 C9.7240625,2.98523057 9.590625,2.98523057 9.4790625,3.0443083 L2.20475,6.87407691 C2.07875,6.94015645 2,7.07078387 2,7.21300804 L2,16.7873202 C2,16.9293255 2.07875,17.059953 2.20453125,17.1260325 L9.4790625,20.9558011 C9.53484375,20.98534 9.5963125,21 9.65734375,21 C9.71859375,21 9.7800625,20.98534 9.83584375,20.9558011 L17.110375,17.1260325 C17.2361563,17.059953 17.315125,16.9295443 17.315125,16.7873202 L17.315125,15.1068869 L19.55425,15.1068869 L19.55425,16.8111701 L23,13.3645315 L19.55425,9.91767409 Z" id="Shape" fill="#000000"></path>
                </g>
            </g>
        </g>
    </g>
</svg>