<?xml version="1.0" encoding="UTF-8"?>
<svg width="34px" height="34px" viewBox="0 0 34 34" version="1.1" xmlns="http://www.w3.org/2000/svg" xmlns:xlink="http://www.w3.org/1999/xlink">
    <!-- Generator: Sketch 60.1 (88133) - https://sketch.com -->
    <title>Group 19</title>
    <desc>Created with Sketch.</desc>
    <g id="01-My-Orders" stroke="none" stroke-width="1" fill="none" fill-rule="evenodd">
        <g id="1.21-My-Order---Return-Message---Desktop" transform="translate(-703.000000, -247.000000)">
            <g id="Group-23" transform="translate(556.000000, 224.000000)">
                <g id="Group-19" transform="translate(148.000000, 24.000000)">
                    <circle id="Oval" stroke="#E9C0A8" fill="#FFFFFF" fill-rule="nonzero" cx="16" cy="16" r="16"></circle>
                    <g id="Group-18" transform="translate(7.000000, 7.000000)" fill="#88C343">
                        <g id="Group-10" transform="translate(1.000000, 1.000000)">
                            <path d="M8,0 C5.791,0 3.801,0.905 2.353,2.353 L0,0 L0,6 L6,6 L3.763,3.763 C4.848,2.675 6.345,2 8,2 C11.309,2 14,4.691 14,8 C14,11.309 11.309,14 8,14 C4.691,14 2,11.309 2,8 L0,8 C0,12.418 3.582,16 8,16 C12.418,16 16,12.418 16,8 C16,3.582 12.418,0 8,0 Z" id="Shape" fill-rule="nonzero"></path>
                            <path d="M10.6982922,5.48712447 L7.32032941,9.28429714 L5.30170778,7.01516176 C5.10085849,6.80478246 4.7878702,6.8109901 4.59374808,7.02920305 C4.39962595,7.247416 4.39410364,7.59924656 4.58125695,7.82502153 L6.960104,10.4990868 C7.15912348,10.7225266 7.48153535,10.7225266 7.68055482,10.4990868 L11.418743,6.29698423 C11.6058964,6.07120927 11.6003741,5.71937871 11.4062519,5.50116575 C11.2121298,5.2829528 10.8991415,5.27674516 10.6982922,5.48712447 L10.6982922,5.48712447 Z" id="Shape"></path>
                        </g>
                    </g>
                </g>
            </g>
        </g>
    </g>
</svg>