<?xml version="1.0" encoding="UTF-8"?>
<svg width="32px" height="32px" viewBox="0 0 32 32" version="1.1" xmlns="http://www.w3.org/2000/svg" xmlns:xlink="http://www.w3.org/1999/xlink">
    <!-- Generator: Sketch 51.3 (57544) - http://www.bohemiancoding.com/sketch -->
    <title>Group 11</title>
    <desc>Created with Sketch.</desc>
    <defs></defs>
    <g id="Desktop" stroke="none" stroke-width="1" fill="none" fill-rule="evenodd">
        <g id="4.4.-Apply-Credits---Entered-State---Desktop---New" transform="translate(-495.000000, -291.000000)">
            <g id="Group-11" transform="translate(495.000000, 291.000000)">
                <circle id="Oval-4" fill="#4CAF50" opacity="0.15" cx="16" cy="16" r="16"></circle>
                <path d="M19.0846253,13.2494276 C19.0846253,13.01498 18.8944855,12.8248403 18.6605613,12.8248403 L13.5121345,12.8248403 C13.2771636,12.8248403 13.0870238,13.01498 13.0870238,13.2494276 C13.0870238,13.4840496 13.2771636,13.6743638 13.5121345,13.6743638 L15.5975666,13.6743638 C16.2091537,13.6743638 16.72445,14.0879614 16.8814461,14.6503565 L13.5121345,14.6503565 C13.2771636,14.6503565 13.0870238,14.8403218 13.0870238,15.0747694 C13.0870238,15.3090425 13.2771636,15.4993568 13.5121345,15.4993568 L16.8376616,15.4993568 C16.6414165,15.9937202 16.1599616,16.3446937 15.5975666,16.3446937 L13.5121345,16.3446937 C13.3380432,16.3446937 13.1817448,16.4504045 13.1175509,16.6121105 C13.0535313,16.7732932 13.093827,16.9573276 13.2197728,17.0769935 L16.6736879,20.3568173 C16.7556748,20.4344432 16.8605133,20.4733434 16.9660496,20.4733434 C17.0776913,20.4733434 17.1896819,20.4295589 17.2735876,20.3414666 C17.4349447,20.1713875 17.428316,19.9025752 17.2582368,19.7413925 L14.5755217,17.1931707 L15.5975666,17.1931707 C16.6333922,17.1931707 17.499662,16.4683718 17.7236432,15.4991823 L18.6603868,15.4991823 C18.8943111,15.4991823 19.0844508,15.3088681 19.0844508,15.074595 C19.0844508,14.8401474 18.8943111,14.6501821 18.6603868,14.6501821 L17.7487626,14.6501821 C17.687883,14.2864743 17.5383877,13.9534681 17.3213842,13.6741894 L18.6603868,13.6741894 C18.8944855,13.6743638 19.0846253,13.4840496 19.0846253,13.2494276 Z M16,8 C11.5887573,8 8,11.5887573 8,16 C8,20.4112427 11.5887573,24 16,24 C20.4112427,24 24,20.4112427 24,16 C24,11.5887573 20.4112427,8 16,8 Z M16,23.1277992 C12.0696888,23.1277992 8.87220078,19.9303112 8.87220078,16 C8.87220078,12.0696888 12.0696888,8.87220078 16,8.87220078 C19.9303112,8.87220078 23.1277992,12.0696888 23.1277992,16 C23.1277992,19.9303112 19.9303112,23.1277992 16,23.1277992 Z" id="Shape" fill="#88C343" fill-rule="nonzero"></path>
            </g>
        </g>
    </g>
</svg>