<?xml version="1.0" encoding="UTF-8"?>
<svg width="60px" height="60px" viewBox="0 0 60 60" version="1.1" xmlns="http://www.w3.org/2000/svg" xmlns:xlink="http://www.w3.org/1999/xlink">
    <!-- Generator: Sketch 60.1 (88133) - https://sketch.com -->
    <title>Group 10</title>
    <desc>Created with Sketch.</desc>
    <g id="Desktop" stroke="none" stroke-width="1" fill="none" fill-rule="evenodd">
        <g id="6A.-Order-Confirmation---COD---Desktop" transform="translate(-320.000000, -592.000000)">
            <g id="Group-10" transform="translate(320.000000, 592.000000)">
                <circle id="Oval" fill="#E9C0A8" fill-rule="nonzero" cx="30" cy="30" r="30"></circle>
                <g id="Coins" transform="translate(18.000000, 18.000000)" fill="#FFFFFF">
                    <path d="M3.56,12.14 C3.08608164,12.1402695 2.65853228,11.8554121 2.47625596,11.4179489 C2.29397963,10.9804857 2.39276951,10.4763203 2.72666667,10.14 C3.19210612,9.69893488 3.92122721,9.69893488 4.38666667,10.14 C4.60934202,10.36002 4.73425692,10.6602962 4.73333333,10.9733333 C4.73333333,11.5256181 5.18104858,11.9733333 5.73333333,11.9733333 C6.28561808,11.9733333 6.73333333,11.5256181 6.73333333,10.9733333 C6.74042834,9.58870555 5.8378553,8.36359139 4.51333333,7.96 L4.47333333,7.29333333 C4.47333333,6.74104858 4.02561808,6.29333333 3.47333333,6.29333333 C2.92104858,6.29333333 2.47333333,6.74104858 2.47333333,7.29333333 L2.47333333,8.02 C1.02331875,8.54118688 0.158918876,10.0304276 0.425566866,11.5480168 C0.692214855,13.065606 2.01250259,14.1709862 3.55333333,14.1666667 C4.13773268,14.1667843 4.6617905,14.5265647 4.87188824,15.0718917 C5.08198599,15.6172187 4.93478887,16.235613 4.50153314,16.6278019 C4.06827741,17.0199907 3.43832648,17.1050811 2.91654601,16.8418934 C2.39476554,16.5787058 2.08877806,16.0215252 2.14666667,15.44 C2.20189514,14.8877153 1.79895142,14.3952285 1.24666667,14.34 C0.694381917,14.2847715 0.201895142,14.6877153 0.146666667,15.24 C-0.0226229671,16.8263356 0.942513806,18.3143707 2.46,18.8066667 L2.46,19.96 C2.46,20.5122847 2.90771525,20.96 3.46,20.96 C4.01228475,20.96 4.46,20.5122847 4.46,19.96 L4.46,18.8533333 C5.02622378,18.7018519 5.54320628,18.4054486 5.96,17.9933333 C6.94076998,17.0177695 7.23574285,15.5467126 6.70690566,14.2684459 C6.17806847,12.9901792 4.9300062,12.1574979 3.54666667,12.16 L3.56,12.14 Z" id="Shape"></path>
                    <path d="M23.0666667,7.24666667 C23.6456755,6.61438674 23.9709077,5.79062354 23.98,4.93333333 C23.98,2.22666667 20.8933333,0.266666667 16.6466667,0.266666667 C12.4,0.266666667 9.31333333,2.22666667 9.31333333,4.93333333 C9.31520287,5.79870444 9.62475675,6.6352088 10.1866667,7.29333333 C9.62948096,7.9332848 9.31969452,8.75149936 9.31333333,9.6 C9.31520287,10.4653711 9.62475675,11.3018755 10.1866667,11.96 C9.62948096,12.5999515 9.31969452,13.418166 9.31333333,14.2666667 C9.31520287,15.1320378 9.62475675,15.9685421 10.1866667,16.6266667 C9.62948096,17.2666181 9.31969452,18.0848327 9.31333333,18.9333333 C9.31333333,21.64 12.2333333,23.6 16.48,23.6 C20.7266667,23.6 23.98,21.64 23.98,18.9333333 C23.9726173,18.0637785 23.6478137,17.2268757 23.0666667,16.58 C23.6456755,15.9477201 23.9709077,15.1239569 23.98,14.2666667 C23.9726173,13.3971119 23.6478137,12.5602091 23.0666667,11.9133333 C23.6456755,11.2810534 23.9709077,10.4572902 23.98,9.6 C23.9726173,8.73044521 23.6478137,7.89354239 23.0666667,7.24666667 L23.0666667,7.24666667 Z M21.98,14.2666667 C21.98,15.74 19.4266667,16.9333333 16.48,16.9333333 C13.5333333,16.9333333 11.3133333,15.74 11.3133333,14.2666667 C11.3261176,13.8735329 11.4826737,13.498747 11.7533333,13.2133333 C13.2180539,13.9484753 14.8417279,14.3103096 16.48,14.2666667 C18.2114108,14.3038617 19.9256488,13.917071 21.4733333,13.14 C21.7814537,13.4359824 21.9630308,13.8397524 21.98,14.2666667 L21.98,14.2666667 Z M16.48,9.6 C18.2114108,9.63719506 19.9256488,9.25040437 21.4733333,8.47333333 C21.7814537,8.76931569 21.9630308,9.17308578 21.98,9.6 C21.98,11.0733333 19.4266667,12.2666667 16.48,12.2666667 C13.5333333,12.2666667 11.3133333,11.0733333 11.3133333,9.6 C11.3261176,9.20686621 11.4826737,8.83208035 11.7533333,8.54666667 C13.2180539,9.28180863 14.8417279,9.64364288 16.48,9.6 L16.48,9.6 Z M16.6466667,2.26666667 C19.5933333,2.26666667 21.98,3.46 21.98,4.93333333 C21.98,6.40666667 19.4266667,7.6 16.48,7.6 C13.5333333,7.6 11.3133333,6.40666667 11.3133333,4.93333333 C11.3133333,3.46 13.7,2.26666667 16.6466667,2.26666667 Z M16.48,21.6 C13.5333333,21.6 11.3133333,20.4066667 11.3133333,18.9333333 C11.3261176,18.5401995 11.4826737,18.1654137 11.7533333,17.88 C13.2180539,18.615142 14.8417279,18.9769762 16.48,18.9333333 C18.2114108,18.9705284 19.9256488,18.5837377 21.4733333,17.8066667 C21.7814537,18.102649 21.9630308,18.5064191 21.98,18.9333333 C21.98,20.4066667 19.4266667,21.6 16.48,21.6 Z" id="Shape"></path>
                </g>
            </g>
        </g>
    </g>
</svg>