<?xml version="1.0" encoding="UTF-8"?>
<svg width="60px" height="60px" viewBox="0 0 60 60" version="1.1" xmlns="http://www.w3.org/2000/svg" xmlns:xlink="http://www.w3.org/1999/xlink">
    <!-- Generator: Sketch 60.1 (88133) - https://sketch.com -->
    <title>Group 2</title>
    <desc>Created with Sketch.</desc>
    <g id="Desktop" stroke="none" stroke-width="1" fill="none" fill-rule="evenodd">
        <g id="8A.-Complete-Shipment---Mobile" transform="translate(-320.000000, -567.000000)" fill-rule="nonzero">
            <g id="Group-2" transform="translate(320.000000, 567.000000)">
                <circle id="Oval" fill="#E9C0A8" cx="30" cy="30" r="30"></circle>
                <g id="Group" transform="translate(15.000000, 18.000000)" fill="#FFFFFF">
                    <path d="M27.6375,6.47368421 L25.471875,6.47368421 L23.665625,1.35789474 C23.3447932,0.448988964 22.3562547,-0.025756785 21.45625,0.296842105 L1.36875,7.54736842 C0.933402881,7.70170845 0.577025762,8.02526042 0.378716585,8.44621195 C0.180407407,8.86716347 0.156571772,9.35069033 0.3125,9.78947368 L4.790625,22.4210526 C5.07579629,23.2309964 5.90104552,23.7115471 6.7375,23.5547368 C6.37774462,23.6374817 6.00083366,23.5940482 5.66875,23.4315789 C6.02052443,23.6636193 6.42997634,23.7905938 6.85,23.7978947 L27.6375,23.7978947 C28.2260996,23.7856984 28.784988,23.5342684 29.1878356,23.1004372 C29.5906833,22.666606 29.8034797,22.087 29.778125,21.4926316 L29.778125,8.80736842 C29.778125,7.57894737 28.86875,6.47368421 27.6375,6.47368421 Z M28.621875,21.4989474 C28.6459771,21.7828741 28.5546686,22.0644828 28.3689696,22.2789442 C28.1832706,22.4934056 27.9191821,22.6222404 27.6375,22.6357895 L6.85,22.6357895 C6.56367791,22.624329 6.29373293,22.4978277 6.10010633,22.2843752 C5.90647972,22.0709227 5.80519773,21.7881862 5.81875,21.4989474 L5.81875,13.6042105 L28.63125,13.6042105 L28.621875,21.4989474 Z M28.621875,10.7621053 L5.809375,10.7621053 L5.809375,8.80736842 C5.79496977,8.51821733 5.89605266,8.23532872 6.08994124,8.02218116 C6.28382982,7.8090336 6.55428745,7.68347652 6.840625,7.67368421 L27.6375,7.67368421 C27.9189097,7.68639945 28.1830156,7.81454268 28.3688024,8.0285095 C28.5545892,8.24247631 28.645985,8.523757 28.621875,8.80736842 L28.621875,10.7621053 Z" id="Shape"></path>
                    <path d="M7.99460526,15.2810526 L11.3616447,15.2810526 C11.4069902,15.2810526 11.44375,15.3178124 11.44375,15.3631579 L11.44375,18.7673684 C11.44375,18.8127139 11.4069902,18.8494737 11.3616447,18.8494737 L7.99460526,18.8494737 C7.94925978,18.8494737 7.9125,18.8127139 7.9125,18.7673684 L7.9125,15.3631579 C7.9125,15.3178124 7.94925978,15.2810526 7.99460526,15.2810526 Z" id="Rectangle-path"></path>
                    <path d="M13.653125,16.4494737 L25.9375,16.4494737 C25.9615567,16.4478552 25.9839835,16.4366165 25.9998185,16.4182443 C26.0156534,16.3998721 26.023591,16.3758809 26.021875,16.3515789 L26.021875,15.6663158 C26.021875,15.6094737 25.984375,15.5021053 25.9375,15.5021053 L13.653125,15.5021053 C13.60625,15.5021053 13.565625,15.6094737 13.565625,15.6663158 L13.565625,16.3515789 C13.5639141,16.3764021 13.5722728,16.40086 13.5887779,16.4193259 C13.6052831,16.4377919 13.6285136,16.4486758 13.653125,16.4494737 Z" id="Shape"></path>
                    <path d="M18.8840132,17.6431579 L25.7659868,17.6431579 C25.9124876,17.6431579 26.03125,17.7619203 26.03125,17.9084211 L26.03125,18.3284211 C26.03125,18.4749218 25.9124876,18.5936842 25.7659868,18.5936842 L18.8840132,18.5936842 C18.7375124,18.5936842 18.61875,18.4749218 18.61875,18.3284211 L18.61875,17.9084211 C18.61875,17.7619203 18.7375124,17.6431579 18.8840132,17.6431579 Z" id="Rectangle-path"></path>
                </g>
            </g>
        </g>
    </g>
</svg>