<?xml version="1.0" encoding="UTF-8"?>
<svg width="100px" height="100px" viewBox="0 0 100 100" version="1.1" xmlns="http://www.w3.org/2000/svg" xmlns:xlink="http://www.w3.org/1999/xlink">
    <!-- Generator: Sketch 60.1 (88133) - https://sketch.com -->
    <title>Group 8</title>
    <desc>Created with Sketch.</desc>
    <g id="Desktop" stroke="none" stroke-width="1" fill="none" fill-rule="evenodd">
        <g id="17.-Return-rejected---Mobile" transform="translate(-130.000000, -124.000000)">
            <g id="Group-8" transform="translate(130.000000, 124.000000)">
                <circle id="Oval-2" fill="#D88350" fill-rule="nonzero" cx="50" cy="50" r="50"></circle>
                <path d="M57.5974569,41.4386801 C57.0118218,40.8537733 56.063092,40.8537733 55.4774569,41.4386801 L49.5374569,47.3786801 L43.5974569,41.4386801 C43.0064374,40.8879623 42.0854375,40.9042123 41.5142133,41.4754365 C40.9429892,42.0466606 40.9267392,42.9676606 41.4774569,43.5586801 L47.4174569,49.4986801 L41.4774569,55.4386801 C41.0761505,55.8126212 40.9109585,56.3757912 41.0466858,56.9072579 C41.1824131,57.4387246 41.5974124,57.8537239 42.1288791,57.9894512 C42.6603458,58.1251784 43.2235157,57.9599864 43.5974569,57.5586801 L49.5374569,51.6186801 L55.4774569,57.5586801 C55.8513981,57.9599864 56.414568,58.1251784 56.9460347,57.9894512 C57.4775015,57.8537239 57.8925007,57.4387246 58.028228,56.9072579 C58.1639553,56.3757912 57.9987633,55.8126212 57.5974569,55.4386801 L51.6574569,49.4986801 L57.5974569,43.5586801 C58.1823637,42.973045 58.1823637,42.0243152 57.5974569,41.4386801 L57.5974569,41.4386801 Z" id="Shape" fill="#FFFFFF"></path>
                <g id="Group" transform="translate(26.000000, 26.000000)" fill="#FFFFFF" fill-rule="nonzero">
                    <path d="M3.15375824,33.4554725 C3.29142857,33.4554725 3.43173626,33.4296264 3.56782418,33.3752967 C4.13696703,33.1453187 4.41230769,32.4991648 4.18338462,31.9294945 C0.647208791,23.1470769 3.23076923,13.2516923 10.6116923,7.30707692 C18.2811429,1.12826374 28.9545495,1.13142857 36.5707253,6.65406593 L34.4724396,8.34303297 C34.1216703,8.62523077 33.9766154,9.09046154 34.1032088,9.52140659 C34.2292747,9.95182418 34.6032527,10.2656703 35.050022,10.3131429 L41.4661978,11.0030769 C41.5062857,11.0072967 41.5458462,11.0099341 41.586989,11.0099341 C42.1466374,11.0099341 42.6282198,10.587956 42.6894066,10.0182857 L43.3814505,3.60474725 C43.429978,3.15797802 43.2036923,2.72597802 42.8096703,2.5112967 C42.4151209,2.29503297 41.9309011,2.33723077 41.5801319,2.62101099 L38.3588571,5.21459341 C29.9224615,-1.23956044 17.8475604,-1.37564835 9.21810989,5.57643956 C1.07024176,12.1392527 -1.78074725,23.0632088 2.12254945,32.7586813 C2.29714286,33.1922637 2.71384615,33.4554725 3.15375824,33.4554725 Z" id="Shape"></path>
                    <path d="M45.8273407,14.9174505 C45.5926154,14.3514725 44.9432967,14.082989 44.3746813,14.3177143 C43.8081758,14.552967 43.5396923,15.2028132 43.7744176,15.7687912 C47.3854945,24.469978 44.7760879,34.6807912 37.4305055,40.5995604 C29.7610549,46.7778462 19.0876484,46.7736264 11.4704176,41.2504615 L13.5671209,39.5614945 C13.9173626,39.2803516 14.0624176,38.8145934 13.9358242,38.3847033 C13.8092308,37.9532308 13.4357802,37.6404396 12.9895385,37.5924396 L6.57441758,36.8998681 C6.2763956,36.8666374 5.9883956,36.9541978 5.75841758,37.1393407 C5.52896703,37.323956 5.38285714,37.5924396 5.35120879,37.8857143 L4.66021978,44.3003077 C4.61169231,44.7465495 4.83745055,45.1785495 5.23147253,45.3932308 C5.39868132,45.483956 5.58171429,45.5298462 5.76421978,45.5298462 C6.01265934,45.5298462 6.25951648,45.4465055 6.46153846,45.2835165 L9.68281319,42.6899341 C13.8646154,45.8890549 18.9378462,47.540044 24.0458901,47.5384627 C29.242022,47.5384627 34.4719121,45.8352527 38.8240879,42.3296703 C46.933978,35.7963956 49.8134505,24.5243077 45.8273407,14.9174505 Z" id="Shape"></path>
                </g>
            </g>
        </g>
    </g>
</svg>