<?xml version="1.0" encoding="UTF-8"?>
<svg width="39px" height="40px" viewBox="0 0 39 40" version="1.1" xmlns="http://www.w3.org/2000/svg" xmlns:xlink="http://www.w3.org/1999/xlink">
    <!-- Generator: Sketch 60.1 (88133) - https://sketch.com -->
    <title>Group 9</title>
    <desc>Created with Sketch.</desc>
    <g id="Page-1" stroke="none" stroke-width="1" fill="none" fill-rule="evenodd">
        <g id="1.1-PDP---Full-Length---Desktop" transform="translate(-754.000000, -942.000000)">
            <g id="Group-7" transform="translate(752.000000, 906.000000)">
                <g id="Group-41" transform="translate(2.000000, 36.000000)">
                    <g id="Group-9">
                        <ellipse id="Oval-5" fill="#D35529" cx="19.5" cy="20" rx="19.5" ry="20"></ellipse>
                        <g id="Group" transform="translate(9.000000, 13.000000)" fill="#FFFFFF" fill-rule="nonzero">
                            <path d="M0.976743698,0.0859410169 C0.448295791,0.0859410169 -4.88372093e-07,0.521578305 -4.88372093e-07,1.03509356 L-4.88372093e-07,12.8995051 C-4.88372093e-07,13.4130203 0.448295791,13.8486576 0.976743698,13.8486576 L20.0232563,13.8486576 C20.5517042,13.8486576 20.9999995,13.4130203 20.9999995,12.8995051 L20.9999995,1.03509356 C20.9999995,0.521578305 20.5517042,0.0859410169 20.0232563,0.0859410169 L0.976743698,0.0859410169 L0.976743698,0.0859410169 Z M2.58684544,1.50966983 L18.4131536,1.50966983 L10.4999995,8.60608475 L2.58684544,1.50966983 Z M1.46511579,2.43658847 L6.38699079,6.84865763 L1.46511579,11.4461153 L1.46511579,2.43658847 Z M19.5348832,2.43658847 L19.5348832,11.4461153 L14.6130082,6.84865763 L19.5348832,2.43658847 Z M7.47056637,7.8200678 L10.0039966,10.096539 C10.2843723,10.3471701 10.7156267,10.3471701 10.9960024,10.096539 L13.5294327,7.8200678 L18.4589385,12.4249288 L2.54106056,12.4249288 L7.47056637,7.8200678 L7.47056637,7.8200678 Z" id="Shape"></path>
                        </g>
                    </g>
                </g>
            </g>
        </g>
    </g>
</svg>