<?xml version="1.0" encoding="UTF-8"?>
<svg width="36px" height="36px" viewBox="0 0 36 36" version="1.1" xmlns="http://www.w3.org/2000/svg" xmlns:xlink="http://www.w3.org/1999/xlink">
    <!-- Generator: Sketch 51.3 (57544) - http://www.bohemiancoding.com/sketch -->
    <title>Facebook</title>
    <desc>Created with Sketch.</desc>
    <defs>
        <linearGradient x1="50%" y1="0%" x2="50%" y2="100%" id="linearGradient-1">
            <stop stop-color="#6387D3" offset="0%"></stop>
            <stop stop-color="#2D4A86" offset="100%"></stop>
        </linearGradient>
    </defs>
    <g id="Tryouts" stroke="none" stroke-width="1" fill="none" fill-rule="evenodd">
        <g id="5.10-My-Bag---Gift-Wrap-Option---Colpleted---Desktop" transform="translate(-1192.000000, -2014.000000)">
            <g id="Group-8" transform="translate(0.000000, 1359.000000)">
                <g id="Group-9" transform="translate(0.000000, 596.000000)">
                    <g id="Group-17-Copy" transform="translate(1192.000000, 32.000000)">
                        <g id="Group-16" transform="translate(0.000000, 27.000000)">
                            <g id="Facebook">
                                <path d="M27.421875,-2.9390741e-15 C32.625,-2.9390741e-15 36,3.375 36,8.578125 L36,27.421875 C36,32.625 32.625,36 27.421875,36 L8.578125,36 C3.375,36 0,32.625 0,27.421875 L0,8.578125 C0,3.375 3.375,-2.9390741e-15 8.578125,-2.9390741e-15 L27.421875,-2.9390741e-15 Z" id="App-Icon-Shape" fill="url(#linearGradient-1)"></path>
                                <path d="M18.831579,35.821945 L18.831579,21.8782147 L14.3017325,21.8782147 L14.3017325,16.8640035 L18.8315789,16.8640035 L18.831579,13.1872498 C18.831579,13.1872498 18.5057303,5.54474345 25.1195303,5.54474345 L30.4695002,5.54474345 L30.4695,10.6535035 L27.1359,10.6535035 C27.1359,10.6535035 24.6825,10.5203764 24.6558,13.0524903 L24.6557997,16.8640035 L30.0490294,16.8640035 L29.2711562,21.8782147 L24.6024004,21.8782147 L24.6024004,36 L18.831579,36 L18.831579,35.821945 Z" id="Icon" fill="#FFFFFF"></path>
                            </g>
                        </g>
                    </g>
                </g>
            </g>
        </g>
    </g>
</svg>