<?xml version="1.0" encoding="UTF-8"?>
<svg width="18px" height="18px" viewBox="0 0 18 18" version="1.1" xmlns="http://www.w3.org/2000/svg" xmlns:xlink="http://www.w3.org/1999/xlink">
    <!-- Generator: Sketch 60.1 (88133) - https://sketch.com -->
    <title>offer</title>
    <desc>Created with Sketch.</desc>
    <defs>
        <linearGradient x1="100%" y1="60.3841126%" x2="0%" y2="60.3841146%" id="linearGradient-1">
            <stop stop-color="#F01E6C" offset="0%"></stop>
            <stop stop-color="#FC5D1F" offset="100%"></stop>
        </linearGradient>
        <linearGradient x1="100%" y1="60.3841126%" x2="0%" y2="60.3841146%" id="linearGradient-2">
            <stop stop-color="#F01E6C" offset="0%"></stop>
            <stop stop-color="#FC5D1F" offset="100%"></stop>
        </linearGradient>
        <linearGradient x1="100%" y1="60.3841126%" x2="0%" y2="60.3841146%" id="linearGradient-3">
            <stop stop-color="#F01E6C" offset="0%"></stop>
            <stop stop-color="#FC5D1F" offset="100%"></stop>
        </linearGradient>
    </defs>
    <g id="Desktop" stroke="none" stroke-width="1" fill="none" fill-rule="evenodd">
        <g id="1.1-Login-/-Signup---Landing---Desktop" transform="translate(-782.000000, -52.000000)">
            <g id="Group-6">
                <g id="Group-5" transform="translate(745.000000, 53.000000)">
                    <g id="offer" transform="translate(38.000000, 0.000000)">
                        <g id="Group">
                            <path d="M14.8093023,8 L15.7395349,6.14545455 C15.944186,5.74545455 15.7767442,5.25454545 15.3674419,5.05454545 L13.5069767,4.09090909 L13.1348837,2.07272727 C13.0604651,1.63636364 12.6325581,1.32727273 12.1860465,1.4 L10.1023256,1.69090909 L8.59534884,0.254545455 C8.26046512,-0.0545454545 7.73953488,-0.0545454545 7.40465116,0.254545455 L5.89767442,1.69090909 L3.81395349,1.4 C3.36744186,1.34545455 2.93953488,1.63636364 2.86511628,2.07272727 L2.49302326,4.09090909 L0.63255814,5.05454545 C0.223255814,5.27272727 0.0744186047,5.74545455 0.260465116,6.14545455 L1.19069767,8 L0.260465116,9.85454545 C0.0558139535,10.2545455 0.223255814,10.7454545 0.63255814,10.9454545 L2.49302326,11.9090909 L2.86511628,13.9272727 C2.93953488,14.3636364 3.36744186,14.6727273 3.81395349,14.6 L5.89767442,14.3090909 L7.40465116,15.7454545 C7.73953488,16.0545455 8.26046512,16.0545455 8.59534884,15.7454545 L10.1023256,14.3090909 L12.1860465,14.6 C12.6325581,14.6545455 13.0604651,14.3636364 13.1348837,13.9272727 L13.5069767,11.9090909 L15.3674419,10.9454545 C15.7767442,10.7272727 15.9255814,10.2545455 15.7395349,9.85454545 L14.8093023,8 Z" id="Shape" stroke="url(#linearGradient-1)" stroke-linecap="round"></path>
                            <line x1="10.5116279" y1="4.72727273" x2="5.6744186" y2="10.9090909" id="Shape" stroke="url(#linearGradient-2)" stroke-linecap="round"></line>
                            <circle id="Oval-2" fill="url(#linearGradient-3)" cx="10" cy="10" r="1"></circle>
                            <circle id="Oval-2-Copy" fill="url(#linearGradient-3)" cx="6" cy="6" r="1"></circle>
                        </g>
                    </g>
                </g>
            </g>
        </g>
    </g>
</svg>